<svg id="Grupo_35681" data-name="Grupo 35681" xmlns="http://www.w3.org/2000/svg" xmlns:xlink="http://www.w3.org/1999/xlink" width="305.5" height="87.259" viewBox="0 0 305.5 87.259">
  <defs>
    <clipPath id="clip-path">
      <rect id="Rect치ngulo_2245" data-name="Rect치ngulo 2245" width="305.5" height="87.259" fill="none"/>
    </clipPath>
  </defs>
  <g id="Grupo_35680" data-name="Grupo 35680" clip-path="url(#clip-path)">
    <path id="Trazado_16405" data-name="Trazado 16405" d="M61.567,26.181C60.813,13.639,55.5,5.1,36.07,2.094c-3.32-.487-5.7-.658-9.108-2.094-.867,14.4,7.285,21.64,22.02,22.828,3.093.237,10.635,2.057,12.586,3.353" transform="translate(-12.928)" fill="#619940"/>
    <path id="Trazado_16406" data-name="Trazado 16406" d="M160.824,31.081h21.341V16.247L160.8,16.211Z" transform="translate(-77.281 -7.791)" fill="#bb0f18"/>
    <path id="Trazado_16407" data-name="Trazado 16407" d="M536.158,56.506c-3.315-5.663-13.243-11.086-23.1-5.846a23.551,23.551,0,0,0-6.561,5.247l-.031-5.11-19.039-.029v59.818h19.039v-23.8a18.719,18.719,0,0,0,6.591,4.957c9.186,4.064,19.888-.487,22.8-5.622,4.633-7.246,5.648-20.154.3-29.616m-18,19.077c-.441,3.407-2.726,5.23-5.1,5.362-2.68.133-5.385-1.854-5.385-6.127V68.039c.095-4.088,2.756-6.222,5.385-6.081,2.387.108,4.819,2.137,5.27,6.4a32.871,32.871,0,0,1-.171,7.224" transform="translate(-234.266 -23.328)" fill="#bb0f18"/>
    <path id="Trazado_16408" data-name="Trazado 16408" d="M323,50.806c-1.8.035-3.687.176-5.755.385-22.081,1.815-24.036,24.794-16.986,34.261,5.709,7.634,14.557,9.995,22.741,9.967,8.109,0,15.557-2.333,18.626-4.378,10.319-6.775,11.969-23.585,3.6-32.471-2.838-3.388-9.08-7.976-22.221-7.764m5.039,21.726c-.12,5.9-.031,10.026-4.557,10.156H323c-4.516-.1-5.084-3.981-5-10.62.036-5.322.066-9.233,5-9.411h.036c4.251-.179,5.135,3.136,5,9.875" transform="translate(-142.561 -24.415)" fill="#bb0f18"/>
    <path id="Trazado_16409" data-name="Trazado 16409" d="M434.268,51.834c-2.351,1.084-4.437,3.562-6.655,7.089V51.689h-20.24l.043,43.64h21.245V77.951c.125-11.718,9.773-12.172,15.393-11.571v-15.7a18.21,18.21,0,0,0-9.786,1.158" transform="translate(-195.791 -24.249)" fill="#bb0f18"/>
    <path id="Trazado_16410" data-name="Trazado 16410" d="M208.751,71.979c.347,23.721,25.957,27.14,42.124,21.051V80.375c-24.909,13.572-28.766-27.509,0-16.05V51.986c-25.082-6.155-42.38,4.3-42.124,19.993" transform="translate(-100.328 -24.125)" fill="#bb0f18"/>
    <rect id="Rect치ngulo_2244" data-name="Rect치ngulo 2244" width="21.548" height="43.208" transform="translate(83.276 27.585)" fill="#bb0f18"/>
    <path id="Trazado_16411" data-name="Trazado 16411" d="M106.533,78.55l20.235.074V16.119l-20.235-.038Z" transform="translate(-51.201 -7.729)" fill="#bb0f18"/>
    <path id="Trazado_16412" data-name="Trazado 16412" d="M24.042,52.033a96.608,96.608,0,0,0-18.9,2.134V65.923c4.592-2.218,13.167-3.988,18.9-2.94,3.72.691,6.216,2.568,5.693,6.319-1.874-.24-3.758-.592-5.693-.808a21.717,21.717,0,0,0-3.315-.173c-4.587.114-9.59.42-13.975,3.146C2.272,74.725.263,78.744,0,82.523v1.986A12.432,12.432,0,0,0,2.726,91.5c3.662,4.51,12.96,6.711,21.316,2.583a20.627,20.627,0,0,0,5.693-4.011V95.8l19.317-.038V71.077c.237-11.425-7.068-19.044-25.011-19.044m0,34.431c-3.253.467-6.466-1.425-6.048-5.347,1.048-3.281,3.4-4.23,6.048-4.541,1.966-.25,4.072-.153,5.984-.346,1.111,6.425-2.458,9.72-5.984,10.234" transform="translate(0 -25.008)" fill="#bb0f18"/>
  </g>
</svg>
