<svg xmlns="http://www.w3.org/2000/svg" width="102" height="106"><defs><clipPath id="b"><path fill="none" d="M0 0h82.972v65.973H0z" data-name="Rectángulo 2232"/></clipPath><clipPath id="a"><path d="M0 0h102v106H0z"/></clipPath></defs><g clip-path="url(#a)" data-name="Mesa de trabajo – 4"><path fill="rgba(255,255,255,0)" d="M0 0h102v106H0z"/><g data-name="Grupo 36823"><g clip-path="url(#b)" data-name="Grupo 35663" transform="translate(10 20)"><path fill="#192bff" d="M41.489 1.262c-19.784 0-31.07 6.515-36.393 10.864a10.982 10.982 0 0 0-3.833 8.537v6.077a1.661 1.661 0 0 0 1.564 1.743H80.15a1.659 1.659 0 0 0 1.561-1.742v-6.078a10.979 10.979 0 0 0-3.832-8.537C72.558 7.773 61.272 1.262 41.489 1.262" data-name="Trazado 16341"/><path fill="#242ff8" d="M41.489-.127a70.345 70.345 0 0 1 24.094 3.886 46.222 46.222 0 0 1 13.174 7.293 11.589 11.589 0 0 1 3.215 4.257 13.232 13.232 0 0 1 1.123 5.354v6.077a3.047 3.047 0 0 1-2.945 3.133H2.827a3.049 3.049 0 0 1-2.955-3.132v-6.078a13.23 13.23 0 0 1 1.123-5.354 11.6 11.6 0 0 1 3.22-4.259 45.388 45.388 0 0 1 13.179-7.291A70.35 70.35 0 0 1 41.489-.127ZM80.15 27.094c.043 0 .173-.125.173-.353v-6.078a9.626 9.626 0 0 0-3.321-7.46 42.543 42.543 0 0 0-12.37-6.835A67.592 67.592 0 0 0 41.489 2.65a67.6 67.6 0 0 0-23.144 3.718 42.59 42.59 0 0 0-12.373 6.834 9.629 9.629 0 0 0-3.321 7.461v6.077c0 .228.132.353.175.353Z" data-name="Trazado 16342"/><path fill="#192bff" d="M41.172 64.712c19.626 0 30.819-4.168 36.1-6.943 2.416-1.274 3.8-3.3 3.8-5.459v-1.078c0-.612-.691-1.113-1.548-1.113H2.812c-.856 0-1.551.5-1.551 1.113v1.073c0 2.156 1.386 4.185 3.8 5.459 5.281 2.775 16.475 6.943 36.1 6.943" data-name="Trazado 16343"/><path fill="#242ff8" d="M41.172 66.101a104.683 104.683 0 0 1-23.754-2.469 56.059 56.059 0 0 1-13-4.635c-2.846-1.5-4.546-4-4.546-6.687v-1.078a2.717 2.717 0 0 1 2.94-2.5h76.71a2.715 2.715 0 0 1 2.936 2.5v1.073c0 2.688-1.7 5.188-4.54 6.687a55.337 55.337 0 0 1-13 4.636 104.67 104.67 0 0 1-23.746 2.473ZM2.65 51.532v.78a3.94 3.94 0 0 0 .748 2.269 6.451 6.451 0 0 0 2.314 1.961 52.4 52.4 0 0 0 12.341 4.39 101.926 101.926 0 0 0 23.119 2.392 101.913 101.913 0 0 0 23.107-2.392 52.472 52.472 0 0 0 12.346-4.39 6.438 6.438 0 0 0 2.309-1.96 3.944 3.944 0 0 0 .747-2.27v-.78a.718.718 0 0 0-.159-.017H2.812a.72.72 0 0 0-.162.017Z" data-name="Trazado 16344"/><path fill="#fff3e9" d="M75.089 50.192H7.887a5.079 5.079 0 0 1-5.08-5.08v-.668a5.076 5.076 0 0 1 5.08-5.08h67.2a5.079 5.079 0 0 1 5.08 5.08v.668a5.081 5.081 0 0 1-5.08 5.08" data-name="Trazado 16345"/><path fill="#242ff8" d="M8.222 37.975h66.535a6.803 6.803 0 0 1 0 13.605H8.222a6.803 6.803 0 1 1 0-13.605Zm66.535 10.829a4.026 4.026 0 0 0 0-8.051H8.222a4.026 4.026 0 1 0 0 8.051Z" data-name="Rectángulo 2231"/><path fill="#fff3e9" d="M75.316 28.401H7.661a5.156 5.156 0 0 0-4.852 5.415 5.155 5.155 0 0 0 4.852 5.413h14.177a6.571 6.571 0 0 1 5.557 2.941 4.217 4.217 0 0 0 7.24 0 6.574 6.574 0 0 1 5.557-2.941c3.309 0 6.17 2.068 8.125 5.044a7.207 7.207 0 0 0 12.357 0c1.953-2.976 4.816-5.044 8.122-5.044h6.52a5.158 5.158 0 0 0 4.856-5.413 5.159 5.159 0 0 0-4.856-5.415" data-name="Trazado 16346"/><path fill="#192bff" d="M7.661 27.012h67.655a6.55 6.55 0 0 1 6.245 6.8 6.548 6.548 0 0 1-6.245 6.8h-6.52a6.947 6.947 0 0 0-3.814 1.183 11.075 11.075 0 0 0-3.147 3.234 9.44 9.44 0 0 1-3.129 2.99 8.354 8.354 0 0 1-8.424 0 9.422 9.422 0 0 1-3.126-2.983 11.1 11.1 0 0 0-3.149-3.235 6.951 6.951 0 0 0-3.816-1.183 5.193 5.193 0 0 0-4.394 2.31 5.6 5.6 0 0 1-9.565 0 5.192 5.192 0 0 0-4.4-2.312H7.661a6.547 6.547 0 0 1-6.241-6.8 7.1 7.1 0 0 1 1.776-4.756 5.953 5.953 0 0 1 4.465-2.048Zm67.655 10.829a3.781 3.781 0 0 0 3.468-4.024 3.783 3.783 0 0 0-3.468-4.028H7.661a3.782 3.782 0 0 0-3.464 4.027 3.78 3.78 0 0 0 3.464 4.024h14.177a7.958 7.958 0 0 1 6.721 3.572 2.831 2.831 0 0 0 4.915 0 7.958 7.958 0 0 1 6.718-3.567 9.681 9.681 0 0 1 5.324 1.625 13.693 13.693 0 0 1 3.961 4.041 6.632 6.632 0 0 0 2.195 2.1 5.571 5.571 0 0 0 2.821.766 6.011 6.011 0 0 0 5.02-2.871 13.668 13.668 0 0 1 3.959-4.04 9.678 9.678 0 0 1 5.323-1.629Z" data-name="Trazado 16347"/><path fill="#fff3e9" d="M20.379 14.459c0 .836-1.357 1.515-3.029 1.515s-3.029-.678-3.029-1.515 1.356-1.514 3.029-1.514 3.029.677 3.029 1.514" data-name="Trazado 16348"/><path fill="#fff3e9" d="M36.258 14.459c0 .836-1.357 1.515-3.029 1.515s-3.029-.678-3.029-1.515 1.353-1.514 3.029-1.514 3.029.677 3.029 1.514" data-name="Trazado 16349"/><path fill="#fff3e9" d="M52.134 14.459c0 .836-1.357 1.515-3.029 1.515s-3.029-.678-3.029-1.515 1.357-1.514 3.029-1.514 3.029.677 3.029 1.514" data-name="Trazado 16350"/><path fill="#fff3e9" d="M68.011 14.459c0 .836-1.353 1.515-3.029 1.515s-3.029-.678-3.029-1.515 1.356-1.514 3.029-1.514 3.029.677 3.029 1.514" data-name="Trazado 16351"/><path fill="#fff3e9" d="M28.316 21.117c0 .839-1.353 1.515-3.029 1.515s-3.026-.676-3.026-1.515 1.353-1.511 3.026-1.511 3.029.675 3.029 1.511" data-name="Trazado 16352"/><path fill="#fff3e9" d="M44.196 21.117c0 .839-1.357 1.515-3.029 1.515s-3.03-.676-3.03-1.515 1.357-1.511 3.03-1.511 3.029.675 3.029 1.511" data-name="Trazado 16353"/><path fill="#fff3e9" d="M60.073 21.117c0 .839-1.357 1.515-3.029 1.515s-3.029-.676-3.029-1.515 1.356-1.511 3.029-1.511 3.029.675 3.029 1.511" data-name="Trazado 16354"/><path fill="#fff3e9" d="M28.316 7.795c0 .836-1.353 1.515-3.029 1.515s-3.026-.678-3.026-1.515 1.353-1.514 3.026-1.514 3.029.677 3.029 1.514" data-name="Trazado 16355"/><path fill="#fff3e9" d="M44.196 7.795c0 .836-1.357 1.515-3.029 1.515s-3.03-.678-3.03-1.515 1.357-1.514 3.03-1.514 3.029.677 3.029 1.514" data-name="Trazado 16356"/><path fill="#fff3e9" d="M60.073 7.795c0 .836-1.357 1.515-3.029 1.515s-3.029-.678-3.029-1.515 1.356-1.514 3.024-1.514 3.029.677 3.029 1.514" data-name="Trazado 16357"/><text fill="#ff4438" data-name="Sacar el color verde" font-family="Bogart-Semibold, Bogart" font-size="31" font-weight="600" transform="translate(-278.908 -17.059)"><tspan x="0" y="0">Sacar el color verde </tspan></text><path fill="rgba(0,0,0,0)" d="M11.574-16.202a8.347 8.347 0 0 1-4.4-1.143 7.664 7.664 0 0 1-2.882-3.092 9.183 9.183 0 0 1-.991-4.238 8.06 8.06 0 0 1 1.157-4.3 8.052 8.052 0 0 1 3.079-2.9 8.655 8.655 0 0 1 4.14-1.03 7.482 7.482 0 0 1 3.677.874 6.507 6.507 0 0 1 2.413 2.219 5.091 5.091 0 0 1 .849 2.7 2.643 2.643 0 0 1-.719 2.046 4.068 4.068 0 0 1-2.173.822l-6.215.907a1.167 1.167 0 0 0-.121.018 2.75 2.75 0 0 0 .42 1.357 3.581 3.581 0 0 0 1.27 1.234 3.71 3.71 0 0 0 1.947.5 4.565 4.565 0 0 0 2.156-.49 4.655 4.655 0 0 0 1.5-1.2l.018-.023.047-.047a1.122 1.122 0 0 1 .818-.389 1.119 1.119 0 0 1 1.077.607 1.349 1.349 0 0 1 .065 1.072 6.661 6.661 0 0 1-1.324 2.195 6.711 6.711 0 0 1-2.4 1.671 8.591 8.591 0 0 1-3.408.63Zm.1-15.71a7.665 7.665 0 0 0-3.667.911 7.064 7.064 0 0 0-2.7 2.548 7.077 7.077 0 0 0-1.008 3.777 8.193 8.193 0 0 0 .881 3.781 6.677 6.677 0 0 0 2.512 2.696 7.365 7.365 0 0 0 3.878 1 7.6 7.6 0 0 0 3.01-.553 5.724 5.724 0 0 0 2.048-1.417 5.667 5.667 0 0 0 1.128-1.863.347.347 0 0 0-.017-.293c-.007-.014-.026-.052-.177-.053a.351.351 0 0 0-.1.083l-.019.02a5.66 5.66 0 0 1-1.8 1.442 5.55 5.55 0 0 1-2.624.606 4.694 4.694 0 0 1-2.464-.648 4.565 4.565 0 0 1-1.611-1.584 3.716 3.716 0 0 1-.558-1.883.912.912 0 0 1 .313-.748 1.291 1.291 0 0 1 .7-.245l6.182-.9a3.126 3.126 0 0 0 1.645-.573 1.732 1.732 0 0 0 .39-1.3 4.113 4.113 0 0 0-.7-2.171 5.521 5.521 0 0 0-2.051-1.875 6.5 6.5 0 0 0-3.188-.757Zm-21.063 15.71a5.432 5.432 0 0 1-3.33-1.074 6.854 6.854 0 0 1-2.189-2.927 10.852 10.852 0 0 1-.763-4.177 9.954 9.954 0 0 1 .911-4.29 7.585 7.585 0 0 1 2.635-3.1 7.027 7.027 0 0 1 4-1.162 5.083 5.083 0 0 1 2.2.405 6.817 6.817 0 0 1 1.34.841c.009-.185.016-.444.016-.806v-1.967a2.225 2.225 0 0 0-.117-.86c-.014-.033-.052-.117-.268-.166-.049 0-.1-.006-.151-.006-.091 0-.176-.006-.252-.014h-.023a3.247 3.247 0 0 1-.944-.259.978.978 0 0 1-.534-.9 1.219 1.219 0 0 1 .516-1.036 4.582 4.582 0 0 1 1.081-.551c.443-.165.9-.328 1.363-.485s.918-.289 1.335-.386a6.515 6.515 0 0 1 1.811-.321 1.945 1.945 0 0 1 1.273.35 1.518 1.518 0 0 1 .471 1.234v16.5a2.41 2.41 0 0 0 .122.894c.018.044.046.11.242.13.229.025.435.04.618.043h.037a1.655 1.655 0 0 1 .856.283 1.04 1.04 0 0 1 .415.854 1.236 1.236 0 0 1-.526 1.079 4.384 4.384 0 0 1-1.087.514c-.436.147-.9.3-1.369.466s-.925.3-1.31.4a6.582 6.582 0 0 1-1.815.323 1.945 1.945 0 0 1-1.273-.35 1.518 1.518 0 0 1-.466-1.236v-.712a9.515 9.515 0 0 1-1.486 1.485 5.217 5.217 0 0 1-3.339.984Zm1.266-15.733a6.046 6.046 0 0 0-3.444.991 6.6 6.6 0 0 0-2.29 2.7 8.963 8.963 0 0 0-.815 3.862 9.863 9.863 0 0 0 .687 3.793 5.873 5.873 0 0 0 1.865 2.511 4.395 4.395 0 0 0 2.731.874 4.265 4.265 0 0 0 2.713-.755 8.43 8.43 0 0 0 1.722-1.862 1.483 1.483 0 0 1 .237-.352.674.674 0 0 1 .488-.257c.13 0 .56.052.628.723.02.2.032.525.037 1v.748c0 .279.055.423.1.462a1.051 1.051 0 0 0 .635.12 5.755 5.755 0 0 0 1.544-.282l.021-.006c.359-.09.775-.216 1.236-.375.476-.164.938-.322 1.373-.468a3.4 3.4 0 0 0 .831-.383.245.245 0 0 0 .1-.243.219.219 0 0 0-.011-.071.718.718 0 0 0-.333-.089 6.28 6.28 0 0 1-.687-.048 1.218 1.218 0 0 1-1.06-.741 3.365 3.365 0 0 1-.2-1.278v-16.498c0-.279-.055-.423-.1-.462a1.051 1.051 0 0 0-.635-.12 5.69 5.69 0 0 0-1.54.284l-.031.008c-.389.09-.81.211-1.254.362s-.9.313-1.331.473a3.7 3.7 0 0 0-.837.418.228.228 0 0 0-.113.213.275.275 0 0 0 0 .035 2.457 2.457 0 0 0 .615.153c.042 0 .091.006.145.007.088 0 .174.005.256.012h.027l.027.005a1.308 1.308 0 0 1 1.013.747 3.169 3.169 0 0 1 .2 1.264v1.965a10.924 10.924 0 0 1-.051 1.272c-.094.711-.524.788-.7.788a.872.872 0 0 1-.467-.149 2.524 2.524 0 0 1-.326-.249 5.778 5.778 0 0 0-1.238-.795 4.2 4.2 0 0 0-1.768-.307Zm-29.912 15.733a8.348 8.348 0 0 1-4.4-1.143 7.664 7.664 0 0 1-2.886-3.093 9.183 9.183 0 0 1-.991-4.238 8.061 8.061 0 0 1 1.157-4.3 8.052 8.052 0 0 1 3.079-2.9 8.654 8.654 0 0 1 4.14-1.03 7.482 7.482 0 0 1 3.677.874 6.507 6.507 0 0 1 2.413 2.219 5.09 5.09 0 0 1 .849 2.7 2.643 2.643 0 0 1-.719 2.046 4.068 4.068 0 0 1-2.173.822l-6.215.907a1.168 1.168 0 0 0-.121.018 2.751 2.751 0 0 0 .42 1.357 3.581 3.581 0 0 0 1.27 1.234 3.71 3.71 0 0 0 1.947.5 4.565 4.565 0 0 0 2.156-.49 4.654 4.654 0 0 0 1.5-1.2l.024-.026.046-.046a1.122 1.122 0 0 1 .818-.389 1.119 1.119 0 0 1 1.077.607 1.349 1.349 0 0 1 .059 1.071 6.661 6.661 0 0 1-1.324 2.195 6.711 6.711 0 0 1-2.4 1.671 8.592 8.592 0 0 1-3.403.634Zm.1-15.71a7.665 7.665 0 0 0-3.667.911 7.064 7.064 0 0 0-2.7 2.548 7.077 7.077 0 0 0-1.006 3.778 8.193 8.193 0 0 0 .881 3.781 6.677 6.677 0 0 0 2.519 2.695 7.365 7.365 0 0 0 3.878 1 7.605 7.605 0 0 0 3.01-.553 5.724 5.724 0 0 0 2.048-1.417 5.666 5.666 0 0 0 1.128-1.863.347.347 0 0 0-.017-.293c-.007-.014-.026-.052-.177-.053a.352.352 0 0 0-.1.083l-.02.02a5.659 5.659 0 0 1-1.8 1.441 5.551 5.551 0 0 1-2.624.606 4.694 4.694 0 0 1-2.464-.648 4.565 4.565 0 0 1-1.619-1.583 3.717 3.717 0 0 1-.558-1.883.912.912 0 0 1 .315-.751 1.291 1.291 0 0 1 .7-.245l6.182-.9a3.126 3.126 0 0 0 1.645-.573 1.732 1.732 0 0 0 .39-1.3 4.113 4.113 0 0 0-.7-2.171 5.521 5.521 0 0 0-2.051-1.875 6.5 6.5 0 0 0-3.19-.754Zm-58.532 15.71a9.936 9.936 0 0 1-4.66-1.074 8.01 8.01 0 0 1-3.213-3 8.25 8.25 0 0 1-1.147-4.309 8.3 8.3 0 0 1 1.147-4.333 7.928 7.928 0 0 1 3.216-2.985 10.027 10.027 0 0 1 4.658-1.061 9.93 9.93 0 0 1 4.623 1.058 7.889 7.889 0 0 1 3.2 2.986 8.335 8.335 0 0 1 1.143 4.335 8.334 8.334 0 0 1-1.143 4.335 7.889 7.889 0 0 1-3.2 2.986 9.93 9.93 0 0 1-4.624 1.062Zm0-15.757a9.04 9.04 0 0 0-4.2.949 6.943 6.943 0 0 0-2.818 2.611 7.311 7.311 0 0 0-1 3.818 7.265 7.265 0 0 0 1 3.794 7.024 7.024 0 0 0 2.82 2.624 8.949 8.949 0 0 0 4.2.96 8.943 8.943 0 0 0 4.162-.945 6.9 6.9 0 0 0 2.8-2.611 7.35 7.35 0 0 0 1-3.823 7.35 7.35 0 0 0-1-3.823 6.9 6.9 0 0 0-2.8-2.611 8.943 8.943 0 0 0-4.164-.943Zm-27.267 15.757a9.935 9.935 0 0 1-4.66-1.074 8.009 8.009 0 0 1-3.213-3 8.25 8.25 0 0 1-1.147-4.309 8.3 8.3 0 0 1 1.147-4.333 7.928 7.928 0 0 1 3.216-2.985 10.027 10.027 0 0 1 4.658-1.061 9.93 9.93 0 0 1 4.623 1.058 7.889 7.889 0 0 1 3.2 2.986 8.335 8.335 0 0 1 1.143 4.335 8.334 8.334 0 0 1-1.141 4.34 7.889 7.889 0 0 1-3.2 2.986 9.93 9.93 0 0 1-4.626 1.057Zm0-15.757a9.04 9.04 0 0 0-4.2.949 6.943 6.943 0 0 0-2.818 2.611 7.311 7.311 0 0 0-1 3.818 7.265 7.265 0 0 0 1 3.794 7.024 7.024 0 0 0 2.82 2.624 8.949 8.949 0 0 0 4.2.96 8.943 8.943 0 0 0 4.162-.945 6.9 6.9 0 0 0 2.8-2.611 7.35 7.35 0 0 0 1-3.823 7.35 7.35 0 0 0-1-3.823 6.9 6.9 0 0 0-2.8-2.611 8.943 8.943 0 0 0-4.164-.943Zm-16.68 15.757a8.692 8.692 0 0 1-4.378-1.085 7.54 7.54 0 0 1-2.935-3 8.847 8.847 0 0 1-1.023-4.252 8.428 8.428 0 0 1 1.113-4.3 8.135 8.135 0 0 1 2.974-2.988 7.912 7.912 0 0 1 4.019-1.081 8.635 8.635 0 0 1 3.277.639 6.772 6.772 0 0 1 2.583 1.788 3.972 3.972 0 0 1 1.043 2.668 2.364 2.364 0 0 1-.482 1.49 1.8 1.8 0 0 1-1.479.677 2.532 2.532 0 0 1-1.69-.551 3.423 3.423 0 0 1-.96-1.541l-.011-.038a3.5 3.5 0 0 0-.826-1.628 1.979 1.979 0 0 0-1.479-.508 1.858 1.858 0 0 0-1.143.392 2.911 2.911 0 0 0-.9 1.242 5.378 5.378 0 0 0-.363 2.075 9.6 9.6 0 0 0 .488 3.168 4.558 4.558 0 0 0 1.388 2.085 3.378 3.378 0 0 0 2.219.723 4.419 4.419 0 0 0 2.048-.477 4.778 4.778 0 0 0 1.5-1.153l.016-.019a1.817 1.817 0 0 1 .43-.36 1.013 1.013 0 0 1 .5-.142 1.1 1.1 0 0 1 1.046.58 1.478 1.478 0 0 1 .111 1.049l-.01.036a6.058 6.058 0 0 1-1.317 2.254 6.762 6.762 0 0 1-2.387 1.64 8.575 8.575 0 0 1-3.372.617Zm-.232-15.71a6.924 6.924 0 0 0-3.517.946 7.147 7.147 0 0 0-2.611 2.626 7.442 7.442 0 0 0-.977 3.8 7.859 7.859 0 0 0 .9 3.777 6.555 6.555 0 0 0 2.556 2.604 7.709 7.709 0 0 0 3.881.953 7.588 7.588 0 0 0 2.98-.542 5.774 5.774 0 0 0 2.039-1.393 5.07 5.07 0 0 0 1.094-1.863.473.473 0 0 0-.029-.341c-.016-.031-.082-.039-.141-.04l-.025.013a.853.853 0 0 0-.179.159 5.775 5.775 0 0 1-1.8 1.391 5.409 5.409 0 0 1-2.507.588 4.4 4.4 0 0 1-2.848-.946 5.539 5.539 0 0 1-1.7-2.531 10.588 10.588 0 0 1-.544-3.5 6.362 6.362 0 0 1 .441-2.461 3.886 3.886 0 0 1 1.224-1.657 2.862 2.862 0 0 1 1.74-.59 2.958 2.958 0 0 1 2.189.8 4.452 4.452 0 0 1 1.081 2.066 2.444 2.444 0 0 0 .655 1.083 1.551 1.551 0 0 0 1.043.313.786.786 0 0 0 .69-.291 1.371 1.371 0 0 0 .271-.876 2.961 2.961 0 0 0-.8-2.01 5.784 5.784 0 0 0-2.208-1.52 7.639 7.639 0 0 0-2.898-.557Zm-34.249 15.71a8.347 8.347 0 0 1-4.4-1.143 7.664 7.664 0 0 1-2.883-3.092 9.183 9.183 0 0 1-.991-4.238 8.061 8.061 0 0 1 1.157-4.3 8.052 8.052 0 0 1 3.079-2.9 8.655 8.655 0 0 1 4.14-1.03 7.482 7.482 0 0 1 3.677.874 6.506 6.506 0 0 1 2.413 2.219 5.091 5.091 0 0 1 .849 2.7 2.643 2.643 0 0 1-.719 2.046 4.068 4.068 0 0 1-2.173.822l-6.215.907a1.168 1.168 0 0 0-.121.018 2.751 2.751 0 0 0 .42 1.357 3.58 3.58 0 0 0 1.27 1.234 3.71 3.71 0 0 0 1.947.5 4.565 4.565 0 0 0 2.156-.49 4.655 4.655 0 0 0 1.5-1.2l.018-.023.047-.047a1.122 1.122 0 0 1 .816-.392 1.119 1.119 0 0 1 1.077.607 1.35 1.35 0 0 1 .065 1.072 6.661 6.661 0 0 1-1.324 2.195 6.711 6.711 0 0 1-2.4 1.671 8.592 8.592 0 0 1-3.405.633Zm.1-15.71a7.665 7.665 0 0 0-3.667.911 7.065 7.065 0 0 0-2.7 2.548 7.077 7.077 0 0 0-1.008 3.777 8.193 8.193 0 0 0 .881 3.781 6.677 6.677 0 0 0 2.515 2.695 7.365 7.365 0 0 0 3.878 1 7.605 7.605 0 0 0 3.01-.553 5.724 5.724 0 0 0 2.048-1.417 5.666 5.666 0 0 0 1.13-1.864.347.347 0 0 0-.017-.293c-.007-.014-.026-.052-.177-.053a.353.353 0 0 0-.1.083l-.02.02a5.66 5.66 0 0 1-1.8 1.442 5.551 5.551 0 0 1-2.624.606 4.694 4.694 0 0 1-2.462-.649 4.565 4.565 0 0 1-1.617-1.581 3.717 3.717 0 0 1-.558-1.883.912.912 0 0 1 .313-.748 1.291 1.291 0 0 1 .7-.244l6.182-.9a3.126 3.126 0 0 0 1.645-.573 1.732 1.732 0 0 0 .39-1.3 4.113 4.113 0 0 0-.7-2.171 5.521 5.521 0 0 0-2.051-1.875 6.5 6.5 0 0 0-3.189-.758Zm-45.724 15.71a5.706 5.706 0 0 1-4.173-1.357 4.742 4.742 0 0 1-1.354-3.486 4.579 4.579 0 0 1 2.058-3.877 9.909 9.909 0 0 1 5.23-1.609c.208-.016.4-.029.577-.037.157-.007.31-.02.455-.039h.009a1.96 1.96 0 0 0 .9-.218c.029-.026.07-.137.043-.386l-.076-.622a3.193 3.193 0 0 0-.575-1.627 1.476 1.476 0 0 0-1.213-.455 2.012 2.012 0 0 0-1.343.447 1.851 1.851 0 0 0-.617 1.294v.028l-.006.027a2.6 2.6 0 0 1-.852 1.5 2.613 2.613 0 0 1-1.694.517 1.953 1.953 0 0 1-1.346-.534 1.89 1.89 0 0 1-.609-1.464 3.665 3.665 0 0 1 1.083-2.576 6.863 6.863 0 0 1 2.751-1.689 11.1 11.1 0 0 1 3.683-.594 7.656 7.656 0 0 1 3.429.664 4.523 4.523 0 0 1 2.022 1.968 9.175 9.175 0 0 1 .875 3.035l.72 5.591a3.038 3.038 0 0 0 .29 1.15.24.24 0 0 0 .227.126.5.5 0 0 0 .206-.034.607.607 0 0 0 .169-.121l.031-.032.036-.026c.068-.048.141-.1.217-.147a.869.869 0 0 1 .477-.148 1.1 1.1 0 0 1 1.105 1.254 2.876 2.876 0 0 1-.518 1.577 4.022 4.022 0 0 1-1.361 1.266 3.775 3.775 0 0 1-1.928.51 3.623 3.623 0 0 1-2.323-.677 3.749 3.749 0 0 1-1.105-1.585 6.538 6.538 0 0 1-1.8 1.613 7.04 7.04 0 0 1-3.7.773Zm2.917-9.413a6.37 6.37 0 0 1-.533.046c-.165.008-.35.019-.549.035h-.009a8.948 8.948 0 0 0-4.715 1.425 3.583 3.583 0 0 0-1.641 3.066 3.729 3.729 0 0 0 1.065 2.784 4.781 4.781 0 0 0 3.465 1.057 6.228 6.228 0 0 0 3.172-.623 5.442 5.442 0 0 0 1.631-1.507l.008-.012c.243-.332.467-.553.768-.553a.7.7 0 0 1 .554.284 1.076 1.076 0 0 1 .2.386 2.976 2.976 0 0 0 .9 1.444 2.676 2.676 0 0 0 1.7.457 2.751 2.751 0 0 0 1.424-.374 3.032 3.032 0 0 0 1.028-.951 1.9 1.9 0 0 0 .355-1.029.552.552 0 0 0-.038-.247h-.024l-.125.085a1.619 1.619 0 0 1-.406.283 1.453 1.453 0 0 1-.648.138 1.227 1.227 0 0 1-1.056-.566 3.877 3.877 0 0 1-.453-1.579l-.725-5.593a8.193 8.193 0 0 0-.77-2.7 3.5 3.5 0 0 0-1.584-1.543 6.7 6.7 0 0 0-2.98-.557 10.1 10.1 0 0 0-3.353.537 5.882 5.882 0 0 0-2.357 1.434 2.662 2.662 0 0 0-.808 1.888.908.908 0 0 0 .281.723.957.957 0 0 0 .673.274 1.661 1.661 0 0 0 1.063-.292 1.623 1.623 0 0 0 .5-.919 2.826 2.826 0 0 1 .968-1.924 3.012 3.012 0 0 1 1.982-.678 2.438 2.438 0 0 1 1.982.816 4.086 4.086 0 0 1 .8 2.141l.078.636a1.378 1.378 0 0 1-.365 1.236 2.589 2.589 0 0 1-1.458.472Zm-16.092 9.413a8.692 8.692 0 0 1-4.377-1.085 7.541 7.541 0 0 1-2.935-3 8.847 8.847 0 0 1-1.023-4.252 8.428 8.428 0 0 1 1.113-4.3 8.135 8.135 0 0 1 2.974-2.988 7.911 7.911 0 0 1 4.019-1.081 8.635 8.635 0 0 1 3.277.639 6.771 6.771 0 0 1 2.583 1.788 3.972 3.972 0 0 1 1.043 2.668 2.364 2.364 0 0 1-.482 1.49 1.8 1.8 0 0 1-1.479.677 2.531 2.531 0 0 1-1.69-.551 3.424 3.424 0 0 1-.96-1.541l-.011-.038a3.5 3.5 0 0 0-.826-1.628 1.978 1.978 0 0 0-1.479-.508 1.858 1.858 0 0 0-1.143.392 2.911 2.911 0 0 0-.9 1.242 5.379 5.379 0 0 0-.363 2.075 9.6 9.6 0 0 0 .488 3.168 4.557 4.557 0 0 0 1.389 2.085 3.378 3.378 0 0 0 2.219.723 4.419 4.419 0 0 0 2.049-.48 4.776 4.776 0 0 0 1.5-1.153l.016-.019a1.818 1.818 0 0 1 .43-.36 1.013 1.013 0 0 1 .5-.142 1.1 1.1 0 0 1 1.046.58 1.478 1.478 0 0 1 .108 1.049l-.01.036a6.057 6.057 0 0 1-1.317 2.257 6.762 6.762 0 0 1-2.386 1.636 8.575 8.575 0 0 1-3.373.621Zm-.232-15.71a6.924 6.924 0 0 0-3.517.946 7.147 7.147 0 0 0-2.611 2.626 7.442 7.442 0 0 0-.977 3.8 7.859 7.859 0 0 0 .9 3.777 6.555 6.555 0 0 0 2.556 2.604 7.709 7.709 0 0 0 3.881.953 7.588 7.588 0 0 0 2.98-.542 5.775 5.775 0 0 0 2.039-1.393 5.07 5.07 0 0 0 1.094-1.858.473.473 0 0 0-.029-.341c-.016-.03-.082-.039-.141-.04l-.025.013a.853.853 0 0 0-.179.159 5.775 5.775 0 0 1-1.8 1.391 5.409 5.409 0 0 1-2.507.588 4.4 4.4 0 0 1-2.846-.947 5.538 5.538 0 0 1-1.7-2.531 10.589 10.589 0 0 1-.544-3.5 6.363 6.363 0 0 1 .441-2.461 3.886 3.886 0 0 1 1.224-1.657 2.862 2.862 0 0 1 1.74-.59 2.958 2.958 0 0 1 2.189.8 4.452 4.452 0 0 1 1.081 2.067 2.445 2.445 0 0 0 .65 1.089 1.551 1.551 0 0 0 1.043.313.786.786 0 0 0 .69-.291 1.371 1.371 0 0 0 .271-.876 2.961 2.961 0 0 0-.8-2.01 5.783 5.783 0 0 0-2.208-1.52 7.64 7.64 0 0 0-2.894-.568Zm-20.387 15.71a5.706 5.706 0 0 1-4.173-1.357 4.742 4.742 0 0 1-1.354-3.486 4.579 4.579 0 0 1 2.058-3.879 9.909 9.909 0 0 1 5.23-1.609c.208-.016.4-.029.577-.037.157-.007.31-.02.455-.039h.012a1.96 1.96 0 0 0 .9-.218c.029-.026.07-.137.043-.386l-.076-.622a3.193 3.193 0 0 0-.575-1.627 1.476 1.476 0 0 0-1.213-.455 2.012 2.012 0 0 0-1.343.447 1.851 1.851 0 0 0-.617 1.294v.028l-.006.027a2.6 2.6 0 0 1-.852 1.5 2.613 2.613 0 0 1-1.694.517 1.953 1.953 0 0 1-1.346-.534 1.89 1.89 0 0 1-.609-1.464 3.664 3.664 0 0 1 1.083-2.576 6.862 6.862 0 0 1 2.751-1.689 11.1 11.1 0 0 1 3.684-.593 7.656 7.656 0 0 1 3.429.664 4.523 4.523 0 0 1 2.022 1.968 9.175 9.175 0 0 1 .875 3.035l.72 5.591a3.038 3.038 0 0 0 .29 1.15.24.24 0 0 0 .227.126.5.5 0 0 0 .206-.034.609.609 0 0 0 .169-.121l.031-.032.036-.026c.067-.048.14-.1.217-.147a.869.869 0 0 1 .477-.148 1.1 1.1 0 0 1 1.101 1.255 2.876 2.876 0 0 1-.518 1.577 4.021 4.021 0 0 1-1.361 1.266 3.775 3.775 0 0 1-1.928.51 3.623 3.623 0 0 1-2.323-.677 3.749 3.749 0 0 1-1.105-1.585 6.538 6.538 0 0 1-1.795 1.613 7.04 7.04 0 0 1-3.705.773Zm2.917-9.413a6.37 6.37 0 0 1-.533.046c-.165.008-.35.019-.549.035h-.009a8.948 8.948 0 0 0-4.712 1.425 3.583 3.583 0 0 0-1.641 3.066 3.729 3.729 0 0 0 1.062 2.784 4.781 4.781 0 0 0 3.465 1.057 6.228 6.228 0 0 0 3.172-.623 5.442 5.442 0 0 0 1.633-1.507l.008-.012c.243-.332.467-.553.769-.553a.7.7 0 0 1 .554.284 1.076 1.076 0 0 1 .2.386 2.976 2.976 0 0 0 .9 1.444 2.676 2.676 0 0 0 1.7.457 2.751 2.751 0 0 0 1.424-.374 3.032 3.032 0 0 0 1.028-.951 1.9 1.9 0 0 0 .347-1.028.552.552 0 0 0-.038-.247h-.024l-.125.085a1.62 1.62 0 0 1-.406.283 1.453 1.453 0 0 1-.648.138 1.227 1.227 0 0 1-1.056-.566 3.877 3.877 0 0 1-.453-1.579l-.72-5.594a8.193 8.193 0 0 0-.77-2.7 3.5 3.5 0 0 0-1.59-1.543 6.7 6.7 0 0 0-2.978-.557 10.1 10.1 0 0 0-3.353.537 5.881 5.881 0 0 0-2.357 1.434 2.662 2.662 0 0 0-.808 1.888.908.908 0 0 0 .281.723.957.957 0 0 0 .674.274 1.66 1.66 0 0 0 1.063-.292 1.623 1.623 0 0 0 .5-.919 2.826 2.826 0 0 1 .968-1.924 3.012 3.012 0 0 1 1.982-.678 2.438 2.438 0 0 1 1.982.816 4.086 4.086 0 0 1 .8 2.141l.078.636a1.378 1.378 0 0 1-.365 1.236 2.589 2.589 0 0 1-1.455.472Zm-18.312 9.413a12.4 12.4 0 0 1-4.311-.749 8.018 8.018 0 0 1-3.334-2.225 5.285 5.285 0 0 1-1.309-3.568 2.588 2.588 0 0 1 .592-1.754 2.086 2.086 0 0 1 1.65-.711 2.619 2.619 0 0 1 1.64.551 2.8 2.8 0 0 1 .962 1.734v.027a4.463 4.463 0 0 0 .636 1.8 3.016 3.016 0 0 0 1.2 1.084 3.8 3.8 0 0 0 1.716.376 3.1 3.1 0 0 0 2.156-.711 2.425 2.425 0 0 0 .773-1.928 2.76 2.76 0 0 0-.922-2.149 8.165 8.165 0 0 0-3.07-1.554h-.007a14.6 14.6 0 0 1-3.817-1.78 6.339 6.339 0 0 1-2.145-2.431 7.414 7.414 0 0 1-.658-3.218 5.428 5.428 0 0 1 1.018-3.2 6.65 6.65 0 0 1 2.87-2.222 10.682 10.682 0 0 1 4.236-.787 11.311 11.311 0 0 1 4.009.726 7.906 7.906 0 0 1 3.2 2.156 5.091 5.091 0 0 1 1.288 3.457 2.427 2.427 0 0 1-.552 1.624 1.972 1.972 0 0 1-1.576.684 2.761 2.761 0 0 1-1.519-.431 2.411 2.411 0 0 1-.972-1.58l-.006-.031a4.807 4.807 0 0 0-.629-1.793 2.889 2.889 0 0 0-1.119-1.064 3.4 3.4 0 0 0-1.6-.363 3.323 3.323 0 0 0-1.359.273 2.226 2.226 0 0 0-.931.735 1.784 1.784 0 0 0-.327 1.084 2.4 2.4 0 0 0 .84 1.881 8.473 8.473 0 0 0 3.226 1.47l.046.013.035.017h.021a1.079 1.079 0 0 1 .249.071 14.408 14.408 0 0 1 4.014 1.8 6.736 6.736 0 0 1 2.267 2.481 6.935 6.935 0 0 1 .691 3.125 6.269 6.269 0 0 1-1.165 3.744 7.4 7.4 0 0 1-3.247 2.479 12.376 12.376 0 0 1-4.76.857Zm-6.713-8.007a1.1 1.1 0 0 0-.895.367 1.6 1.6 0 0 0-.346 1.1 4.256 4.256 0 0 0 1.064 2.91 7.033 7.033 0 0 0 2.926 1.943 11.4 11.4 0 0 0 3.964.687 11.388 11.388 0 0 0 4.377-.777 6.416 6.416 0 0 0 2.823-2.132 5.289 5.289 0 0 0 .976-3.16 5.947 5.947 0 0 0-.585-2.679 5.757 5.757 0 0 0-1.945-2.109 13.485 13.485 0 0 0-3.765-1.677l-.041-.012-.031-.015h-.022a1.083 1.083 0 0 1-.245-.069 9.179 9.179 0 0 1-3.585-1.677 3.394 3.394 0 0 1-1.173-2.631 2.787 2.787 0 0 1 .517-1.67 3.243 3.243 0 0 1 1.335-1.063 4.314 4.314 0 0 1 1.764-.359 4.382 4.382 0 0 1 2.063.478 3.915 3.915 0 0 1 1.5 1.419 5.785 5.785 0 0 1 .766 2.149 1.464 1.464 0 0 0 .534.945 1.754 1.754 0 0 0 .978.272.991.991 0 0 0 .815-.332 1.44 1.44 0 0 0 .313-.976 4.065 4.065 0 0 0-1.039-2.8 6.918 6.918 0 0 0-2.8-1.881 10.314 10.314 0 0 0-3.656-.662 9.7 9.7 0 0 0-3.84.705 5.668 5.668 0 0 0-2.449 1.883 4.387 4.387 0 0 0-.834 2.62 6.43 6.43 0 0 0 .56 2.787 5.357 5.357 0 0 0 1.816 2.041 13.627 13.627 0 0 0 3.55 1.648 9.11 9.11 0 0 1 3.454 1.777 3.759 3.759 0 0 1 1.248 2.887 3.413 3.413 0 0 1-1.109 2.675 4.1 4.1 0 0 1-2.821.963 4.788 4.788 0 0 1-2.164-.482 4.044 4.044 0 0 1-1.592-1.432 5.442 5.442 0 0 1-.786-2.191 1.843 1.843 0 0 0-.591-1.127 1.62 1.62 0 0 0-1.029-.343Zm251.804 7.831h-.005c-.441 0-.881-.007-1.306-.007s-.865 0-1.306.007h-.005a12.833 12.833 0 0 1-2.03-.121 2.387 2.387 0 0 1-1.185-.46 1.242 1.242 0 0 1-.431-.96 1.417 1.417 0 0 1 .908-1.312l.04-.017a1.823 1.823 0 0 0 .817-.486 1.334 1.334 0 0 0 .283-.649 10.212 10.212 0 0 0 .075-1.455v-5.964a2.4 2.4 0 0 0-.119-.9c-.015-.035-.043-.1-.236-.121a4.397 4.397 0 0 1-.355-.038 3.258 3.258 0 0 0-.272-.03h-.037a1.967 1.967 0 0 1-.838-.281 1 1 0 0 1-.431-.829 1.246 1.246 0 0 1 .507-1.075 4.572 4.572 0 0 1 1.1-.539c.437-.163.894-.325 1.358-.483s.924-.291 1.344-.388a7.5 7.5 0 0 1 1.8-.3 1.945 1.945 0 0 1 1.273.35 1.519 1.519 0 0 1 .465 1.233v.437a7.523 7.523 0 0 1 1.075-1.233 4.167 4.167 0 0 1 2.917-.958 3.461 3.461 0 0 1 2.737 1.137 4.517 4.517 0 0 1 .966 3.061 3.721 3.721 0 0 1-.743 2.272 2.529 2.529 0 0 1-2.127 1.066 2.342 2.342 0 0 1-1.56-.553 1.943 1.943 0 0 1-.637-1.691v-.038l.008-.037a1.687 1.687 0 0 0 .02-.512.519.519 0 0 0-.153-.326.715.715 0 0 0-.468-.112 1.284 1.284 0 0 0-.9.429 3.554 3.554 0 0 0-.816 1.389 6.378 6.378 0 0 0-.325 2.1v2.913a10.173 10.173 0 0 0 .075 1.454 1.249 1.249 0 0 0 .28.629 2.083 2.083 0 0 0 .827.513l.04.018a2.081 2.081 0 0 1 .654.488 1.252 1.252 0 0 1 .292.841 1.294 1.294 0 0 1-.375.95 2.135 2.135 0 0 1-1.162.467 12.831 12.831 0 0 1-2.039.121Zm-1.312-1.007c.428 0 .87 0 1.314.007a12.1 12.1 0 0 0 1.869-.107 1.342 1.342 0 0 0 .63-.2.288.288 0 0 0 .075-.235.264.264 0 0 0-.051-.19 1.093 1.093 0 0 0-.329-.238 3.009 3.009 0 0 1-1.195-.785 2.252 2.252 0 0 1-.5-1.117 10.9 10.9 0 0 1-.092-1.609v-2.914a7.37 7.37 0 0 1 .381-2.431 4.53 4.53 0 0 1 1.061-1.775 2.259 2.259 0 0 1 1.6-.713 1.587 1.587 0 0 1 1.185.415 1.509 1.509 0 0 1 .431.926 2.711 2.711 0 0 1-.029.777.921.921 0 0 0 .288.837 1.351 1.351 0 0 0 .913.315 1.537 1.537 0 0 0 1.325-.663 2.706 2.706 0 0 0 .545-1.674 3.566 3.566 0 0 0-.721-2.4 2.474 2.474 0 0 0-1.984-.795 3.219 3.219 0 0 0-2.24.694 6.681 6.681 0 0 0-1.385 1.814l-.013.023c-.2.337-.375.628-.713.628a.618.618 0 0 1-.592-.534 2.5 2.5 0 0 1-.049-.562V-31.2c0-.279-.055-.423-.1-.463a1.051 1.051 0 0 0-.635-.12 6.711 6.711 0 0 0-1.557.265h-.014c-.389.09-.811.212-1.254.362s-.9.314-1.331.473a3.608 3.608 0 0 0-.852.408c-.049.036-.1.088-.1.248a.18.18 0 0 0 0 .029 1.1 1.1 0 0 0 .389.109c.1.007.211.02.331.037.1.015.2.025.285.031h.019a1.222 1.222 0 0 1 1.063.724 3.348 3.348 0 0 1 .2 1.294v5.964a10.933 10.933 0 0 1-.087 1.613 2.34 2.34 0 0 1-.494 1.121 2.747 2.747 0 0 1-1.231.789c-.31.149-.31.309-.31.4a.246.246 0 0 0 .091.208 1.492 1.492 0 0 0 .692.226 12.1 12.1 0 0 0 1.861.107c.441-.008.883-.01 1.31-.01Zm-55.2 1.007h-.005c-.441 0-.881-.007-1.306-.007s-.865 0-1.306.007h-.005a12.832 12.832 0 0 1-2.03-.121 2.387 2.387 0 0 1-1.185-.46 1.242 1.242 0 0 1-.431-.96 1.417 1.417 0 0 1 .908-1.312l.04-.017a1.823 1.823 0 0 0 .817-.486 1.335 1.335 0 0 0 .283-.649 10.21 10.21 0 0 0 .075-1.455v-5.964a2.4 2.4 0 0 0-.119-.9c-.015-.035-.043-.1-.236-.121a4.397 4.397 0 0 1-.355-.038 3.258 3.258 0 0 0-.272-.03h-.037a1.967 1.967 0 0 1-.838-.281 1 1 0 0 1-.431-.829 1.246 1.246 0 0 1 .507-1.075 4.572 4.572 0 0 1 1.1-.539c.437-.163.894-.325 1.358-.483s.924-.291 1.344-.388a7.5 7.5 0 0 1 1.8-.3 1.945 1.945 0 0 1 1.273.35 1.519 1.519 0 0 1 .465 1.233v.437a7.528 7.528 0 0 1 1.075-1.233 4.167 4.167 0 0 1 2.917-.958 3.461 3.461 0 0 1 2.737 1.137 4.517 4.517 0 0 1 .968 3.062 3.721 3.721 0 0 1-.743 2.272 2.529 2.529 0 0 1-2.127 1.066 2.342 2.342 0 0 1-1.56-.553 1.943 1.943 0 0 1-.637-1.691v-.038l.008-.037a1.686 1.686 0 0 0 .02-.512.519.519 0 0 0-.153-.326.715.715 0 0 0-.468-.112 1.284 1.284 0 0 0-.9.429 3.554 3.554 0 0 0-.816 1.389 6.378 6.378 0 0 0-.325 2.1v2.912a10.17 10.17 0 0 0 .075 1.454 1.249 1.249 0 0 0 .28.629 2.083 2.083 0 0 0 .827.513l.04.018a2.081 2.081 0 0 1 .654.488 1.252 1.252 0 0 1 .292.841 1.293 1.293 0 0 1-.375.95 2.135 2.135 0 0 1-1.161.471 12.83 12.83 0 0 1-2.042.117Zm-1.312-1.007c.428 0 .87 0 1.314.007a12.1 12.1 0 0 0 1.869-.107 1.342 1.342 0 0 0 .629-.2.287.287 0 0 0 .075-.235.264.264 0 0 0-.051-.19 1.092 1.092 0 0 0-.329-.238 3.009 3.009 0 0 1-1.2-.785 2.252 2.252 0 0 1-.5-1.117 10.9 10.9 0 0 1-.087-1.613v-2.91a7.369 7.369 0 0 1 .381-2.431 4.53 4.53 0 0 1 1.061-1.775 2.259 2.259 0 0 1 1.6-.713 1.587 1.587 0 0 1 1.185.415 1.509 1.509 0 0 1 .431.926 2.71 2.71 0 0 1-.029.777.921.921 0 0 0 .288.836 1.351 1.351 0 0 0 .913.315 1.537 1.537 0 0 0 1.325-.663 2.706 2.706 0 0 0 .545-1.674 3.566 3.566 0 0 0-.721-2.4 2.474 2.474 0 0 0-1.984-.795 3.219 3.219 0 0 0-2.24.694 6.682 6.682 0 0 0-1.385 1.814l-.013.023c-.2.337-.375.628-.713.628a.618.618 0 0 1-.592-.534 2.5 2.5 0 0 1-.049-.562v-1.309c0-.279-.055-.423-.1-.463a1.051 1.051 0 0 0-.635-.12 6.711 6.711 0 0 0-1.557.265h-.014c-.389.09-.811.212-1.254.362s-.9.314-1.331.473a3.61 3.61 0 0 0-.852.408c-.049.036-.1.088-.1.248a.181.181 0 0 0 0 .029 1.1 1.1 0 0 0 .39.109c.1.007.211.02.331.037.1.015.2.025.285.031h.019a1.222 1.222 0 0 1 1.063.724 3.348 3.348 0 0 1 .2 1.294v5.964a10.931 10.931 0 0 1-.087 1.613 2.34 2.34 0 0 1-.494 1.121 2.747 2.747 0 0 1-1.231.789c-.31.149-.31.309-.31.4a.246.246 0 0 0 .091.208 1.492 1.492 0 0 0 .692.226 12.1 12.1 0 0 0 1.861.107c.443-.007.882-.009 1.31-.009Zm-26.254 1.007h-.005c-.441 0-.881-.007-1.306-.007s-.865 0-1.306.007h-.005a12.833 12.833 0 0 1-2.03-.121 2.387 2.387 0 0 1-1.185-.46 1.242 1.242 0 0 1-.431-.96 1.417 1.417 0 0 1 .908-1.312l.04-.016a1.825 1.825 0 0 0 .817-.487 1.333 1.333 0 0 0 .283-.648 10.212 10.212 0 0 0 .075-1.455v-12.622a2.4 2.4 0 0 0-.119-.9c-.015-.035-.043-.1-.233-.122a3.625 3.625 0 0 1-.375-.039 3.209 3.209 0 0 0-.275-.03h-.044a1.932 1.932 0 0 1-.811-.28 1 1 0 0 1-.431-.829 1.247 1.247 0 0 1 .506-1.075 4.563 4.563 0 0 1 1.1-.54c.437-.163.894-.325 1.358-.483s.924-.291 1.343-.387a7.425 7.425 0 0 1 1.8-.3 1.945 1.945 0 0 1 1.273.35 1.518 1.518 0 0 1 .465 1.233v16a10.173 10.173 0 0 0 .075 1.454 1.249 1.249 0 0 0 .28.629 2.083 2.083 0 0 0 .827.513l.04.018a2.081 2.081 0 0 1 .654.488 1.252 1.252 0 0 1 .292.841 1.294 1.294 0 0 1-.375.95 2.135 2.135 0 0 1-1.161.471 12.831 12.831 0 0 1-2.044.119Zm-1.313-1.007c.428 0 .87 0 1.314.007a12.1 12.1 0 0 0 1.869-.107 1.342 1.342 0 0 0 .629-.2.287.287 0 0 0 .075-.235.264.264 0 0 0-.051-.19 1.093 1.093 0 0 0-.329-.238 3.009 3.009 0 0 1-1.195-.785 2.252 2.252 0 0 1-.5-1.117 10.9 10.9 0 0 1-.087-1.613v-16c0-.279-.055-.423-.1-.462a1.051 1.051 0 0 0-.635-.12 6.63 6.63 0 0 0-1.556.265h-.015a12.985 12.985 0 0 0-1.253.362c-.455.155-.9.314-1.331.473a3.6 3.6 0 0 0-.851.408c-.049.036-.1.088-.1.248a.181.181 0 0 0 0 .029 1.029 1.029 0 0 0 .367.109c.116.008.232.021.347.039a2.787 2.787 0 0 0 .286.029h.025a1.223 1.223 0 0 1 1.062.724 3.348 3.348 0 0 1 .2 1.294v12.627a10.931 10.931 0 0 1-.087 1.613 2.339 2.339 0 0 1-.494 1.121 2.749 2.749 0 0 1-1.231.788c-.31.149-.31.309-.31.4a.246.246 0 0 0 .091.208 1.492 1.492 0 0 0 .692.226 12.1 12.1 0 0 0 1.861.107c.439-.008.881-.01 1.307-.01Zm-51.767 1.007h-.005c-.441 0-.881-.007-1.306-.007s-.865 0-1.306.007h-.005a12.833 12.833 0 0 1-2.03-.121 2.386 2.386 0 0 1-1.181-.46 1.242 1.242 0 0 1-.431-.96 1.417 1.417 0 0 1 .908-1.312l.04-.016a1.824 1.824 0 0 0 .817-.487 1.333 1.333 0 0 0 .283-.648 10.212 10.212 0 0 0 .075-1.455v-12.622a2.4 2.4 0 0 0-.119-.9c-.015-.035-.043-.1-.233-.122a3.625 3.625 0 0 1-.375-.039 3.209 3.209 0 0 0-.275-.03h-.044a1.931 1.931 0 0 1-.811-.28 1 1 0 0 1-.431-.829 1.247 1.247 0 0 1 .506-1.075 4.563 4.563 0 0 1 1.1-.54c.437-.163.894-.325 1.358-.483s.924-.291 1.343-.387a7.425 7.425 0 0 1 1.8-.3 1.945 1.945 0 0 1 1.273.35 1.518 1.518 0 0 1 .465 1.233v16a10.168 10.168 0 0 0 .075 1.454 1.249 1.249 0 0 0 .28.629 2.084 2.084 0 0 0 .827.512l.04.018a2.081 2.081 0 0 1 .654.488 1.252 1.252 0 0 1 .292.841 1.294 1.294 0 0 1-.375.95 2.135 2.135 0 0 1-1.161.471 12.829 12.829 0 0 1-2.048.12Zm-1.312-1.007c.428 0 .87 0 1.314.007a12.1 12.1 0 0 0 1.865-.107 1.342 1.342 0 0 0 .63-.2.287.287 0 0 0 .075-.235.264.264 0 0 0-.051-.19 1.093 1.093 0 0 0-.329-.238 3.01 3.01 0 0 1-1.195-.785 2.252 2.252 0 0 1-.5-1.117 10.892 10.892 0 0 1-.087-1.613v-16c0-.279-.055-.423-.1-.462a1.051 1.051 0 0 0-.635-.12 6.63 6.63 0 0 0-1.556.265h-.015a12.978 12.978 0 0 0-1.254.362c-.455.154-.9.314-1.331.473a3.6 3.6 0 0 0-.851.408c-.049.036-.1.088-.1.248a.18.18 0 0 0 0 .029 1.029 1.029 0 0 0 .367.109c.116.008.232.021.347.039a2.787 2.787 0 0 0 .286.029h.025a1.223 1.223 0 0 1 1.062.724 3.346 3.346 0 0 1 .2 1.294v12.627a10.932 10.932 0 0 1-.087 1.613 2.338 2.338 0 0 1-.494 1.121 2.749 2.749 0 0 1-1.231.788c-.31.149-.31.309-.31.4a.246.246 0 0 0 .091.208 1.492 1.492 0 0 0 .692.226 12.1 12.1 0 0 0 1.861.107c.442-.008.883-.01 1.311-.01Zm-38.534 1.007h-.005c-.441 0-.881-.007-1.306-.007s-.865 0-1.306.007h-.005a12.833 12.833 0 0 1-2.031-.121 2.387 2.387 0 0 1-1.184-.46 1.242 1.242 0 0 1-.431-.96 1.417 1.417 0 0 1 .908-1.312l.04-.017a1.824 1.824 0 0 0 .817-.486 1.334 1.334 0 0 0 .283-.649 10.212 10.212 0 0 0 .075-1.455v-5.964a2.4 2.4 0 0 0-.119-.9c-.015-.035-.043-.1-.236-.121a4.397 4.397 0 0 1-.355-.038 3.258 3.258 0 0 0-.272-.03h-.037a1.967 1.967 0 0 1-.838-.281 1 1 0 0 1-.431-.829 1.246 1.246 0 0 1 .507-1.075 4.573 4.573 0 0 1 1.1-.539c.437-.163.894-.325 1.358-.483s.924-.291 1.344-.388a7.5 7.5 0 0 1 1.8-.3 1.945 1.945 0 0 1 1.273.35 1.519 1.519 0 0 1 .465 1.233v.437a7.525 7.525 0 0 1 1.075-1.233 4.167 4.167 0 0 1 2.917-.958 3.461 3.461 0 0 1 2.737 1.137 4.517 4.517 0 0 1 .968 3.062 3.721 3.721 0 0 1-.743 2.272 2.529 2.529 0 0 1-2.127 1.066 2.342 2.342 0 0 1-1.56-.553 1.943 1.943 0 0 1-.637-1.691v-.038l.008-.037a1.685 1.685 0 0 0 .02-.512.518.518 0 0 0-.153-.326.715.715 0 0 0-.468-.112 1.284 1.284 0 0 0-.9.429 3.554 3.554 0 0 0-.816 1.389 6.376 6.376 0 0 0-.325 2.1v2.912a10.168 10.168 0 0 0 .075 1.454 1.249 1.249 0 0 0 .28.629 2.083 2.083 0 0 0 .827.512l.04.018a2.081 2.081 0 0 1 .654.488 1.252 1.252 0 0 1 .292.841 1.294 1.294 0 0 1-.375.95 2.135 2.135 0 0 1-1.164.468 12.831 12.831 0 0 1-2.039.121Zm-1.312-1.007c.428 0 .87 0 1.314.007a12.1 12.1 0 0 0 1.869-.107 1.342 1.342 0 0 0 .629-.2.287.287 0 0 0 .075-.235.264.264 0 0 0-.051-.19 1.093 1.093 0 0 0-.329-.238 3.01 3.01 0 0 1-1.195-.785 2.252 2.252 0 0 1-.5-1.117 10.892 10.892 0 0 1-.092-1.609v-2.914a7.369 7.369 0 0 1 .381-2.431 4.529 4.529 0 0 1 1.061-1.775 2.259 2.259 0 0 1 1.6-.713 1.587 1.587 0 0 1 1.185.415 1.509 1.509 0 0 1 .431.926 2.708 2.708 0 0 1-.029.777.921.921 0 0 0 .288.837 1.351 1.351 0 0 0 .913.315 1.537 1.537 0 0 0 1.325-.663 2.706 2.706 0 0 0 .545-1.674 3.566 3.566 0 0 0-.721-2.4 2.473 2.473 0 0 0-1.984-.795 3.219 3.219 0 0 0-2.24.694 6.681 6.681 0 0 0-1.385 1.814l-.013.023c-.2.337-.375.628-.713.628a.618.618 0 0 1-.592-.534 2.5 2.5 0 0 1-.049-.562V-31.2c0-.279-.055-.423-.1-.463a1.051 1.051 0 0 0-.635-.12 6.711 6.711 0 0 0-1.557.265h-.014c-.389.09-.811.212-1.254.362s-.9.314-1.331.473a3.61 3.61 0 0 0-.852.408c-.049.036-.1.088-.1.248a.181.181 0 0 0 0 .029 1.1 1.1 0 0 0 .389.109c.1.007.211.02.331.037.1.015.2.025.285.031h.019a1.222 1.222 0 0 1 1.063.724 3.346 3.346 0 0 1 .2 1.294v5.964a10.931 10.931 0 0 1-.087 1.613 2.34 2.34 0 0 1-.494 1.121 2.747 2.747 0 0 1-1.231.789c-.31.149-.31.309-.31.4a.246.246 0 0 0 .091.208 1.492 1.492 0 0 0 .692.226 12.1 12.1 0 0 0 1.861.107c.441-.008.883-.01 1.311-.01Zm148.392.935h-.2a3.479 3.479 0 0 1-1.691-.329 2.514 2.514 0 0 1-1.01-1.262v-.012c-.4-1.013-1-2.645-1.767-4.851l-1.028-2.882a57.396 57.396 0 0 0-1.01-2.638v-.01a4.19 4.19 0 0 0-.35-.731 1.037 1.037 0 0 0-.272-.3 2.629 2.629 0 0 0-.489-.242l-.029-.011-.027-.015a2.171 2.171 0 0 1-.672-.529 1.39 1.39 0 0 1-.281-.895 1.3 1.3 0 0 1 .905-1.339 7.638 7.638 0 0 1 2.158-.21c.727 0 1.388.007 1.966.007s1.2 0 1.843-.007a9.349 9.349 0 0 1 1.771.124 1.731 1.731 0 0 1 1.016.489 1.328 1.328 0 0 1 .3.888 1.423 1.423 0 0 1-.289.838 1.846 1.846 0 0 1-.8.607l-.051.022-.054.01a2.35 2.35 0 0 0-.685.218.471.471 0 0 0-.212.188c-.007.016-.025.08.031.238l.005.015c.4 1.219.956 2.838 1.667 4.812l.007.02c.132.422.425 1.209.87 2.34a8.7 8.7 0 0 0 2.074-4.1v-.019a3.364 3.364 0 0 0-.03-1.392 2.093 2.093 0 0 0-.627-.971l-.021-.019-.018-.022a4.816 4.816 0 0 1-.794-1.206 2.989 2.989 0 0 1-.252-1.185 1.968 1.968 0 0 1 .725-1.545 2.41 2.41 0 0 1 1.594-.579 3.2 3.2 0 0 1 1.8.518 3.381 3.381 0 0 1 1.214 1.489 5.419 5.419 0 0 1 .416 2.206 9.881 9.881 0 0 1-.675 3.351 23.1 23.1 0 0 1-1.695 3.576 25.8 25.8 0 0 1-2.181 3.219 7.689 7.689 0 0 1-1.464 1.6 2.76 2.76 0 0 1-1.688.526Zm-1.984-1.978a1.6 1.6 0 0 0 .578.777 2.538 2.538 0 0 0 1.2.2h.2a1.76 1.76 0 0 0 1.091-.328 6.918 6.918 0 0 0 1.26-1.4l.013-.017a24.792 24.792 0 0 0 2.1-3.1 22.1 22.1 0 0 0 1.611-3.42 8.9 8.9 0 0 0 .614-3.007 4.436 4.436 0 0 0-.33-1.8 2.369 2.369 0 0 0-.851-1.061 2.193 2.193 0 0 0-1.247-.352 1.417 1.417 0 0 0-.95.344.959.959 0 0 0-.37.78 2 2 0 0 0 .171.79 3.867 3.867 0 0 0 .617.929 3.092 3.092 0 0 1 .887 1.412 4.328 4.328 0 0 1 .057 1.8 9.593 9.593 0 0 1-2.328 4.658 1.019 1.019 0 0 1-.783.508h-.023a.839.839 0 0 1-.783-.64c-.5-1.259-.813-2.1-.962-2.578-.711-1.976-1.273-3.6-1.671-4.825a1.288 1.288 0 0 1 0-.97 1.416 1.416 0 0 1 .647-.663 3.2 3.2 0 0 1 .925-.313.828.828 0 0 0 .331-.25.454.454 0 0 0 .1-.254.4.4 0 0 0-.058-.24 1.092 1.092 0 0 0-.455-.157 8.578 8.578 0 0 0-1.567-.1c-.643 0-1.266.007-1.847.007s-1.243 0-1.969-.007a6.632 6.632 0 0 0-1.842.16c-.1.032-.218.072-.218.389a.458.458 0 0 0 .06.269 1.17 1.17 0 0 0 .346.263 3.485 3.485 0 0 1 .649.33 2.016 2.016 0 0 1 .551.582 5.056 5.056 0 0 1 .442.91c.324.78.669 1.681 1.026 2.678s.7 1.972 1.029 2.887c.766 2.193 1.351 3.809 1.749 4.81Zm-39.56.216a3.213 3.213 0 0 1-2.559-1.376 8.819 8.819 0 0 1-1.524-3.131 13.347 13.347 0 0 1-.512-3.578 5.881 5.881 0 0 1 .453-2.395 3.746 3.746 0 0 1 1.325-1.63 3.446 3.446 0 0 1 1.958-.58 3.233 3.233 0 0 1 2.583 1.376 8.926 8.926 0 0 1 1.531 3.13 12.986 12.986 0 0 1 .522 3.537 6.076 6.076 0 0 1-.448 2.427 3.682 3.682 0 0 1-1.338 1.647 3.545 3.545 0 0 1-1.991.573Zm-.858-11.689a2.431 2.431 0 0 0-1.4.41 2.727 2.727 0 0 0-.969 1.206 4.9 4.9 0 0 0-.367 1.988 12.35 12.35 0 0 0 .475 3.309 7.832 7.832 0 0 0 1.344 2.78 2.238 2.238 0 0 0 1.776 1 2.528 2.528 0 0 0 1.439-.412 2.665 2.665 0 0 0 .973-1.212 5.093 5.093 0 0 0 .364-2.027 11.99 11.99 0 0 0-.483-3.259 7.939 7.939 0 0 0-1.353-2.782 2.256 2.256 0 0 0-1.8-1.001Zm-26.41 11.689a3.213 3.213 0 0 1-2.555-1.375 8.819 8.819 0 0 1-1.523-3.132 13.347 13.347 0 0 1-.512-3.578 5.881 5.881 0 0 1 .453-2.395 3.746 3.746 0 0 1 1.325-1.63 3.446 3.446 0 0 1 1.958-.58 3.233 3.233 0 0 1 2.583 1.376 8.926 8.926 0 0 1 1.531 3.13 12.986 12.986 0 0 1 .521 3.532 6.076 6.076 0 0 1-.448 2.427 3.682 3.682 0 0 1-1.338 1.647 3.545 3.545 0 0 1-1.995.578Zm-.855-11.689a2.431 2.431 0 0 0-1.4.41 2.727 2.727 0 0 0-.969 1.206 4.9 4.9 0 0 0-.367 1.988 12.348 12.348 0 0 0 .475 3.309 7.832 7.832 0 0 0 1.344 2.78 2.238 2.238 0 0 0 1.776 1 2.528 2.528 0 0 0 1.439-.412 2.666 2.666 0 0 0 .973-1.212 5.093 5.093 0 0 0 .365-2.028 11.99 11.99 0 0 0-.483-3.259 7.939 7.939 0 0 0-1.353-2.782 2.256 2.256 0 0 0-1.8-1Zm-94.256 11.172a2.919 2.919 0 0 1-2.186-.816 3.152 3.152 0 0 1-.786-2.281 3.037 3.037 0 0 1 .915-2.295 3.866 3.866 0 0 1 2.745-.862h.641a3.491 3.491 0 0 1 .948.132 1.2 1.2 0 0 1 .676.518 2.161 2.161 0 0 1 .256.789v.016l.047.369a4.521 4.521 0 0 1-.21 2.247 3.409 3.409 0 0 1-1.209 1.6 3.112 3.112 0 0 1-1.837.583Zm.687-5.254a2.944 2.944 0 0 0-2.055.586 2.05 2.05 0 0 0-.6 1.571 2.206 2.206 0 0 0 .5 1.584 1.941 1.941 0 0 0 1.469.512 2.1 2.1 0 0 0 1.257-.4 2.4 2.4 0 0 0 .854-1.143 3.542 3.542 0 0 0 .153-1.758v-.007l-.044-.358a1.2 1.2 0 0 0-.122-.418c-.008-.013-.032-.052-.132-.085a2.521 2.521 0 0 0-.66-.083Zm-34.481 5.254a2.919 2.919 0 0 1-2.186-.816 3.152 3.152 0 0 1-.786-2.281 3.037 3.037 0 0 1 .915-2.295 3.865 3.865 0 0 1 2.745-.862h.641a3.491 3.491 0 0 1 .948.132 1.2 1.2 0 0 1 .676.518 2.16 2.16 0 0 1 .256.789v.016l.044.362a4.523 4.523 0 0 1-.21 2.249 3.409 3.409 0 0 1-1.209 1.6 3.112 3.112 0 0 1-1.834.588Zm.687-5.254a2.944 2.944 0 0 0-2.055.586 2.05 2.05 0 0 0-.6 1.571 2.206 2.206 0 0 0 .5 1.584 1.941 1.941 0 0 0 1.469.512 2.1 2.1 0 0 0 1.257-.4 2.4 2.4 0 0 0 .854-1.143 3.542 3.542 0 0 0 .153-1.758v-.007l-.044-.358a1.2 1.2 0 0 0-.122-.418c-.008-.013-.032-.052-.132-.085a2.521 2.521 0 0 0-.66-.083Zm244.586 4.77a3.279 3.279 0 0 1-2.972-2.023 10.744 10.744 0 0 1-.979-4.956 6.416 6.416 0 0 1 .46-2.561 3.722 3.722 0 0 1 1.3-1.645 3.145 3.145 0 0 1 1.786-.558 3.181 3.181 0 0 1 2.9 1.8 9.613 9.613 0 0 1 .933 4.643v.966a5.279 5.279 0 0 1-.45 2.227 3.781 3.781 0 0 1-1.235 1.543 2.964 2.964 0 0 1-1.743.564Zm-.408-10.746a2.134 2.134 0 0 0-1.226.387 2.747 2.747 0 0 0-.94 1.216 5.44 5.44 0 0 0-.377 2.161 9.789 9.789 0 0 0 .864 4.491 2.324 2.324 0 0 0 2.086 1.488 1.957 1.957 0 0 0 1.16-.377 2.8 2.8 0 0 0 .9-1.145 4.292 4.292 0 0 0 .358-1.808v-.963a8.675 8.675 0 0 0-.805-4.154 2.217 2.217 0 0 0-2.02-1.296Zm16.285 4.634a.965.965 0 0 1-.7-.251c-.224-.219-.315-.59-.315-1.282a5.2 5.2 0 0 1 .4-2.111 3.346 3.346 0 0 1 1.141-1.436 2.9 2.9 0 0 1 1.683-.511 2.834 2.834 0 0 1 1.727.569 3.8 3.8 0 0 1 1.135 1.349 3.534 3.534 0 0 1 .409 1.594 1.3 1.3 0 0 1-.365.966 1.867 1.867 0 0 1-1.026.445l-3.735.635a2.063 2.063 0 0 1-.354.033Zm2.206-4.59a1.9 1.9 0 0 0-1.115.334 2.365 2.365 0 0 0-.791 1.022 4.216 4.216 0 0 0-.314 1.706 3.072 3.072 0 0 0 .035.532 1.185 1.185 0 0 0 .165-.018l3.736-.635a.97.97 0 0 0 .491-.17.361.361 0 0 0 .068-.255 2.548 2.548 0 0 0-.3-1.143 2.773 2.773 0 0 0-.839-1 1.83 1.83 0 0 0-1.134-.373Zm-51.815 4.59a.965.965 0 0 1-.7-.251c-.224-.219-.315-.59-.315-1.282a5.2 5.2 0 0 1 .4-2.111 3.346 3.346 0 0 1 1.141-1.436 2.9 2.9 0 0 1 1.683-.511 2.834 2.834 0 0 1 1.727.569 3.8 3.8 0 0 1 1.135 1.349 3.533 3.533 0 0 1 .409 1.594 1.3 1.3 0 0 1-.365.966 1.867 1.867 0 0 1-1.025.445l-3.735.635a2.063 2.063 0 0 1-.354.033Zm2.206-4.59a1.9 1.9 0 0 0-1.115.334 2.365 2.365 0 0 0-.795 1.018 4.216 4.216 0 0 0-.314 1.706 3.072 3.072 0 0 0 .035.532 1.184 1.184 0 0 0 .165-.018l3.736-.635a.969.969 0 0 0 .491-.17.361.361 0 0 0 .069-.255 2.548 2.548 0 0 0-.3-1.143 2.773 2.773 0 0 0-.839-1 1.83 1.83 0 0 0-1.13-.369Zm-139.065 4.59a.965.965 0 0 1-.7-.251c-.224-.219-.315-.59-.315-1.282a5.2 5.2 0 0 1 .4-2.111 3.346 3.346 0 0 1 1.141-1.436 2.9 2.9 0 0 1 1.683-.511 2.835 2.835 0 0 1 1.727.569 3.8 3.8 0 0 1 1.135 1.349 3.534 3.534 0 0 1 .409 1.594 1.3 1.3 0 0 1-.365.966 1.867 1.867 0 0 1-1.026.445l-3.735.635a2.063 2.063 0 0 1-.354.033Zm2.206-4.59a1.9 1.9 0 0 0-1.115.334 2.366 2.366 0 0 0-.795 1.018 4.216 4.216 0 0 0-.314 1.706 3.072 3.072 0 0 0 .035.532 1.184 1.184 0 0 0 .165-.018l3.736-.635a.97.97 0 0 0 .491-.17.361.361 0 0 0 .068-.255 2.548 2.548 0 0 0-.3-1.143 2.773 2.773 0 0 0-.839-1 1.83 1.83 0 0 0-1.131-.369Z" data-name="Sacar el color verde - Contorno"/></g></g></g></svg>