<svg xmlns="http://www.w3.org/2000/svg" xmlns:xlink="http://www.w3.org/1999/xlink" width="102" height="106" viewBox="0 0 102 106">
  <defs>
    <clipPath id="clip-path">
      <rect id="Rectángulo_2235" data-name="Rectángulo 2235" width="83" height="79.719" fill="none"/>
    </clipPath>
    <clipPath id="clip-Mesa_de_trabajo_6">
      <rect width="102" height="106"/>
    </clipPath>
  </defs>
  <g id="Mesa_de_trabajo_6" data-name="Mesa de trabajo – 6" clip-path="url(#clip-Mesa_de_trabajo_6)">
    <rect width="102" height="106" fill="rgba(255,255,255,0)"/>
    <g id="Grupo_35668" data-name="Grupo 35668" transform="translate(10 13)">
      <g id="Grupo_35667" data-name="Grupo 35667" transform="translate(0 0)" clip-path="url(#clip-path)">
        <path id="Trazado_16374" data-name="Trazado 16374" d="M60.073,45.935A16.715,16.715,0,1,1,43.359,29.22,16.715,16.715,0,0,1,60.073,45.935" transform="translate(-2.762 -3.029)" fill="#242ff8"/>
        <path id="Trazado_16375" data-name="Trazado 16375" d="M29.388,0a31.293,31.293,0,0,1,7.266.764,20.225,20.225,0,0,1,5.369,2.073,29.859,29.859,0,0,1,7.228,6.257,39.282,39.282,0,0,0,5.011,4.8,21.99,21.99,0,0,0,7.318,3.634,40.259,40.259,0,0,1,8.353,3.441,29.56,29.56,0,0,1,6.765,5.1,23.193,23.193,0,0,1,4.637,6.762,22.793,22.793,0,0,1,1.926,8.326A26.512,26.512,0,0,1,81.875,50.9,27.35,27.35,0,0,1,61.851,68.734c-4.84,1.015-7.2,3.18-9.7,5.473-3.108,2.851-6.321,5.8-13.968,5.8A20.407,20.407,0,0,1,27.21,76.819a16.591,16.591,0,0,0-7.933-2.495c-.463-.029-.924-.072-1.372-.129A20.5,20.5,0,0,1,3.967,41.735,21.421,21.421,0,0,0,7.524,34.2a20,20,0,0,0,.327-8.267,22.731,22.731,0,0,1-.3-4.768,21.976,21.976,0,0,1,1.991-8.219A22.391,22.391,0,0,1,14.284,6.22,21.56,21.56,0,0,1,29.388,0Zm8.8,77.23c6.566,0,9.126-2.349,12.091-5.069,2.541-2.331,5.42-4.973,11.007-6.145A24.574,24.574,0,0,0,79.246,50.01a23.747,23.747,0,0,0,1.24-8.728,19.708,19.708,0,0,0-5.775-13.269A26.79,26.79,0,0,0,68.58,23.4,37.485,37.485,0,0,0,60.8,20.2a24.717,24.717,0,0,1-8.224-4.092,41.456,41.456,0,0,1-5.367-5.129,27.289,27.289,0,0,0-6.555-5.724c-2.989-1.69-6.57-2.477-11.269-2.477A18.8,18.8,0,0,0,16.223,8.208a19.625,19.625,0,0,0-4.156,5.89,19.207,19.207,0,0,0-1.741,7.182,19.937,19.937,0,0,0,.261,4.179,22.761,22.761,0,0,1-.37,9.406A24.183,24.183,0,0,1,6.2,43.379,17.74,17.74,0,0,0,18.253,71.441c.391.05.791.087,1.19.112A19.369,19.369,0,0,1,28.7,74.477,17.634,17.634,0,0,0,38.184,77.23Z" transform="translate(-0.144 -0.144)" fill="#242ff8"/>
        <path id="Elipse_850" data-name="Elipse 850" d="M16.715-1.389a18.1,18.1,0,0,1,12.8,30.9A18.1,18.1,0,1,1,9.668.035,17.991,17.991,0,0,1,16.715-1.389Zm0,33.429A15.326,15.326,0,0,0,27.552,5.877,15.326,15.326,0,1,0,5.877,27.552,15.226,15.226,0,0,0,16.715,32.041Z" transform="translate(23.882 26.191)" fill="#242ff8"/>
        <path id="Trazado_16376" data-name="Trazado 16376" d="M32.976,47.98a1.388,1.388,0,0,1-1.388-1.389A12.427,12.427,0,0,1,44.014,34.165a1.389,1.389,0,1,1,0,2.777,9.661,9.661,0,0,0-9.65,9.65A1.389,1.389,0,0,1,32.976,47.98Z" transform="translate(-3.419 -3.686)" fill="#fdf3e9"/>
      </g>
    </g>
  </g>
</svg>
