<svg xmlns="http://www.w3.org/2000/svg" xmlns:xlink="http://www.w3.org/1999/xlink" width="102" height="106" viewBox="0 0 102 106">
  <defs>
    <clipPath id="clip-path">
      <rect id="Rectángulo_2237" data-name="Rectángulo 2237" width="88.452" height="67.186" fill="none"/>
    </clipPath>
    <clipPath id="clip-Mesa_de_trabajo_8">
      <rect width="102" height="106"/>
    </clipPath>
  </defs>
  <g id="Mesa_de_trabajo_8" data-name="Mesa de trabajo – 8" clip-path="url(#clip-Mesa_de_trabajo_8)">
    <rect width="102" height="106" fill="rgba(255,255,255,0)"/>
    <g id="Grupo_35672" data-name="Grupo 35672" transform="translate(7 22.55)">
      <g id="Grupo_35671" data-name="Grupo 35671" transform="translate(0 0)" clip-path="url(#clip-path)">
        <path id="Trazado_16383" data-name="Trazado 16383" d="M83.421,45.554A42.361,42.361,0,0,1,63.463,63.221c-11.477,5-24.923,5.136-36.7,1.172a33.475,33.475,0,0,1-12.234-7.3C2.247,45.508-.572,33.152.09,26.894c.257-2.37,4.919-1.469,5.919-4.238.806-2.236-3.385-6.76-2.417-8.227,1.558-2.368,8.926-4.195,18.832-4.04a42.446,42.446,0,0,1,21.249,6.07c4.129,2.532,7.615,5.973,11.477,8.9S64.715,31.6,69.567,31.6c3.342,0,6.176-1.04,6.6-2.459a2.454,2.454,0,0,0-.283-1.916A6.472,6.472,0,0,0,72.638,24.9c-3.888-1.722-12.244-3.78-14.835-7.151a15.046,15.046,0,0,1-.25-17.4A.916.916,0,0,1,58.9.245c4.7,4.191,11.583,5.643,16.03,10.134A34.615,34.615,0,0,1,83.355.289a.61.61,0,0,1,.968.223c4.866,14.2,6.436,32.057-.9,45.042" transform="translate(0 0)" fill="#242ff8"/>
        <path id="Trazado_16384" data-name="Trazado 16384" d="M28.317,60.334a1.389,1.389,0,0,1-.5-2.683,28.555,28.555,0,0,0,11.867-8.207,25.114,25.114,0,0,0,4.965-9.82,29.657,29.657,0,0,0,.645-11.749,1.388,1.388,0,1,1,2.727-.525,32.139,32.139,0,0,1-.685,12.973,27.87,27.87,0,0,1-5.516,10.9,31.289,31.289,0,0,1-13,9.021A1.385,1.385,0,0,1,28.317,60.334Z" transform="translate(-2.6 -2.536)" fill="#fdf3e9"/>
        <path id="Trazado_16385" data-name="Trazado 16385" d="M57.128,61.951a23.3,23.3,0,0,1-12.29-3.83,1.388,1.388,0,0,1,1.447-2.37A22.231,22.231,0,0,0,54.68,59a17.509,17.509,0,0,0,6.849-.378c-2.28-4.8-5.607-7.621-11.157-9.545a1.388,1.388,0,1,1,.91-2.624c6.831,2.368,10.851,6.12,13.442,12.546a1.388,1.388,0,0,1-.859,1.84A21.7,21.7,0,0,1,57.128,61.951Z" transform="translate(-4.184 -4.386)" fill="#fdf3e9"/>
        <path id="Trazado_16386" data-name="Trazado 16386" d="M20.722,28.03a4.1,4.1,0,1,0,4.129-4.066,4.1,4.1,0,0,0-4.129,4.066" transform="translate(-1.903 -2.201)" fill="#fdf3e9"/>
      </g>
    </g>
  </g>
</svg>
