<svg xmlns="http://www.w3.org/2000/svg" xmlns:xlink="http://www.w3.org/1999/xlink" width="102" height="106" viewBox="0 0 102 106">
  <defs>
    <clipPath id="clip-path">
      <rect id="Rectángulo_2234" data-name="Rectángulo 2234" width="65.284" height="99.532" fill="none"/>
    </clipPath>
    <clipPath id="clip-Mesa_de_trabajo_5">
      <rect width="102" height="106"/>
    </clipPath>
  </defs>
  <g id="Mesa_de_trabajo_5" data-name="Mesa de trabajo – 5" clip-path="url(#clip-Mesa_de_trabajo_5)">
    <rect width="102" height="106" fill="rgba(255,255,255,0)"/>
    <g id="Grupo_35666" data-name="Grupo 35666" transform="translate(17.999 3)">
      <g id="Grupo_35665" data-name="Grupo 35665" transform="translate(0 0)" clip-path="url(#clip-path)">
        <path id="Trazado_16358" data-name="Trazado 16358" d="M9.558,13.673l-4.6.9A2.918,2.918,0,0,0,2.66,18L9.37,52.121a2.916,2.916,0,0,0,3.424,2.295l4.6-.9a2.914,2.914,0,0,0,2.3-3.424l-6.71-34.121a2.917,2.917,0,0,0-3.424-2.295" transform="translate(-0.239 -1.25)" fill="#e1e640"/>
        <path id="Trazado_16359" data-name="Trazado 16359" d="M9.558,13.673l-4.6.9A2.918,2.918,0,0,0,2.66,18L9.37,52.121a2.916,2.916,0,0,0,3.424,2.295l4.6-.9a2.914,2.914,0,0,0,2.3-3.424l-6.71-34.121a2.917,2.917,0,0,0-3.424-2.295" transform="translate(-0.239 -1.25)" fill="#fff3e9"/>
        <path id="Trazado_16360" data-name="Trazado 16360" d="M10.125,12.229h0a4.313,4.313,0,0,1,4.219,3.47l6.71,34.123a4.3,4.3,0,0,1-3.391,5.054l-4.6.9a4.3,4.3,0,0,1-5.053-3.387L1.3,18.268a4.315,4.315,0,0,1,3.391-5.055l4.6-.9A4.307,4.307,0,0,1,10.125,12.229Zm2.1,40.854a1.541,1.541,0,0,0,.3-.029l4.6-.9a1.526,1.526,0,0,0,1.2-1.791l-6.71-34.123a1.529,1.529,0,0,0-1.495-1.23h0a1.53,1.53,0,0,0-.3.029l-4.6.9a1.533,1.533,0,0,0-1.2,1.8l6.709,34.12A1.53,1.53,0,0,0,12.226,53.083Z" transform="translate(-0.239 -1.25)" fill="#242ff8"/>
        <path id="Trazado_16361" data-name="Trazado 16361" d="M25.437,20.929H20.749a2.916,2.916,0,0,0-2.916,2.917V75.469a2.916,2.916,0,0,0,2.916,2.917h4.688a2.916,2.916,0,0,0,2.917-2.917V23.846a2.916,2.916,0,0,0-2.917-2.917" transform="translate(-1.638 -1.922)" fill="#e1e640"/>
        <path id="Trazado_16362" data-name="Trazado 16362" d="M25.437,20.929H20.749a2.916,2.916,0,0,0-2.916,2.917V75.469a2.916,2.916,0,0,0,2.916,2.917h4.688a2.916,2.916,0,0,0,2.917-2.917V23.846a2.916,2.916,0,0,0-2.917-2.917" transform="translate(-1.638 -1.922)" fill="#fff3e9"/>
        <path id="Rectángulo_2233" data-name="Rectángulo 2233" d="M3.212-1.389h4.1a4.606,4.606,0,0,1,4.6,4.6V54.245a4.606,4.606,0,0,1-4.6,4.6h-4.1a4.606,4.606,0,0,1-4.6-4.6V3.212A4.606,4.606,0,0,1,3.212-1.389Zm4.1,57.457a1.826,1.826,0,0,0,1.823-1.823V3.212A1.826,1.826,0,0,0,7.31,1.389h-4.1A1.826,1.826,0,0,0,1.389,3.212V54.245a1.826,1.826,0,0,0,1.823,1.823Z" transform="translate(16.195 19.007)" fill="#242ff8"/>
        <path id="Trazado_16363" data-name="Trazado 16363" d="M40.31,1.959,35.654,1.41a2.911,2.911,0,0,0-3.237,2.548L25.827,59.5a2.912,2.912,0,0,0,2.551,3.237l4.653.553a2.916,2.916,0,0,0,3.239-2.552L42.861,5.2A2.916,2.916,0,0,0,40.31,1.959" transform="translate(-2.37 -0.128)" fill="#e1e640"/>
        <path id="Trazado_16364" data-name="Trazado 16364" d="M40.31,1.959,35.654,1.41a2.911,2.911,0,0,0-3.237,2.548L25.827,59.5a2.912,2.912,0,0,0,2.551,3.237l4.653.553a2.916,2.916,0,0,0,3.239-2.552L42.861,5.2A2.916,2.916,0,0,0,40.31,1.959" transform="translate(-2.37 -0.128)" fill="#fff3e9"/>
        <path id="Trazado_16365" data-name="Trazado 16365" d="M35.3,0h0a4.344,4.344,0,0,1,.515.031L40.472.58a4.3,4.3,0,0,1,3.767,4.784L37.649,60.9a4.3,4.3,0,0,1-4.27,3.8,4.345,4.345,0,0,1-.513-.031l-4.652-.553a4.3,4.3,0,0,1-3.766-4.781l6.59-55.539A4.3,4.3,0,0,1,35.3,0Zm-1.926,61.92a1.524,1.524,0,0,0,1.512-1.347L41.482,5.035a1.528,1.528,0,0,0-1.337-1.7l-4.653-.549a1.565,1.565,0,0,0-.187-.011A1.52,1.52,0,0,0,33.8,4.12L27.206,59.662a1.524,1.524,0,0,0,1.337,1.694l4.652.553A1.562,1.562,0,0,0,33.379,61.921Z" transform="translate(-2.37 -0.128)" fill="#242ff8"/>
        <path id="Trazado_16366" data-name="Trazado 16366" d="M51.6,12.229l-4.655-.553A2.913,2.913,0,0,0,43.7,14.228L37.771,64.191a2.918,2.918,0,0,0,2.551,3.24l4.655.553a2.919,2.919,0,0,0,3.24-2.555l5.926-49.964A2.914,2.914,0,0,0,51.6,12.229" transform="translate(-3.466 -1.07)" fill="#e1e640"/>
        <path id="Trazado_16367" data-name="Trazado 16367" d="M51.6,12.229l-4.655-.553A2.913,2.913,0,0,0,43.7,14.228L37.771,64.191a2.918,2.918,0,0,0,2.551,3.24l4.655.553a2.919,2.919,0,0,0,3.24-2.555l5.926-49.964A2.914,2.914,0,0,0,51.6,12.229" transform="translate(-3.466 -1.07)" fill="#fff3e9"/>
        <path id="Trazado_16368" data-name="Trazado 16368" d="M46.591,10.267h0a4.342,4.342,0,0,1,.513.031l4.654.553a4.307,4.307,0,0,1,3.763,4.78L49.6,65.593a4.31,4.31,0,0,1-4.275,3.8,4.368,4.368,0,0,1-.505-.029l-4.658-.553a4.312,4.312,0,0,1-3.766-4.783l5.932-49.963A4.3,4.3,0,0,1,46.591,10.267Zm-1.27,56.349a1.531,1.531,0,0,0,1.518-1.351L52.765,15.3a1.526,1.526,0,0,0-1.334-1.694l-4.654-.553a1.56,1.56,0,0,0-.185-.011,1.522,1.522,0,0,0-1.509,1.346L39.15,64.355a1.531,1.531,0,0,0,1.338,1.7l4.654.553A1.569,1.569,0,0,0,45.321,66.616Z" transform="translate(-3.466 -1.07)" fill="#242ff8"/>
        <path id="Trazado_16369" data-name="Trazado 16369" d="M65.945,18.466l-4.517-1.251a2.916,2.916,0,0,0-3.588,2.031L46.58,59.956a2.91,2.91,0,0,0,2.031,3.585l4.517,1.251a2.916,2.916,0,0,0,3.588-2.034l11.26-40.706a2.916,2.916,0,0,0-2.032-3.585" transform="translate(-4.267 -1.571)" fill="#e1e640"/>
        <path id="Trazado_16370" data-name="Trazado 16370" d="M65.945,18.466l-4.517-1.251a2.916,2.916,0,0,0-3.588,2.031L46.58,59.956a2.91,2.91,0,0,0,2.031,3.585l4.517,1.251a2.916,2.916,0,0,0,3.588-2.034l11.26-40.706a2.916,2.916,0,0,0-2.032-3.585" transform="translate(-4.267 -1.571)" fill="#fff3e9"/>
        <path id="Trazado_16371" data-name="Trazado 16371" d="M60.647,15.72h0a4.308,4.308,0,0,1,1.152.157l4.516,1.25a4.3,4.3,0,0,1,3,5.293L58.055,63.128a4.3,4.3,0,0,1-5.295,3L48.24,64.878a4.3,4.3,0,0,1-3-5.295L56.5,18.876A4.314,4.314,0,0,1,60.647,15.72ZM53.907,63.509a1.529,1.529,0,0,0,1.471-1.12L66.639,21.681A1.527,1.527,0,0,0,65.576,19.8l-4.518-1.251a1.523,1.523,0,0,0-1.879,1.062l-11.26,40.71A1.521,1.521,0,0,0,48.977,62.2L53.5,63.454A1.542,1.542,0,0,0,53.907,63.509Z" transform="translate(-4.267 -1.571)" fill="#242ff8"/>
        <path id="Trazado_16372" data-name="Trazado 16372" d="M63.6,47.216a1.816,1.816,0,0,0-1.62-.207,101.262,101.262,0,0,1-29.222,4.909A101.2,101.2,0,0,1,3.542,47.009a1.83,1.83,0,0,0-1.623.207,1.351,1.351,0,0,0-.6,1.34l9.311,52.887a1.584,1.584,0,0,0,1.617,1.215H53.276a1.585,1.585,0,0,0,1.617-1.215L64.2,48.556a1.353,1.353,0,0,0-.6-1.34" transform="translate(-0.119 -4.307)" fill="#242ff8"/>
        <path id="Trazado_16373" data-name="Trazado 16373" d="M62.588,45.6h0a3.109,3.109,0,0,1,1.756.542l.005,0a2.645,2.645,0,0,1,1.135,2.631l-9.311,52.887a2.876,2.876,0,0,1-2.9,2.291H12.247a2.875,2.875,0,0,1-2.9-2.287L.039,48.782a2.644,2.644,0,0,1,1.135-2.632,3.092,3.092,0,0,1,1.759-.543,3.155,3.155,0,0,1,1.033.173l.015,0a99.3,99.3,0,0,0,28.78,4.833,99.352,99.352,0,0,0,28.784-4.833l.013,0A3.1,3.1,0,0,1,62.588,45.6Zm.272,2.679a.531.531,0,0,0-.442-.049l-.038.013a102.216,102.216,0,0,1-29.619,4.97,102.161,102.161,0,0,1-29.615-4.97l-.029-.01a.554.554,0,0,0-.451.044.2.2,0,0,0-.062.061l9.308,52.874a.377.377,0,0,0,.335.14H53.276a.379.379,0,0,0,.336-.143l9.308-52.871A.2.2,0,0,0,62.86,48.283Z" transform="translate(-0.119 -4.307)" fill="#242ff8"/>
        <path id="Línea_552" data-name="Línea 552" d="M36.238,1.388H0A1.388,1.388,0,0,1-1.388,0,1.388,1.388,0,0,1,0-1.388H36.238A1.388,1.388,0,0,1,37.626,0,1.388,1.388,0,0,1,36.238,1.388Z" transform="translate(14.524 88.02)" fill="#faf1e7"/>
      </g>
    </g>
  </g>
</svg>
