<svg xmlns="http://www.w3.org/2000/svg" width="68.39" height="3178.046" viewBox="0 0 68.39 3178.046">
  <g id="Grupo_36304" data-name="Grupo 36304" transform="translate(-260.751 112.996)">
    <g id="Grupo_36305" data-name="Grupo 36305" transform="translate(-138 -112.996)">
      <path id="Trazado_15794" data-name="Trazado 15794" d="M287.346,76.834a2.12,2.12,0,0,1-1.226-.387,2.144,2.144,0,0,1-.528-2.989l12.063-17.277a3.288,3.288,0,0,0,0-3.76L285.587,35.14a2.148,2.148,0,0,1,3.522-2.461L301.18,49.962a7.611,7.611,0,0,1,0,8.682l-12.067,17.27a2.147,2.147,0,0,1-1.763.92" transform="translate(113.549 12.641)" fill="#07ee2e"/>
      <path id="Trazado_15795" data-name="Trazado 15795" d="M336.909,76.835a2.134,2.134,0,0,1-1.759-.92l-12.072-17.27a7.6,7.6,0,0,1,0-8.682L335.146,32.68a2.148,2.148,0,0,1,3.522,2.461L326.606,52.422a3.279,3.279,0,0,0-.006,3.76l12.067,17.277a2.149,2.149,0,0,1-.533,2.989,2.12,2.12,0,0,1-1.226.387" transform="translate(128.088 12.64)" fill="#07ee2e"/>
      <path id="Trazado_15796" data-name="Trazado 15796" d="M316.2,112.684a8.829,8.829,0,0,1-7.228-3.771L294.16,87.71a8.842,8.842,0,0,1,0-10.089l14.811-21.2a8.812,8.812,0,0,1,14.451,0l14.806,21.2a8.849,8.849,0,0,1,0,10.089h0l-14.806,21.2a8.821,8.821,0,0,1-7.226,3.771m0-55.74a4.472,4.472,0,0,0-3.708,1.932l-14.81,21.2a4.541,4.541,0,0,0,0,5.176l14.81,21.2a4.645,4.645,0,0,0,7.41,0l14.811-21.2a4.537,4.537,0,0,0,0-5.176L319.9,58.877a4.46,4.46,0,0,0-3.7-1.932" transform="translate(116.487 20.957)" fill="#07ee2e"/>
      <path id="Trazado_15797" data-name="Trazado 15797" d="M303.566,74.6l.24,1.251c.951,2.564,4.822,6.648,6.592,8.03l1.124.377a23.784,23.784,0,0,0,7.543-7.142l-.138-1.162a30.733,30.733,0,0,0-6.907-8.158l-.808-.253c-2.013.579-6.124,4.446-7.646,7.056" transform="translate(120.861 26.888)" fill="#07ee2e"/>
      <path id="Trazado_15798" data-name="Trazado 15798" d="M316.2,60.036a8.816,8.816,0,0,1-7.228-3.772l-14.808-21.2a8.835,8.835,0,0,1,0-10.089l14.811-21.2a8.812,8.812,0,0,1,14.451,0l14.81,21.206a8.842,8.842,0,0,1,0,10.085h0l-14.806,21.2a8.807,8.807,0,0,1-7.226,3.772m0-55.735a4.467,4.467,0,0,0-3.708,1.927l-14.81,21.207a4.537,4.537,0,0,0,0,5.173l14.81,21.2a4.648,4.648,0,0,0,7.41,0l14.811-21.2a4.528,4.528,0,0,0,0-5.17L319.9,6.227A4.455,4.455,0,0,0,316.2,4.3" transform="translate(116.487 -0.004)" fill="#07ee2e"/>
      <path id="Trazado_15799" data-name="Trazado 15799" d="M311.419,14.9l-.8.253A30.648,30.648,0,0,0,303.7,23.31l-.138,1.16a23.945,23.945,0,0,0,7.549,7.147l1.119-.383c1.776-1.38,5.641-5.465,6.6-8.024l.236-1.256c-1.523-2.61-5.629-6.472-7.646-7.054" transform="translate(120.861 5.927)" fill="#07ee2e"/>
      <path id="Trazado_15800" data-name="Trazado 15800" d="M334.381,125.791l-12.432-17.8a6.653,6.653,0,0,1,0-7.634l12.432-17.8a1.308,1.308,0,0,1,2.378.749v41.734a1.307,1.307,0,0,1-2.378.749" transform="translate(127.701 32.641)" fill="#07ee2e"/>
      <path id="Trazado_15801" data-name="Trazado 15801" d="M288.844,82.555l12.485,17.766a6.665,6.665,0,0,1,.025,7.634l-12.382,17.839a1.3,1.3,0,0,1-2.373-.744l-.13-41.737a1.306,1.306,0,0,1,2.374-.758" transform="translate(114.055 32.64)" fill="#07ee2e"/>
      <path id="Trazado_15802" data-name="Trazado 15802" d="M316.2,161.361a8.829,8.829,0,0,1-7.228-3.771l-14.808-21.2a8.841,8.841,0,0,1,0-10.093l14.811-21.2a8.806,8.806,0,0,1,14.451,0l14.806,21.2a8.839,8.839,0,0,1,0,10.088h0l-14.806,21.2a8.821,8.821,0,0,1-7.226,3.771m0-55.74a4.452,4.452,0,0,0-3.7,1.934l-14.816,21.2a4.541,4.541,0,0,0,0,5.176l14.81,21.2a4.647,4.647,0,0,0,7.41,0l14.811-21.2a4.53,4.53,0,0,0,0-5.172l-14.811-21.2a4.458,4.458,0,0,0-3.7-1.934" transform="translate(116.487 40.336)" fill="#07ee2e"/>
      <path id="Trazado_15803" data-name="Trazado 15803" d="M311.419,116.225l-.8.253a30.686,30.686,0,0,0-6.911,8.158l-.138,1.162a23.871,23.871,0,0,0,7.549,7.143l1.119-.378c1.776-1.381,5.641-5.472,6.6-8.03l.236-1.256c-1.523-2.61-5.629-6.473-7.646-7.054" transform="translate(120.861 46.268)" fill="#07ee2e"/>
      <path id="Trazado_15804" data-name="Trazado 15804" d="M287.345,177.243a2.14,2.14,0,0,1-1.755-3.371l12.063-17.281a3.3,3.3,0,0,0,0-3.767l-12.063-17.271a2.146,2.146,0,1,1,3.518-2.459l12.067,17.275a7.611,7.611,0,0,1,0,8.682l-12.072,17.275a2.143,2.143,0,0,1-1.763.916" transform="translate(113.55 52.619)" fill="#07ee2e"/>
      <path id="Trazado_15805" data-name="Trazado 15805" d="M336.908,177.244a2.13,2.13,0,0,1-1.759-.916l-12.072-17.275a7.618,7.618,0,0,1,0-8.682l12.072-17.275a2.146,2.146,0,1,1,3.518,2.459L326.6,152.825a3.29,3.29,0,0,0,.006,3.767l12.062,17.281a2.142,2.142,0,0,1-1.759,3.371" transform="translate(128.089 52.618)" fill="#07ee2e"/>
      <path id="Trazado_15806" data-name="Trazado 15806" d="M316.2,213.092a8.827,8.827,0,0,1-7.226-3.767l-14.811-21.2a8.851,8.851,0,0,1,0-10.095l14.811-21.2a8.814,8.814,0,0,1,14.451,0l14.806,21.2a8.858,8.858,0,0,1,0,10.095h0l-14.806,21.2a8.827,8.827,0,0,1-7.226,3.767m0-55.74a4.45,4.45,0,0,0-3.7,1.935l-14.816,21.2a4.546,4.546,0,0,0,0,5.179l14.81,21.2a4.658,4.658,0,0,0,7.41,0l14.811-21.2a4.541,4.541,0,0,0,0-5.179l-14.811-21.2a4.456,4.456,0,0,0-3.7-1.935" transform="translate(116.487 60.933)" fill="#07ee2e"/>
      <path id="Trazado_15807" data-name="Trazado 15807" d="M303.566,175.012l.24,1.255c.951,2.563,4.822,6.65,6.592,8.024l1.124.384a23.823,23.823,0,0,0,7.543-7.145l-.138-1.165a30.7,30.7,0,0,0-6.907-8.153l-.808-.256c-2.013.582-6.124,4.448-7.646,7.054" transform="translate(120.861 66.865)" fill="#07ee2e"/>
      <path id="Trazado_15808" data-name="Trazado 15808" d="M334.381,226.2l-12.432-17.8a6.653,6.653,0,0,1,0-7.634l12.432-17.8a1.306,1.306,0,0,1,2.378.749v41.734a1.308,1.308,0,0,1-2.378.749" transform="translate(127.701 72.618)" fill="#07ee2e"/>
      <path id="Trazado_15809" data-name="Trazado 15809" d="M288.844,182.966l12.485,17.761a6.665,6.665,0,0,1,.025,7.634L288.973,226.2a1.3,1.3,0,0,1-2.373-.738l-.13-41.737a1.305,1.305,0,0,1,2.374-.758" transform="translate(114.055 72.618)" fill="#07ee2e"/>
      <path id="Trazado_15810" data-name="Trazado 15810" d="M316.2,261.773A8.829,8.829,0,0,1,308.968,258L294.16,236.8a8.848,8.848,0,0,1,0-10.093l14.811-21.2a8.812,8.812,0,0,1,14.451,0l14.806,21.2a8.856,8.856,0,0,1,0,10.093h0L323.422,258a8.821,8.821,0,0,1-7.226,3.771m0-55.74a4.481,4.481,0,0,0-3.708,1.927l-14.81,21.2a4.55,4.55,0,0,0,0,5.181l14.81,21.2a4.645,4.645,0,0,0,7.41,0l14.811-21.2a4.546,4.546,0,0,0,0-5.181L319.9,207.96a4.469,4.469,0,0,0-3.7-1.927" transform="translate(116.487 80.313)" fill="#07ee2e"/>
      <path id="Trazado_15811" data-name="Trazado 15811" d="M311.419,216.637l-.8.253a30.662,30.662,0,0,0-6.911,8.154l-.138,1.166a23.918,23.918,0,0,0,7.549,7.143l1.119-.383c1.776-1.376,5.641-5.467,6.6-8.024l.236-1.256c-1.523-2.61-5.629-6.473-7.646-7.054" transform="translate(120.861 86.246)" fill="#07ee2e"/>
      <path id="Trazado_15812" data-name="Trazado 15812" d="M287.345,277.654a2.12,2.12,0,0,1-1.226-.387,2.143,2.143,0,0,1-.528-2.989L297.654,257a3.3,3.3,0,0,0,0-3.767l-12.063-17.271a2.146,2.146,0,1,1,3.518-2.459l12.067,17.275a7.611,7.611,0,0,1,0,8.682l-12.072,17.275a2.154,2.154,0,0,1-1.763.916" transform="translate(113.55 92.596)" fill="#07ee2e"/>
      <path id="Trazado_15813" data-name="Trazado 15813" d="M336.908,277.655a2.141,2.141,0,0,1-1.759-.916l-12.072-17.275a7.618,7.618,0,0,1,0-8.682l12.072-17.275a2.146,2.146,0,1,1,3.518,2.459L326.6,253.236a3.29,3.29,0,0,0,.006,3.767l12.062,17.275a2.147,2.147,0,0,1-.533,2.989,2.12,2.12,0,0,1-1.226.387" transform="translate(128.089 92.596)" fill="#07ee2e"/>
      <path id="Trazado_15814" data-name="Trazado 15814" d="M316.2,313.5a8.827,8.827,0,0,1-7.228-3.772l-14.808-21.2a8.835,8.835,0,0,1,0-10.089l14.811-21.2a8.814,8.814,0,0,1,14.451,0l14.806,21.2a8.843,8.843,0,0,1,0,10.095l-14.806,21.2A8.818,8.818,0,0,1,316.2,313.5m0-55.74a4.457,4.457,0,0,0-3.7,1.931L297.678,280.9a4.532,4.532,0,0,0,0,5.17l14.81,21.207a4.65,4.65,0,0,0,7.41,0l14.811-21.207a4.528,4.528,0,0,0,0-5.17L319.9,259.7a4.462,4.462,0,0,0-3.7-1.931" transform="translate(116.487 100.911)" fill="#07ee2e"/>
      <path id="Trazado_15815" data-name="Trazado 15815" d="M303.566,275.424l.24,1.251c.951,2.564,4.822,6.648,6.592,8.031l1.124.382a23.862,23.862,0,0,0,7.543-7.147l-.138-1.162a30.822,30.822,0,0,0-6.907-8.158l-.808-.25c-2.013.577-6.124,4.447-7.646,7.054" transform="translate(120.861 106.842)" fill="#07ee2e"/>
      <path id="Trazado_15816" data-name="Trazado 15816" d="M334.381,326.615l-12.432-17.8a6.653,6.653,0,0,1,0-7.634l12.432-17.8a1.308,1.308,0,0,1,2.378.749v41.74a1.308,1.308,0,0,1-2.378.749" transform="translate(127.701 112.594)" fill="#07ee2e"/>
      <path id="Trazado_15817" data-name="Trazado 15817" d="M288.844,283.374l12.485,17.766a6.665,6.665,0,0,1,.025,7.634l-12.382,17.839a1.3,1.3,0,0,1-2.373-.744l-.13-41.739a1.307,1.307,0,0,1,2.374-.756" transform="translate(114.055 112.595)" fill="#07ee2e"/>
      <path id="Trazado_15818" data-name="Trazado 15818" d="M316.2,362.178a8.823,8.823,0,0,1-7.226-3.762l-14.811-21.2a8.851,8.851,0,0,1,0-10.095l14.811-21.2a8.806,8.806,0,0,1,14.451,0l14.806,21.2a8.858,8.858,0,0,1,0,10.095h0l-14.806,21.2a8.824,8.824,0,0,1-7.226,3.762m0-55.735a4.455,4.455,0,0,0-3.7,1.932l-14.816,21.2a4.544,4.544,0,0,0,0,5.177l14.81,21.206a4.658,4.658,0,0,0,7.41,0l14.811-21.206a4.539,4.539,0,0,0,0-5.177l-14.811-21.2a4.46,4.46,0,0,0-3.7-1.932" transform="translate(116.487 120.29)" fill="#07ee2e"/>
      <path id="Trazado_15819" data-name="Trazado 15819" d="M311.419,317.048l-.8.25a30.722,30.722,0,0,0-6.911,8.157l-.138,1.16a23.933,23.933,0,0,0,7.549,7.149l1.119-.383c1.776-1.38,5.641-5.47,6.6-8.03l.236-1.25c-1.523-2.61-5.629-6.478-7.646-7.054" transform="translate(120.861 126.223)" fill="#07ee2e"/>
      <path id="Trazado_15820" data-name="Trazado 15820" d="M287.345,378.06a2.119,2.119,0,0,1-1.226-.387,2.143,2.143,0,0,1-.528-2.989l12.063-17.275a3.292,3.292,0,0,0,0-3.762l-12.063-17.27a2.146,2.146,0,1,1,3.518-2.461l12.067,17.274a7.6,7.6,0,0,1,0,8.68l-12.067,17.275a2.15,2.15,0,0,1-1.763.916" transform="translate(113.55 132.574)" fill="#07ee2e"/>
      <path id="Trazado_15821" data-name="Trazado 15821" d="M336.909,378.062a2.137,2.137,0,0,1-1.759-.916L323.079,359.87a7.6,7.6,0,0,1,0-8.68l12.072-17.274a2.146,2.146,0,1,1,3.518,2.461L326.6,353.647a3.293,3.293,0,0,0,0,3.762l12.067,17.275a2.147,2.147,0,0,1-.533,2.989,2.119,2.119,0,0,1-1.226.387" transform="translate(128.088 132.573)" fill="#07ee2e"/>
      <path id="Trazado_15822" data-name="Trazado 15822" d="M316.2,413.916a8.823,8.823,0,0,1-7.228-3.772l-14.808-21.2a8.839,8.839,0,0,1,0-10.092l14.811-21.2a8.812,8.812,0,0,1,14.451,0l14.81,21.206a8.849,8.849,0,0,1,0,10.089h0l-14.806,21.2a8.815,8.815,0,0,1-7.226,3.772m0-55.74a4.479,4.479,0,0,0-3.708,1.928l-14.81,21.207a4.541,4.541,0,0,0,0,5.176l14.81,21.2a4.647,4.647,0,0,0,7.41,0l14.811-21.2a4.535,4.535,0,0,0,0-5.174L319.9,360.1a4.467,4.467,0,0,0-3.7-1.928" transform="translate(116.487 140.887)" fill="#07ee2e"/>
      <path id="Trazado_15823" data-name="Trazado 15823" d="M303.566,375.833l.24,1.255c.951,2.563,4.822,6.65,6.592,8.03l1.124.379a23.823,23.823,0,0,0,7.543-7.144l-.138-1.161a30.659,30.659,0,0,0-6.907-8.157l-.808-.256c-2.013.582-6.124,4.448-7.646,7.054" transform="translate(120.861 146.819)" fill="#07ee2e"/>
      <path id="Trazado_15824" data-name="Trazado 15824" d="M334.381,427.023l-12.432-17.8a6.653,6.653,0,0,1,0-7.634l12.432-17.8a1.307,1.307,0,0,1,2.378.749v41.734a1.307,1.307,0,0,1-2.378.749" transform="translate(127.701 152.572)" fill="#07ee2e"/>
      <path id="Trazado_15825" data-name="Trazado 15825" d="M288.844,383.787l12.485,17.761a6.665,6.665,0,0,1,.025,7.634L288.973,427.02a1.3,1.3,0,0,1-2.373-.738l-.13-41.737a1.306,1.306,0,0,1,2.374-.758" transform="translate(114.055 152.572)" fill="#07ee2e"/>
      <path id="Trazado_15826" data-name="Trazado 15826" d="M316.2,462.59a8.823,8.823,0,0,1-7.226-3.762L294.16,437.62a8.835,8.835,0,0,1,0-10.089l14.811-21.2a8.808,8.808,0,0,1,14.451,0l14.806,21.2a8.849,8.849,0,0,1,0,10.089l-14.81,21.207a8.823,8.823,0,0,1-7.226,3.762m0-55.735a4.443,4.443,0,0,0-3.7,1.931l-14.816,21.2a4.528,4.528,0,0,0,0,5.167l14.816,21.21a4.646,4.646,0,0,0,7.4,0l14.811-21.21a4.523,4.523,0,0,0,0-5.167l-14.811-21.2a4.448,4.448,0,0,0-3.7-1.931" transform="translate(116.487 160.268)" fill="#07ee2e"/>
      <path id="Trazado_15827" data-name="Trazado 15827" d="M311.419,417.458l-.8.253a30.62,30.62,0,0,0-6.911,8.158l-.138,1.162a23.932,23.932,0,0,0,7.549,7.143l1.119-.378c1.776-1.381,5.641-5.474,6.6-8.029l.236-1.256c-1.523-2.612-5.629-6.473-7.646-7.054" transform="translate(120.861 166.2)" fill="#07ee2e"/>
      <path id="Trazado_15828" data-name="Trazado 15828" d="M287.346,478.474a2.119,2.119,0,0,1-1.226-.387,2.143,2.143,0,0,1-.528-2.989l12.063-17.275a3.292,3.292,0,0,0,0-3.762l-12.067-17.275a2.148,2.148,0,1,1,3.522-2.459L301.18,451.6a7.614,7.614,0,0,1,0,8.68l-12.072,17.27a2.145,2.145,0,0,1-1.763.921" transform="translate(113.549 172.55)" fill="#07ee2e"/>
      <path id="Trazado_15829" data-name="Trazado 15829" d="M336.909,478.475a2.132,2.132,0,0,1-1.759-.921l-12.072-17.27a7.606,7.606,0,0,1,0-8.68l12.067-17.278a2.148,2.148,0,1,1,3.522,2.459l-12.062,17.275a3.273,3.273,0,0,0,0,3.762L338.667,475.1a2.148,2.148,0,0,1-.533,2.989,2.119,2.119,0,0,1-1.226.387" transform="translate(128.088 172.549)" fill="#07ee2e"/>
      <path id="Trazado_15830" data-name="Trazado 15830" d="M316.2,514.33a8.829,8.829,0,0,1-7.228-3.771l-14.808-21.2a8.851,8.851,0,0,1,0-10.095l14.811-21.2a8.808,8.808,0,0,1,14.451,0l14.806,21.2a8.858,8.858,0,0,1,0,10.095h0l-14.806,21.2a8.82,8.82,0,0,1-7.226,3.771m0-55.744a4.457,4.457,0,0,0-3.7,1.931l-14.816,21.2a4.55,4.55,0,0,0,0,5.181l14.81,21.2a4.647,4.647,0,0,0,7.41,0l14.811-21.2a4.546,4.546,0,0,0,0-5.181l-14.811-21.2a4.462,4.462,0,0,0-3.7-1.931" transform="translate(116.487 180.864)" fill="#07ee2e"/>
      <path id="Trazado_15831" data-name="Trazado 15831" d="M303.566,476.244l.24,1.256c.951,2.563,4.822,6.644,6.592,8.024l1.124.385a23.863,23.863,0,0,0,7.543-7.147l-.138-1.162a30.762,30.762,0,0,0-6.907-8.155l-.808-.253c-2.013.582-6.124,4.447-7.646,7.054" transform="translate(120.861 186.796)" fill="#07ee2e"/>
      <path id="Trazado_15832" data-name="Trazado 15832" d="M334.381,527.436l-12.432-17.8a6.653,6.653,0,0,1,0-7.634L334.381,484.2a1.308,1.308,0,0,1,2.378.749v41.74a1.308,1.308,0,0,1-2.378.749" transform="translate(127.701 192.549)" fill="#07ee2e"/>
      <path id="Trazado_15833" data-name="Trazado 15833" d="M288.844,484.2l12.485,17.761a6.665,6.665,0,0,1,.025,7.634l-12.382,17.839a1.3,1.3,0,0,1-2.373-.738l-.13-41.743a1.3,1.3,0,0,1,2.374-.752" transform="translate(114.055 192.55)" fill="#07ee2e"/>
      <path id="Trazado_15834" data-name="Trazado 15834" d="M316.2,563a8.813,8.813,0,0,1-7.228-3.772l-14.808-21.2a8.835,8.835,0,0,1,0-10.089l14.811-21.2a8.812,8.812,0,0,1,14.451,0l14.81,21.206a8.842,8.842,0,0,1,0,10.085h0l-14.806,21.2A8.8,8.8,0,0,1,316.2,563m0-55.735a4.465,4.465,0,0,0-3.708,1.928L297.678,530.4a4.535,4.535,0,0,0,0,5.172l14.81,21.2a4.65,4.65,0,0,0,7.41,0l14.811-21.2a4.528,4.528,0,0,0,0-5.17L319.9,509.193a4.453,4.453,0,0,0-3.7-1.928" transform="translate(116.487 200.245)" fill="#07ee2e"/>
      <path id="Trazado_15835" data-name="Trazado 15835" d="M311.419,517.869l-.8.253a30.661,30.661,0,0,0-6.911,8.154l-.138,1.16a23.933,23.933,0,0,0,7.549,7.149l1.119-.383c1.776-1.38,5.641-5.467,6.6-8.024l.236-1.256c-1.523-2.61-5.629-6.473-7.646-7.054" transform="translate(120.861 206.177)" fill="#07ee2e"/>
      <path id="Trazado_15836" data-name="Trazado 15836" d="M287.345,578.887a2.119,2.119,0,0,1-1.226-.387,2.143,2.143,0,0,1-.528-2.989l12.063-17.275a3.3,3.3,0,0,0,0-3.767L285.591,537.2a2.148,2.148,0,1,1,3.518-2.465l12.067,17.281a7.611,7.611,0,0,1,0,8.682l-12.072,17.27a2.141,2.141,0,0,1-1.763.921" transform="translate(113.55 212.529)" fill="#07ee2e"/>
      <path id="Trazado_15837" data-name="Trazado 15837" d="M336.908,578.888a2.128,2.128,0,0,1-1.759-.921L323.078,560.7a7.618,7.618,0,0,1,0-8.682l12.072-17.281a2.148,2.148,0,0,1,3.518,2.465L326.6,554.47a3.29,3.29,0,0,0,.006,3.767l12.062,17.275a2.148,2.148,0,0,1-.533,2.989,2.119,2.119,0,0,1-1.226.387" transform="translate(128.089 212.527)" fill="#07ee2e"/>
      <path id="Trazado_15838" data-name="Trazado 15838" d="M316.2,614.733a8.823,8.823,0,0,1-7.226-3.762L294.16,589.763a8.834,8.834,0,0,1,0-10.089l14.811-21.2a8.808,8.808,0,0,1,14.451,0l14.806,21.2a8.849,8.849,0,0,1,0,10.089l-14.81,21.207a8.824,8.824,0,0,1-7.226,3.762m0-55.735a4.457,4.457,0,0,0-3.7,1.931l-14.816,21.2a4.528,4.528,0,0,0,0,5.167l14.816,21.215a4.652,4.652,0,0,0,7.4,0L334.709,587.3a4.523,4.523,0,0,0,0-5.167l-14.811-21.2A4.462,4.462,0,0,0,316.2,559" transform="translate(116.487 220.842)" fill="#07ee2e"/>
      <path id="Trazado_15839" data-name="Trazado 15839" d="M303.566,576.656l.24,1.251c.951,2.564,4.822,6.648,6.592,8.029l1.124.383a23.879,23.879,0,0,0,7.543-7.147l-.138-1.162a30.823,30.823,0,0,0-6.907-8.158l-.808-.25c-2.013.576-6.124,4.443-7.646,7.054" transform="translate(120.861 226.774)" fill="#07ee2e"/>
      <path id="Trazado_15840" data-name="Trazado 15840" d="M334.381,627.844l-12.432-17.8a6.653,6.653,0,0,1,0-7.634l12.432-17.8a1.308,1.308,0,0,1,2.378.749v41.734a1.307,1.307,0,0,1-2.378.749" transform="translate(127.701 232.527)" fill="#07ee2e"/>
      <path id="Trazado_15841" data-name="Trazado 15841" d="M288.844,584.608l12.485,17.766a6.665,6.665,0,0,1,.025,7.634l-12.382,17.839a1.3,1.3,0,0,1-2.373-.744l-.13-41.737a1.306,1.306,0,0,1,2.374-.758" transform="translate(114.055 232.527)" fill="#07ee2e"/>
      <path id="Trazado_15842" data-name="Trazado 15842" d="M316.2,663.414a8.816,8.816,0,0,1-7.228-3.772l-14.808-21.2a8.842,8.842,0,0,1,0-10.089l14.811-21.2a8.814,8.814,0,0,1,14.451,0l14.806,21.2a8.849,8.849,0,0,1,0,10.089h0l-14.806,21.2a8.807,8.807,0,0,1-7.226,3.772m0-55.74a4.474,4.474,0,0,0-3.708,1.931l-14.81,21.2a4.541,4.541,0,0,0,0,5.176l14.81,21.2a4.647,4.647,0,0,0,7.41,0l14.811-21.2a4.537,4.537,0,0,0,0-5.176l-14.811-21.2a4.462,4.462,0,0,0-3.7-1.931" transform="translate(116.487 240.223)" fill="#07ee2e"/>
      <path id="Trazado_15843" data-name="Trazado 15843" d="M311.419,618.281l-.8.25a30.709,30.709,0,0,0-6.911,8.158l-.138,1.159A23.935,23.935,0,0,0,311.115,635l1.119-.383c1.776-1.38,5.641-5.469,6.6-8.03l.236-1.25c-1.523-2.616-5.629-6.478-7.646-7.054" transform="translate(120.861 246.155)" fill="#07ee2e"/>
      <path id="Trazado_15844" data-name="Trazado 15844" d="M287.346,679.3a2.12,2.12,0,0,1-1.226-.387,2.148,2.148,0,0,1-.533-2.989l12.067-17.278a3.3,3.3,0,0,0,0-3.764l-12.063-17.271a2.148,2.148,0,1,1,3.518-2.465l12.067,17.281a7.6,7.6,0,0,1,0,8.678l-12.067,17.274a2.145,2.145,0,0,1-1.763.921" transform="translate(113.549 252.506)" fill="#07ee2e"/>
      <path id="Trazado_15845" data-name="Trazado 15845" d="M336.909,679.3a2.145,2.145,0,0,1-1.763-.921L323.078,661.1a7.6,7.6,0,0,1,0-8.678l12.072-17.281a2.148,2.148,0,0,1,3.518,2.465L326.6,654.881a3.3,3.3,0,0,0,0,3.764l12.067,17.278a2.148,2.148,0,0,1-.533,2.989,2.12,2.12,0,0,1-1.226.387" transform="translate(128.088 252.505)" fill="#07ee2e"/>
      <path id="Trazado_15846" data-name="Trazado 15846" d="M316.2,715.145a8.823,8.823,0,0,1-7.228-3.768l-14.808-21.2a8.835,8.835,0,0,1,0-10.089l14.811-21.2a8.808,8.808,0,0,1,14.451,0l14.806,21.2a8.841,8.841,0,0,1,0,10.093l-14.806,21.2a8.814,8.814,0,0,1-7.226,3.768m0-55.735a4.443,4.443,0,0,0-3.7,1.931l-14.816,21.2a4.528,4.528,0,0,0,0,5.168l14.81,21.207a4.643,4.643,0,0,0,7.41,0l14.811-21.207a4.523,4.523,0,0,0,0-5.168L319.9,661.34a4.448,4.448,0,0,0-3.7-1.931" transform="translate(116.487 260.819)" fill="#07ee2e"/>
      <path id="Trazado_15847" data-name="Trazado 15847" d="M303.566,677.065l.24,1.255c.951,2.563,4.822,6.65,6.592,8.025l1.124.383a23.839,23.839,0,0,0,7.543-7.145l-.138-1.16a30.66,30.66,0,0,0-6.907-8.157l-.808-.256c-2.013.582-6.124,4.448-7.646,7.054" transform="translate(120.861 266.751)" fill="#07ee2e"/>
      <path id="Trazado_15848" data-name="Trazado 15848" d="M334.381,728.256l-12.432-17.8a6.653,6.653,0,0,1,0-7.634l12.432-17.8a1.307,1.307,0,0,1,2.378.748v41.736a1.308,1.308,0,0,1-2.378.749" transform="translate(127.701 272.504)" fill="#07ee2e"/>
      <path id="Trazado_15849" data-name="Trazado 15849" d="M288.844,685.019l12.485,17.761a6.665,6.665,0,0,1,.025,7.634l-12.382,17.839a1.3,1.3,0,0,1-2.373-.738l-.13-41.737a1.305,1.305,0,0,1,2.374-.758" transform="translate(114.055 272.504)" fill="#07ee2e"/>
      <path id="Trazado_15850" data-name="Trazado 15850" d="M316.2,763.823a8.825,8.825,0,0,1-7.226-3.768l-14.811-21.2a8.842,8.842,0,0,1,0-10.089l14.811-21.207a8.814,8.814,0,0,1,14.451,0l14.806,21.207a8.849,8.849,0,0,1,0,10.089h0l-14.806,21.2a8.825,8.825,0,0,1-7.226,3.768m0-55.74a4.45,4.45,0,0,0-3.7,1.935l-14.816,21.2a4.546,4.546,0,0,0,0,5.179l14.81,21.2a4.658,4.658,0,0,0,7.41,0l14.811-21.2a4.541,4.541,0,0,0,0-5.179l-14.811-21.2a4.456,4.456,0,0,0-3.7-1.935" transform="translate(116.487 280.2)" fill="#07ee2e"/>
      <path id="Trazado_15851" data-name="Trazado 15851" d="M311.419,718.69l-.8.253A30.621,30.621,0,0,0,303.7,727.1l-.138,1.162a23.918,23.918,0,0,0,7.549,7.143l1.119-.383c1.776-1.376,5.641-5.467,6.6-8.024l.236-1.256c-1.523-2.61-5.629-6.473-7.646-7.054" transform="translate(120.861 286.132)" fill="#07ee2e"/>
      <path id="Trazado_15852" data-name="Trazado 15852" d="M287.345,779.706a2.12,2.12,0,0,1-1.226-.387,2.143,2.143,0,0,1-.528-2.989l12.063-17.275a3.292,3.292,0,0,0,0-3.762l-12.063-17.276a2.146,2.146,0,1,1,3.518-2.459l12.067,17.278a7.6,7.6,0,0,1,0,8.68l-12.067,17.27a2.141,2.141,0,0,1-1.763.921" transform="translate(113.55 292.482)" fill="#07ee2e"/>
      <path id="Trazado_15853" data-name="Trazado 15853" d="M336.909,779.707a2.128,2.128,0,0,1-1.759-.921l-12.072-17.27a7.6,7.6,0,0,1,0-8.68l12.072-17.278a2.146,2.146,0,1,1,3.518,2.459L326.6,755.292a3.292,3.292,0,0,0,0,3.762l12.067,17.275a2.148,2.148,0,0,1-.533,2.989,2.12,2.12,0,0,1-1.226.387" transform="translate(128.088 292.482)" fill="#07ee2e"/>
      <path id="Trazado_15854" data-name="Trazado 15854" d="M316.2,815.558a8.816,8.816,0,0,1-7.228-3.772l-14.808-21.2a8.835,8.835,0,0,1,0-10.089l14.811-21.2a8.812,8.812,0,0,1,14.451,0l14.81,21.206a8.842,8.842,0,0,1,0,10.085h0l-14.806,21.2a8.807,8.807,0,0,1-7.226,3.772m0-55.735a4.467,4.467,0,0,0-3.708,1.927l-14.81,21.207a4.537,4.537,0,0,0,0,5.173l14.81,21.2a4.648,4.648,0,0,0,7.41,0l14.811-21.2a4.528,4.528,0,0,0,0-5.17L319.9,761.749a4.455,4.455,0,0,0-3.7-1.927" transform="translate(116.487 300.798)" fill="#07ee2e"/>
      <path id="Trazado_15855" data-name="Trazado 15855" d="M303.566,777.477l.24,1.251c.951,2.564,4.822,6.648,6.592,8.028l1.124.385a23.878,23.878,0,0,0,7.543-7.147l-.138-1.162a30.8,30.8,0,0,0-6.907-8.158l-.808-.25c-2.013.576-6.124,4.448-7.646,7.054" transform="translate(120.861 306.729)" fill="#07ee2e"/>
      <path id="Trazado_15856" data-name="Trazado 15856" d="M334.381,828.668l-12.432-17.8a6.647,6.647,0,0,1,0-7.63l12.432-17.805a1.308,1.308,0,0,1,2.378.75v41.74a1.308,1.308,0,0,1-2.378.749" transform="translate(127.701 312.481)" fill="#07ee2e"/>
      <path id="Trazado_15857" data-name="Trazado 15857" d="M288.844,785.431l12.485,17.76a6.665,6.665,0,0,1,.025,7.634l-12.382,17.839a1.3,1.3,0,0,1-2.373-.738l-.13-41.743a1.3,1.3,0,0,1,2.374-.752" transform="translate(114.055 312.482)" fill="#07ee2e"/>
      <path id="Trazado_15858" data-name="Trazado 15858" d="M316.2,864.233a8.827,8.827,0,0,1-7.228-3.772l-14.808-21.2a8.835,8.835,0,0,1,0-10.089l14.811-21.2a8.816,8.816,0,0,1,14.451,0l14.806,21.2a8.843,8.843,0,0,1,0,10.095l-14.806,21.2a8.818,8.818,0,0,1-7.226,3.772m0-55.74a4.45,4.45,0,0,0-3.7,1.935l-14.816,21.2a4.533,4.533,0,0,0,0,5.17l14.81,21.2a4.647,4.647,0,0,0,7.41,0l14.811-21.2a4.528,4.528,0,0,0,0-5.17l-14.811-21.2a4.456,4.456,0,0,0-3.7-1.935" transform="translate(116.487 320.178)" fill="#07ee2e"/>
      <path id="Trazado_15859" data-name="Trazado 15859" d="M311.419,819.1l-.8.25a30.72,30.72,0,0,0-6.911,8.157l-.138,1.16a23.934,23.934,0,0,0,7.549,7.149l1.119-.383c1.776-1.38,5.641-5.47,6.6-8.03l.236-1.25c-1.523-2.61-5.629-6.478-7.646-7.054" transform="translate(120.861 326.109)" fill="#07ee2e"/>
      <path id="Trazado_15860" data-name="Trazado 15860" d="M287.346,880.119a2.12,2.12,0,0,1-1.226-.387,2.144,2.144,0,0,1-.528-2.989l12.063-17.278a3.288,3.288,0,0,0,0-3.76l-12.067-17.28a2.148,2.148,0,1,1,3.522-2.461l12.072,17.281a7.618,7.618,0,0,1,0,8.682L289.109,879.2a2.145,2.145,0,0,1-1.763.921" transform="translate(113.549 332.459)" fill="#07ee2e"/>
      <path id="Trazado_15861" data-name="Trazado 15861" d="M336.909,880.12a2.132,2.132,0,0,1-1.759-.921l-12.072-17.27a7.611,7.611,0,0,1,0-8.682l12.067-17.281a2.148,2.148,0,1,1,3.522,2.461l-12.062,17.28a3.269,3.269,0,0,0,0,3.76l12.062,17.278a2.149,2.149,0,0,1-.533,2.989,2.12,2.12,0,0,1-1.226.387" transform="translate(128.088 332.458)" fill="#07ee2e"/>
      <path id="Trazado_15862" data-name="Trazado 15862" d="M316.2,915.97a8.816,8.816,0,0,1-7.228-3.772L294.16,891a8.842,8.842,0,0,1,0-10.089l14.811-21.2a8.806,8.806,0,0,1,14.451,0l14.806,21.2a8.849,8.849,0,0,1,0,10.089h0l-14.806,21.2a8.807,8.807,0,0,1-7.226,3.772m0-55.744a4.45,4.45,0,0,0-3.7,1.935l-14.816,21.2a4.546,4.546,0,0,0,0,5.179l14.81,21.2a4.648,4.648,0,0,0,7.41,0l14.811-21.2a4.541,4.541,0,0,0,0-5.179l-14.811-21.2a4.456,4.456,0,0,0-3.7-1.935" transform="translate(116.487 340.774)" fill="#07ee2e"/>
      <path id="Trazado_15863" data-name="Trazado 15863" d="M303.566,877.888l.24,1.251c.951,2.564,4.822,6.648,6.592,8.03l1.124.379a23.8,23.8,0,0,0,7.543-7.143l-.138-1.162a30.731,30.731,0,0,0-6.907-8.158l-.808-.253c-2.013.579-6.124,4.446-7.646,7.057" transform="translate(120.861 346.705)" fill="#07ee2e"/>
      <path id="Trazado_15864" data-name="Trazado 15864" d="M334.381,929.076l-12.432-17.8a6.653,6.653,0,0,1,0-7.634l12.432-17.8a1.308,1.308,0,0,1,2.378.748v41.736a1.307,1.307,0,0,1-2.378.749" transform="translate(127.701 352.459)" fill="#07ee2e"/>
      <path id="Trazado_15865" data-name="Trazado 15865" d="M288.844,885.84l12.485,17.766a6.665,6.665,0,0,1,.025,7.634l-12.382,17.839a1.3,1.3,0,0,1-2.373-.744l-.13-41.737a1.306,1.306,0,0,1,2.374-.758" transform="translate(114.055 352.459)" fill="#07ee2e"/>
      <path id="Trazado_15866" data-name="Trazado 15866" d="M316.2,964.646a8.83,8.83,0,0,1-7.228-3.771l-14.808-21.2a8.841,8.841,0,0,1,0-10.093l14.811-21.2a8.818,8.818,0,0,1,14.451,0l14.81,21.206a8.849,8.849,0,0,1,0,10.089h0l-14.806,21.2a8.821,8.821,0,0,1-7.226,3.771m0-55.74a4.481,4.481,0,0,0-3.708,1.927l-14.81,21.21a4.537,4.537,0,0,0,0,5.173l14.81,21.2a4.645,4.645,0,0,0,7.41,0l14.811-21.2a4.532,4.532,0,0,0,0-5.173L319.9,910.833a4.469,4.469,0,0,0-3.7-1.927" transform="translate(116.487 360.155)" fill="#07ee2e"/>
      <path id="Trazado_15867" data-name="Trazado 15867" d="M311.419,919.51l-.8.253a30.685,30.685,0,0,0-6.911,8.158l-.138,1.162a23.871,23.871,0,0,0,7.549,7.143l1.119-.378c1.776-1.381,5.641-5.472,6.6-8.029l.236-1.256c-1.523-2.61-5.629-6.473-7.646-7.054" transform="translate(120.861 366.086)" fill="#07ee2e"/>
      <path id="Trazado_15868" data-name="Trazado 15868" d="M287.346,980.065a2.119,2.119,0,0,1-1.226-.387,2.144,2.144,0,0,1-.528-2.989l12.063-17.278a3.288,3.288,0,0,0,0-3.76l-12.067-17.28a2.148,2.148,0,1,1,3.522-2.461l12.072,17.281a7.611,7.611,0,0,1,0,8.682l-12.067,17.27a2.145,2.145,0,0,1-1.763.921" transform="translate(113.549 372.251)" fill="#07ee2e"/>
      <path id="Trazado_15869" data-name="Trazado 15869" d="M336.909,980.066a2.132,2.132,0,0,1-1.759-.921l-12.072-17.27a7.6,7.6,0,0,1,0-8.682l12.067-17.281a2.148,2.148,0,1,1,3.522,2.461l-12.062,17.28a3.279,3.279,0,0,0-.006,3.76l12.067,17.278a2.149,2.149,0,0,1-.533,2.989,2.119,2.119,0,0,1-1.226.387" transform="translate(128.088 372.25)" fill="#07ee2e"/>
      <path id="Trazado_15870" data-name="Trazado 15870" d="M316.2,1015.915a8.829,8.829,0,0,1-7.228-3.771l-14.808-21.2a8.842,8.842,0,0,1,0-10.089l14.811-21.2a8.814,8.814,0,0,1,14.451,0l14.806,21.2a8.849,8.849,0,0,1,0,10.089h0l-14.806,21.2a8.821,8.821,0,0,1-7.226,3.771m0-55.74a4.472,4.472,0,0,0-3.708,1.932l-14.81,21.2a4.541,4.541,0,0,0,0,5.176l14.81,21.2a4.645,4.645,0,0,0,7.41,0l14.811-21.2a4.537,4.537,0,0,0,0-5.176l-14.811-21.2a4.46,4.46,0,0,0-3.7-1.932" transform="translate(116.487 380.567)" fill="#07ee2e"/>
      <path id="Trazado_15871" data-name="Trazado 15871" d="M303.566,977.835l.24,1.251c.951,2.564,4.822,6.648,6.592,8.029l1.124.379a23.8,23.8,0,0,0,7.543-7.143l-.138-1.162a30.735,30.735,0,0,0-6.907-8.158l-.808-.253c-2.013.579-6.124,4.446-7.646,7.056" transform="translate(120.861 386.498)" fill="#07ee2e"/>
      <path id="Trazado_15872" data-name="Trazado 15872" d="M334.381,1029.022l-12.432-17.8a6.653,6.653,0,0,1,0-7.634l12.432-17.8a1.308,1.308,0,0,1,2.378.749v41.734a1.307,1.307,0,0,1-2.378.749" transform="translate(127.701 392.251)" fill="#07ee2e"/>
      <path id="Trazado_15873" data-name="Trazado 15873" d="M288.844,985.786l12.485,17.766a6.665,6.665,0,0,1,.025,7.634l-12.382,17.839a1.3,1.3,0,0,1-2.373-.744l-.13-41.737a1.306,1.306,0,0,1,2.374-.758" transform="translate(114.055 392.251)" fill="#07ee2e"/>
      <path id="Trazado_15874" data-name="Trazado 15874" d="M316.2,1064.592a8.828,8.828,0,0,1-7.228-3.769l-14.808-21.2a8.841,8.841,0,0,1,0-10.093l14.811-21.2a8.808,8.808,0,0,1,14.451,0l14.806,21.2a8.844,8.844,0,0,1,0,10.09h0l-14.806,21.2a8.819,8.819,0,0,1-7.226,3.769m0-55.738a4.457,4.457,0,0,0-3.7,1.931l-14.816,21.2a4.541,4.541,0,0,0,0,5.176l14.81,21.2a4.645,4.645,0,0,0,7.41,0l14.811-21.2a4.535,4.535,0,0,0,0-5.175l-14.811-21.2a4.462,4.462,0,0,0-3.7-1.931" transform="translate(116.487 399.946)" fill="#07ee2e"/>
      <path id="Trazado_15875" data-name="Trazado 15875" d="M311.419,1019.456l-.8.253a30.688,30.688,0,0,0-6.911,8.158l-.138,1.162a23.869,23.869,0,0,0,7.549,7.143l1.119-.377c1.776-1.381,5.641-5.472,6.6-8.03l.236-1.256c-1.523-2.61-5.629-6.473-7.646-7.054" transform="translate(120.861 405.878)" fill="#07ee2e"/>
      <path id="Trazado_15876" data-name="Trazado 15876" d="M287.345,1080.474a2.14,2.14,0,0,1-1.755-3.371l12.063-17.281a3.3,3.3,0,0,0,0-3.767l-12.063-17.271a2.146,2.146,0,1,1,3.518-2.459l12.067,17.276a7.611,7.611,0,0,1,0,8.682l-12.072,17.275a2.143,2.143,0,0,1-1.763.916" transform="translate(113.55 412.229)" fill="#07ee2e"/>
      <path id="Trazado_15877" data-name="Trazado 15877" d="M336.908,1080.475a2.13,2.13,0,0,1-1.759-.916l-12.072-17.275a7.618,7.618,0,0,1,0-8.682l12.072-17.276a2.146,2.146,0,1,1,3.518,2.459L326.6,1056.056a3.29,3.29,0,0,0,.006,3.767l12.062,17.281a2.143,2.143,0,0,1-1.759,3.371" transform="translate(128.089 412.229)" fill="#07ee2e"/>
      <path id="Trazado_15878" data-name="Trazado 15878" d="M316.2,1116.323a8.828,8.828,0,0,1-7.226-3.767l-14.811-21.2a8.851,8.851,0,0,1,0-10.094l14.811-21.2a8.814,8.814,0,0,1,14.451,0l14.806,21.2a8.858,8.858,0,0,1,0,10.094h0l-14.806,21.2a8.828,8.828,0,0,1-7.226,3.767m0-55.74a4.45,4.45,0,0,0-3.7,1.935l-14.816,21.2a4.546,4.546,0,0,0,0,5.179l14.81,21.2a4.658,4.658,0,0,0,7.41,0l14.811-21.2a4.541,4.541,0,0,0,0-5.179l-14.811-21.2a4.456,4.456,0,0,0-3.7-1.935" transform="translate(116.487 420.544)" fill="#07ee2e"/>
      <path id="Trazado_15879" data-name="Trazado 15879" d="M303.566,1078.243l.24,1.255c.951,2.563,4.822,6.65,6.592,8.024l1.124.385a23.822,23.822,0,0,0,7.543-7.144l-.138-1.165a30.7,30.7,0,0,0-6.907-8.153l-.808-.256c-2.013.582-6.124,4.448-7.646,7.054" transform="translate(120.861 426.475)" fill="#07ee2e"/>
      <path id="Trazado_15880" data-name="Trazado 15880" d="M334.381,1129.435l-12.432-17.8a6.653,6.653,0,0,1,0-7.634l12.432-17.8a1.306,1.306,0,0,1,2.378.749v41.734a1.308,1.308,0,0,1-2.378.75" transform="translate(127.701 432.228)" fill="#07ee2e"/>
      <path id="Trazado_15881" data-name="Trazado 15881" d="M288.844,1086.2l12.485,17.76a6.665,6.665,0,0,1,.025,7.634l-12.382,17.839a1.3,1.3,0,0,1-2.373-.738l-.13-41.739a1.305,1.305,0,0,1,2.374-.756" transform="translate(114.055 432.228)" fill="#07ee2e"/>
      <path id="Trazado_15882" data-name="Trazado 15882" d="M316.2,1165a8.827,8.827,0,0,1-7.228-3.772l-14.808-21.2a8.848,8.848,0,0,1,0-10.093l14.811-21.2a8.812,8.812,0,0,1,14.451,0l14.806,21.2a8.856,8.856,0,0,1,0,10.093h0l-14.806,21.2A8.818,8.818,0,0,1,316.2,1165m0-55.739a4.481,4.481,0,0,0-3.708,1.927l-14.81,21.2a4.55,4.55,0,0,0,0,5.181l14.81,21.2a4.647,4.647,0,0,0,7.41,0l14.811-21.2a4.546,4.546,0,0,0,0-5.181l-14.811-21.2a4.469,4.469,0,0,0-3.7-1.927" transform="translate(116.487 439.924)" fill="#07ee2e"/>
      <path id="Trazado_15883" data-name="Trazado 15883" d="M311.419,1119.868l-.8.253a30.662,30.662,0,0,0-6.911,8.154l-.138,1.166a23.916,23.916,0,0,0,7.549,7.143l1.119-.383c1.776-1.376,5.641-5.467,6.6-8.024l.236-1.256c-1.523-2.61-5.629-6.473-7.646-7.053" transform="translate(120.861 445.856)" fill="#07ee2e"/>
      <path id="Trazado_15884" data-name="Trazado 15884" d="M287.345,1180.885a2.119,2.119,0,0,1-1.226-.387,2.143,2.143,0,0,1-.528-2.989l12.063-17.275a3.3,3.3,0,0,0,0-3.767L285.591,1139.2a2.146,2.146,0,1,1,3.518-2.459l12.067,17.275a7.611,7.611,0,0,1,0,8.682l-12.072,17.275a2.15,2.15,0,0,1-1.763.916" transform="translate(113.55 452.207)" fill="#07ee2e"/>
      <path id="Trazado_15885" data-name="Trazado 15885" d="M336.908,1180.886a2.137,2.137,0,0,1-1.759-.916l-12.072-17.275a7.618,7.618,0,0,1,0-8.682l12.072-17.275a2.146,2.146,0,1,1,3.518,2.459L326.6,1156.467a3.29,3.29,0,0,0,.006,3.767l12.062,17.275a2.147,2.147,0,0,1-.533,2.989,2.119,2.119,0,0,1-1.226.387" transform="translate(128.089 452.206)" fill="#07ee2e"/>
      <path id="Trazado_15886" data-name="Trazado 15886" d="M316.2,1216.735a8.827,8.827,0,0,1-7.228-3.772l-14.808-21.2a8.834,8.834,0,0,1,0-10.089l14.811-21.2a8.814,8.814,0,0,1,14.451,0l14.806,21.2a8.843,8.843,0,0,1,0,10.094l-14.806,21.2a8.818,8.818,0,0,1-7.226,3.772m0-55.74a4.457,4.457,0,0,0-3.7,1.931l-14.816,21.206a4.532,4.532,0,0,0,0,5.17l14.81,21.207a4.65,4.65,0,0,0,7.41,0l14.811-21.207a4.528,4.528,0,0,0,0-5.17L319.9,1162.926a4.462,4.462,0,0,0-3.7-1.931" transform="translate(116.487 460.521)" fill="#07ee2e"/>
      <path id="Trazado_15887" data-name="Trazado 15887" d="M303.566,1178.655l.24,1.251c.951,2.564,4.822,6.648,6.592,8.03l1.124.383a23.864,23.864,0,0,0,7.543-7.147l-.138-1.162a30.822,30.822,0,0,0-6.907-8.158l-.808-.25c-2.013.576-6.124,4.448-7.646,7.054" transform="translate(120.861 466.453)" fill="#07ee2e"/>
      <path id="Trazado_15888" data-name="Trazado 15888" d="M334.381,1229.846l-12.432-17.8a6.653,6.653,0,0,1,0-7.634l12.432-17.8a1.308,1.308,0,0,1,2.378.75v41.74a1.308,1.308,0,0,1-2.378.749" transform="translate(127.701 472.205)" fill="#07ee2e"/>
      <path id="Trazado_15889" data-name="Trazado 15889" d="M288.844,1186.606l12.485,17.766a6.665,6.665,0,0,1,.025,7.634l-12.382,17.839a1.3,1.3,0,0,1-2.373-.744l-.13-41.739a1.307,1.307,0,0,1,2.374-.756" transform="translate(114.055 472.206)" fill="#07ee2e"/>
      <path id="Trazado_15890" data-name="Trazado 15890" d="M316.2,1265.409a8.824,8.824,0,0,1-7.226-3.762l-14.811-21.2a8.851,8.851,0,0,1,0-10.094l14.811-21.2a8.808,8.808,0,0,1,14.451,0l14.806,21.2a8.858,8.858,0,0,1,0,10.094h0l-14.806,21.2a8.824,8.824,0,0,1-7.226,3.762m0-55.735a4.457,4.457,0,0,0-3.7,1.931l-14.816,21.2a4.544,4.544,0,0,0,0,5.177l14.81,21.206a4.658,4.658,0,0,0,7.41,0l14.811-21.206a4.539,4.539,0,0,0,0-5.177L319.9,1211.6a4.462,4.462,0,0,0-3.7-1.931" transform="translate(116.487 479.9)" fill="#07ee2e"/>
      <path id="Trazado_15891" data-name="Trazado 15891" d="M311.419,1220.279l-.8.25a30.72,30.72,0,0,0-6.911,8.157l-.138,1.16a23.932,23.932,0,0,0,7.549,7.149l1.119-.383c1.776-1.38,5.641-5.47,6.6-8.03l.236-1.25c-1.523-2.61-5.629-6.477-7.646-7.053" transform="translate(120.861 485.833)" fill="#07ee2e"/>
      <path id="Trazado_15892" data-name="Trazado 15892" d="M287.345,1281.292a2.121,2.121,0,0,1-1.226-.387,2.143,2.143,0,0,1-.528-2.989l12.063-17.275a3.293,3.293,0,0,0,0-3.762l-12.063-17.27a2.146,2.146,0,1,1,3.518-2.461l12.067,17.274a7.6,7.6,0,0,1,0,8.68l-12.067,17.275a2.15,2.15,0,0,1-1.763.916" transform="translate(113.55 492.185)" fill="#07ee2e"/>
      <path id="Trazado_15893" data-name="Trazado 15893" d="M336.909,1281.292a2.137,2.137,0,0,1-1.759-.916L323.079,1263.1a7.6,7.6,0,0,1,0-8.679l12.072-17.274a2.147,2.147,0,1,1,3.518,2.461l-12.067,17.27a3.292,3.292,0,0,0,0,3.762l12.067,17.276a2.147,2.147,0,0,1-.533,2.989,2.119,2.119,0,0,1-1.226.387" transform="translate(128.088 492.184)" fill="#07ee2e"/>
      <path id="Trazado_15894" data-name="Trazado 15894" d="M316.2,1317.148a8.827,8.827,0,0,1-7.228-3.772l-14.808-21.2a8.841,8.841,0,0,1,0-10.093l14.811-21.2a8.812,8.812,0,0,1,14.451,0l14.81,21.206a8.849,8.849,0,0,1,0,10.089h0l-14.806,21.2a8.818,8.818,0,0,1-7.226,3.772m0-55.74a4.481,4.481,0,0,0-3.708,1.927l-14.81,21.207a4.542,4.542,0,0,0,0,5.176l14.81,21.2a4.647,4.647,0,0,0,7.41,0l14.811-21.2a4.532,4.532,0,0,0,0-5.173l-14.811-21.21a4.469,4.469,0,0,0-3.7-1.927" transform="translate(116.487 500.498)" fill="#07ee2e"/>
      <path id="Trazado_15895" data-name="Trazado 15895" d="M303.566,1279.064l.24,1.255c.951,2.563,4.822,6.65,6.592,8.03l1.124.379a23.839,23.839,0,0,0,7.543-7.144l-.138-1.161a30.658,30.658,0,0,0-6.907-8.157l-.808-.256c-2.013.582-6.124,4.448-7.646,7.054" transform="translate(120.861 506.429)" fill="#07ee2e"/>
      <path id="Trazado_15896" data-name="Trazado 15896" d="M334.381,1330.254l-12.432-17.8a6.653,6.653,0,0,1,0-7.634l12.432-17.8a1.307,1.307,0,0,1,2.378.748V1329.5a1.307,1.307,0,0,1-2.378.749" transform="translate(127.701 512.182)" fill="#07ee2e"/>
      <path id="Trazado_15897" data-name="Trazado 15897" d="M288.844,1287.018l12.485,17.761a6.665,6.665,0,0,1,.025,7.634l-12.382,17.839a1.3,1.3,0,0,1-2.373-.738l-.13-41.739a1.306,1.306,0,0,1,2.374-.756" transform="translate(114.055 512.183)" fill="#07ee2e"/>
      <path id="Trazado_15898" data-name="Trazado 15898" d="M316.2,1365.821a8.824,8.824,0,0,1-7.226-3.762l-14.811-21.207a8.834,8.834,0,0,1,0-10.089l14.811-21.2a8.808,8.808,0,0,1,14.451,0l14.806,21.2a8.849,8.849,0,0,1,0,10.089l-14.81,21.207a8.824,8.824,0,0,1-7.226,3.762m0-55.735a4.443,4.443,0,0,0-3.7,1.931l-14.816,21.2a4.528,4.528,0,0,0,0,5.167l14.816,21.21a4.646,4.646,0,0,0,7.4,0l14.811-21.21a4.523,4.523,0,0,0,0-5.167l-14.811-21.2a4.448,4.448,0,0,0-3.7-1.931" transform="translate(116.487 519.878)" fill="#07ee2e"/>
      <path id="Trazado_15899" data-name="Trazado 15899" d="M311.419,1320.689l-.8.253a30.62,30.62,0,0,0-6.911,8.158l-.138,1.162a23.919,23.919,0,0,0,7.549,7.143l1.119-.378c1.776-1.381,5.641-5.472,6.6-8.03l.236-1.255c-1.523-2.61-5.629-6.473-7.646-7.054" transform="translate(120.861 525.81)" fill="#07ee2e"/>
      <path id="Trazado_15900" data-name="Trazado 15900" d="M287.346,1381.7a2.12,2.12,0,0,1-1.226-.387,2.143,2.143,0,0,1-.528-2.989l12.063-17.276a3.292,3.292,0,0,0,0-3.762l-12.067-17.276a2.148,2.148,0,1,1,3.522-2.459l12.072,17.278a7.614,7.614,0,0,1,0,8.68l-12.072,17.27a2.141,2.141,0,0,1-1.763.921" transform="translate(113.549 532.161)" fill="#07ee2e"/>
      <path id="Trazado_15901" data-name="Trazado 15901" d="M336.909,1381.706a2.128,2.128,0,0,1-1.759-.921l-12.072-17.27a7.607,7.607,0,0,1,0-8.68l12.067-17.278a2.148,2.148,0,1,1,3.522,2.459l-12.062,17.276a3.273,3.273,0,0,0,0,3.762l12.062,17.275a2.148,2.148,0,0,1-.533,2.989,2.121,2.121,0,0,1-1.226.387" transform="translate(128.088 532.16)" fill="#07ee2e"/>
      <path id="Trazado_15902" data-name="Trazado 15902" d="M316.2,1417.561a8.83,8.83,0,0,1-7.228-3.771l-14.808-21.2a8.851,8.851,0,0,1,0-10.094l14.811-21.2a8.808,8.808,0,0,1,14.451,0l14.806,21.2a8.858,8.858,0,0,1,0,10.094h0l-14.806,21.2a8.821,8.821,0,0,1-7.226,3.771m0-55.744a4.457,4.457,0,0,0-3.7,1.931l-14.816,21.2a4.55,4.55,0,0,0,0,5.181l14.81,21.2a4.647,4.647,0,0,0,7.41,0l14.811-21.2a4.546,4.546,0,0,0,0-5.181l-14.811-21.2a4.463,4.463,0,0,0-3.7-1.931" transform="translate(116.487 540.475)" fill="#07ee2e"/>
      <path id="Trazado_15903" data-name="Trazado 15903" d="M303.566,1379.474l.24,1.256c.951,2.563,4.822,6.644,6.592,8.024l1.124.385a23.863,23.863,0,0,0,7.543-7.147l-.138-1.162a30.76,30.76,0,0,0-6.907-8.155l-.808-.253c-2.013.582-6.124,4.448-7.646,7.053" transform="translate(120.861 546.407)" fill="#07ee2e"/>
      <path id="Trazado_15904" data-name="Trazado 15904" d="M334.381,1430.667l-12.432-17.8a6.653,6.653,0,0,1,0-7.634l12.432-17.805a1.308,1.308,0,0,1,2.378.75v41.74a1.308,1.308,0,0,1-2.378.749" transform="translate(127.701 552.159)" fill="#07ee2e"/>
      <path id="Trazado_15905" data-name="Trazado 15905" d="M288.844,1387.43l12.485,17.76a6.665,6.665,0,0,1,.025,7.634l-12.382,17.839a1.3,1.3,0,0,1-2.373-.738l-.13-41.743a1.3,1.3,0,0,1,2.374-.752" transform="translate(114.055 552.16)" fill="#07ee2e"/>
      <path id="Trazado_15906" data-name="Trazado 15906" d="M316.2,1466.232a8.816,8.816,0,0,1-7.228-3.772l-14.808-21.2a8.835,8.835,0,0,1,0-10.089l14.811-21.2a8.812,8.812,0,0,1,14.451,0l14.81,21.206a8.842,8.842,0,0,1,0,10.085h0l-14.806,21.2a8.808,8.808,0,0,1-7.226,3.772m0-55.735a4.467,4.467,0,0,0-3.708,1.927l-14.81,21.207a4.537,4.537,0,0,0,0,5.173l14.81,21.2a4.648,4.648,0,0,0,7.41,0l14.811-21.2a4.528,4.528,0,0,0,0-5.17l-14.811-21.21a4.455,4.455,0,0,0-3.7-1.927" transform="translate(116.487 559.856)" fill="#07ee2e"/>
      <path id="Trazado_15907" data-name="Trazado 15907" d="M311.419,1421.1l-.8.253a30.659,30.659,0,0,0-6.911,8.154l-.138,1.16a23.935,23.935,0,0,0,7.549,7.149l1.119-.383c1.776-1.38,5.641-5.467,6.6-8.024l.236-1.256c-1.523-2.61-5.629-6.473-7.646-7.054" transform="translate(120.861 565.788)" fill="#07ee2e"/>
      <path id="Trazado_15908" data-name="Trazado 15908" d="M287.345,1482.118a2.121,2.121,0,0,1-1.226-.387,2.143,2.143,0,0,1-.528-2.989l12.063-17.275a3.3,3.3,0,0,0,0-3.767l-12.063-17.271a2.148,2.148,0,1,1,3.518-2.465l12.067,17.281a7.611,7.611,0,0,1,0,8.682l-12.072,17.27a2.141,2.141,0,0,1-1.763.921" transform="translate(113.55 572.139)" fill="#07ee2e"/>
      <path id="Trazado_15909" data-name="Trazado 15909" d="M336.908,1482.119a2.128,2.128,0,0,1-1.759-.921l-12.072-17.27a7.618,7.618,0,0,1,0-8.682l12.072-17.281a2.148,2.148,0,0,1,3.518,2.465L326.6,1457.7a3.29,3.29,0,0,0,.006,3.767l12.062,17.275a2.148,2.148,0,0,1-.533,2.989,2.121,2.121,0,0,1-1.226.387" transform="translate(128.089 572.138)" fill="#07ee2e"/>
      <path id="Trazado_15910" data-name="Trazado 15910" d="M316.2,1517.964a8.823,8.823,0,0,1-7.226-3.762l-14.811-21.207a8.835,8.835,0,0,1,0-10.089l14.811-21.2a8.808,8.808,0,0,1,14.451,0l14.806,21.2a8.849,8.849,0,0,1,0,10.089l-14.81,21.207a8.823,8.823,0,0,1-7.226,3.762m0-55.735a4.457,4.457,0,0,0-3.7,1.931l-14.816,21.2a4.528,4.528,0,0,0,0,5.167l14.816,21.216a4.652,4.652,0,0,0,7.4,0l14.811-21.216a4.523,4.523,0,0,0,0-5.167l-14.811-21.2a4.462,4.462,0,0,0-3.7-1.931" transform="translate(116.487 580.452)" fill="#07ee2e"/>
      <path id="Trazado_15911" data-name="Trazado 15911" d="M303.566,1479.887l.24,1.251c.951,2.564,4.822,6.648,6.592,8.03l1.124.383a23.879,23.879,0,0,0,7.543-7.147l-.138-1.162a30.825,30.825,0,0,0-6.907-8.158l-.808-.25c-2.013.576-6.124,4.443-7.646,7.053" transform="translate(120.861 586.385)" fill="#07ee2e"/>
      <path id="Trazado_15912" data-name="Trazado 15912" d="M334.381,1531.075l-12.432-17.8a6.653,6.653,0,0,1,0-7.634l12.432-17.8a1.308,1.308,0,0,1,2.378.75v41.734a1.307,1.307,0,0,1-2.378.75" transform="translate(127.701 592.137)" fill="#07ee2e"/>
      <path id="Trazado_15913" data-name="Trazado 15913" d="M288.844,1487.839l12.485,17.766a6.665,6.665,0,0,1,.025,7.634l-12.382,17.839a1.3,1.3,0,0,1-2.373-.744l-.13-41.739a1.306,1.306,0,0,1,2.374-.756" transform="translate(114.055 592.137)" fill="#07ee2e"/>
      <path id="Trazado_15914" data-name="Trazado 15914" d="M316.2,1566.645a8.817,8.817,0,0,1-7.228-3.772l-14.808-21.2a8.842,8.842,0,0,1,0-10.089l14.811-21.2a8.814,8.814,0,0,1,14.451,0l14.806,21.2a8.849,8.849,0,0,1,0,10.089h0l-14.806,21.2a8.808,8.808,0,0,1-7.226,3.772m0-55.74a4.474,4.474,0,0,0-3.708,1.931l-14.81,21.2a4.542,4.542,0,0,0,0,5.176l14.81,21.2a4.646,4.646,0,0,0,7.41,0l14.811-21.2a4.537,4.537,0,0,0,0-5.176l-14.811-21.2a4.462,4.462,0,0,0-3.7-1.931" transform="translate(116.487 599.834)" fill="#07ee2e"/>
      <path id="Trazado_15915" data-name="Trazado 15915" d="M311.419,1521.512l-.8.25a30.706,30.706,0,0,0-6.911,8.158l-.138,1.159a23.932,23.932,0,0,0,7.549,7.149l1.119-.383c1.776-1.38,5.641-5.469,6.6-8.029l.236-1.25c-1.523-2.616-5.629-6.478-7.646-7.054" transform="translate(120.861 605.766)" fill="#07ee2e"/>
      <path id="Trazado_15916" data-name="Trazado 15916" d="M287.346,1582.529a2.119,2.119,0,0,1-1.226-.387,2.148,2.148,0,0,1-.533-2.989l12.067-17.278a3.3,3.3,0,0,0,0-3.764l-12.063-17.271a2.148,2.148,0,1,1,3.518-2.465l12.067,17.281a7.6,7.6,0,0,1,0,8.678l-12.067,17.274a2.141,2.141,0,0,1-1.763.921" transform="translate(113.549 612.116)" fill="#07ee2e"/>
      <path id="Trazado_15917" data-name="Trazado 15917" d="M336.909,1582.531a2.141,2.141,0,0,1-1.763-.921l-12.067-17.274a7.6,7.6,0,0,1,0-8.678l12.072-17.281a2.148,2.148,0,0,1,3.518,2.465L326.6,1558.112a3.3,3.3,0,0,0,0,3.764l12.067,17.278a2.148,2.148,0,0,1-.533,2.989,2.119,2.119,0,0,1-1.226.387" transform="translate(128.088 612.115)" fill="#07ee2e"/>
      <path id="Trazado_15918" data-name="Trazado 15918" d="M316.2,1618.376a8.823,8.823,0,0,1-7.228-3.768l-14.808-21.2a8.834,8.834,0,0,1,0-10.089l14.811-21.2a8.808,8.808,0,0,1,14.451,0l14.806,21.2a8.841,8.841,0,0,1,0,10.093l-14.806,21.2a8.814,8.814,0,0,1-7.226,3.768m0-55.735a4.443,4.443,0,0,0-3.7,1.931l-14.816,21.2a4.528,4.528,0,0,0,0,5.168l14.81,21.207a4.643,4.643,0,0,0,7.41,0l14.811-21.207a4.524,4.524,0,0,0,0-5.168l-14.811-21.2a4.448,4.448,0,0,0-3.7-1.931" transform="translate(116.487 620.43)" fill="#07ee2e"/>
      <path id="Trazado_15919" data-name="Trazado 15919" d="M303.566,1580.3l.24,1.256c.951,2.563,4.822,6.649,6.592,8.025l1.124.383a23.838,23.838,0,0,0,7.543-7.145l-.138-1.16a30.655,30.655,0,0,0-6.907-8.157l-.808-.256c-2.013.582-6.124,4.448-7.646,7.053" transform="translate(120.861 626.361)" fill="#07ee2e"/>
      <path id="Trazado_15920" data-name="Trazado 15920" d="M334.381,1631.487l-12.432-17.8a6.653,6.653,0,0,1,0-7.634l12.432-17.8a1.307,1.307,0,0,1,2.378.748v41.736a1.308,1.308,0,0,1-2.378.749" transform="translate(127.701 632.115)" fill="#07ee2e"/>
      <path id="Trazado_15921" data-name="Trazado 15921" d="M288.844,1588.25l12.485,17.761a6.665,6.665,0,0,1,.025,7.634l-12.382,17.839a1.3,1.3,0,0,1-2.373-.738l-.13-41.739a1.305,1.305,0,0,1,2.374-.757" transform="translate(114.055 632.114)" fill="#07ee2e"/>
      <path id="Trazado_15922" data-name="Trazado 15922" d="M316.2,1667.054a8.825,8.825,0,0,1-7.226-3.768l-14.811-21.2a8.842,8.842,0,0,1,0-10.089l14.811-21.207a8.814,8.814,0,0,1,14.451,0L338.228,1632a8.849,8.849,0,0,1,0,10.089h0l-14.806,21.2a8.826,8.826,0,0,1-7.226,3.768m0-55.74a4.45,4.45,0,0,0-3.7,1.935l-14.816,21.2a4.546,4.546,0,0,0,0,5.179l14.81,21.2a4.658,4.658,0,0,0,7.41,0l14.811-21.2a4.541,4.541,0,0,0,0-5.179l-14.811-21.2a4.456,4.456,0,0,0-3.7-1.935" transform="translate(116.487 639.81)" fill="#07ee2e"/>
      <path id="Trazado_15923" data-name="Trazado 15923" d="M311.419,1621.921l-.8.253a30.621,30.621,0,0,0-6.911,8.158l-.138,1.162a23.916,23.916,0,0,0,7.549,7.143l1.119-.383c1.776-1.376,5.641-5.467,6.6-8.024l.236-1.256c-1.523-2.61-5.629-6.473-7.646-7.053" transform="translate(120.861 645.742)" fill="#07ee2e"/>
      <path id="Trazado_15924" data-name="Trazado 15924" d="M287.345,1682.937a2.119,2.119,0,0,1-1.226-.387,2.143,2.143,0,0,1-.528-2.989l12.063-17.275a3.292,3.292,0,0,0,0-3.762l-12.063-17.275a2.146,2.146,0,1,1,3.518-2.459l12.067,17.278a7.6,7.6,0,0,1,0,8.68l-12.067,17.27a2.142,2.142,0,0,1-1.763.922" transform="translate(113.55 652.093)" fill="#07ee2e"/>
      <path id="Trazado_15925" data-name="Trazado 15925" d="M336.909,1682.938a2.128,2.128,0,0,1-1.759-.922l-12.072-17.27a7.6,7.6,0,0,1,0-8.68l12.072-17.278a2.146,2.146,0,1,1,3.518,2.459L326.6,1658.523a3.292,3.292,0,0,0,0,3.762l12.067,17.275a2.148,2.148,0,0,1-.533,2.989,2.119,2.119,0,0,1-1.226.387" transform="translate(128.088 652.092)" fill="#07ee2e"/>
      <path id="Trazado_15926" data-name="Trazado 15926" d="M316.2,1718.789a8.816,8.816,0,0,1-7.228-3.772l-14.808-21.2a8.835,8.835,0,0,1,0-10.089l14.811-21.2a8.812,8.812,0,0,1,14.451,0l14.81,21.206a8.842,8.842,0,0,1,0,10.085h0l-14.806,21.2a8.807,8.807,0,0,1-7.226,3.772m0-55.735a4.467,4.467,0,0,0-3.708,1.927l-14.81,21.207a4.537,4.537,0,0,0,0,5.173l14.81,21.2a4.648,4.648,0,0,0,7.41,0l14.811-21.2a4.528,4.528,0,0,0,0-5.17L319.9,1664.98a4.455,4.455,0,0,0-3.7-1.927" transform="translate(116.487 660.408)" fill="#07ee2e"/>
      <path id="Trazado_15927" data-name="Trazado 15927" d="M303.566,1680.708l.24,1.251c.951,2.564,4.822,6.648,6.592,8.028l1.124.384a23.859,23.859,0,0,0,7.543-7.147l-.138-1.162a30.826,30.826,0,0,0-6.907-8.158l-.808-.25c-2.013.576-6.124,4.447-7.646,7.053" transform="translate(120.861 666.339)" fill="#07ee2e"/>
      <path id="Trazado_15928" data-name="Trazado 15928" d="M334.381,1731.9l-12.432-17.8a6.647,6.647,0,0,1,0-7.63l12.432-17.805a1.308,1.308,0,0,1,2.378.75v41.74a1.308,1.308,0,0,1-2.378.749" transform="translate(127.701 672.091)" fill="#07ee2e"/>
      <path id="Trazado_15929" data-name="Trazado 15929" d="M288.844,1688.662l12.485,17.76a6.665,6.665,0,0,1,.025,7.634L288.973,1731.9a1.3,1.3,0,0,1-2.373-.738l-.13-41.743a1.3,1.3,0,0,1,2.374-.752" transform="translate(114.055 672.092)" fill="#07ee2e"/>
      <path id="Trazado_15930" data-name="Trazado 15930" d="M316.2,1767.465a8.827,8.827,0,0,1-7.228-3.772l-14.808-21.2a8.834,8.834,0,0,1,0-10.089l14.811-21.2a8.812,8.812,0,0,1,14.451,0l14.806,21.2a8.841,8.841,0,0,1,0,10.093l-14.806,21.2a8.819,8.819,0,0,1-7.226,3.772m0-55.74a4.45,4.45,0,0,0-3.7,1.935l-14.816,21.2a4.533,4.533,0,0,0,0,5.17l14.81,21.2a4.647,4.647,0,0,0,7.41,0l14.811-21.2a4.528,4.528,0,0,0,0-5.17l-14.811-21.2a4.456,4.456,0,0,0-3.7-1.935" transform="translate(116.487 679.788)" fill="#07ee2e"/>
      <path id="Trazado_15931" data-name="Trazado 15931" d="M311.419,1722.332l-.8.25a30.729,30.729,0,0,0-6.911,8.157l-.138,1.161a23.935,23.935,0,0,0,7.549,7.149l1.119-.383c1.776-1.38,5.641-5.469,6.6-8.03l.236-1.25c-1.523-2.61-5.629-6.478-7.646-7.053" transform="translate(120.861 685.72)" fill="#07ee2e"/>
      <path id="Trazado_15932" data-name="Trazado 15932" d="M287.346,1783.35a2.119,2.119,0,0,1-1.226-.387,2.144,2.144,0,0,1-.528-2.989l12.063-17.278a3.288,3.288,0,0,0,0-3.76l-12.067-17.28a2.148,2.148,0,1,1,3.522-2.461l12.072,17.281a7.618,7.618,0,0,1,0,8.682l-12.072,17.27a2.142,2.142,0,0,1-1.763.921" transform="translate(113.549 692.069)" fill="#07ee2e"/>
      <path id="Trazado_15933" data-name="Trazado 15933" d="M336.909,1783.351a2.129,2.129,0,0,1-1.759-.921l-12.072-17.27a7.611,7.611,0,0,1,0-8.682l12.067-17.281a2.148,2.148,0,1,1,3.522,2.461l-12.062,17.28a3.269,3.269,0,0,0,0,3.76l12.062,17.278a2.149,2.149,0,0,1-.533,2.989,2.119,2.119,0,0,1-1.226.387" transform="translate(128.088 692.068)" fill="#07ee2e"/>
      <path id="Trazado_15934" data-name="Trazado 15934" d="M316.2,1819.2a8.816,8.816,0,0,1-7.228-3.772l-14.808-21.2a8.842,8.842,0,0,1,0-10.089l14.811-21.2a8.806,8.806,0,0,1,14.451,0l14.806,21.2a8.849,8.849,0,0,1,0,10.089h0l-14.806,21.2a8.807,8.807,0,0,1-7.226,3.772m0-55.744a4.45,4.45,0,0,0-3.7,1.935l-14.816,21.2a4.546,4.546,0,0,0,0,5.179l14.81,21.2a4.648,4.648,0,0,0,7.41,0l14.811-21.2a4.542,4.542,0,0,0,0-5.179l-14.811-21.2a4.456,4.456,0,0,0-3.7-1.935" transform="translate(116.487 700.384)" fill="#07ee2e"/>
      <path id="Trazado_15935" data-name="Trazado 15935" d="M303.566,1781.119l.24,1.251c.951,2.564,4.822,6.648,6.592,8.03l1.124.379a23.8,23.8,0,0,0,7.543-7.143l-.138-1.162a30.736,30.736,0,0,0-6.907-8.158l-.808-.253c-2.013.579-6.124,4.446-7.646,7.056" transform="translate(120.861 706.316)" fill="#07ee2e"/>
      <path id="Trazado_15936" data-name="Trazado 15936" d="M334.381,1832.307l-12.432-17.8a6.653,6.653,0,0,1,0-7.634l12.432-17.8a1.308,1.308,0,0,1,2.378.748v41.736a1.307,1.307,0,0,1-2.378.75" transform="translate(127.701 712.069)" fill="#07ee2e"/>
      <path id="Trazado_15937" data-name="Trazado 15937" d="M288.844,1789.071l12.485,17.766a6.665,6.665,0,0,1,.025,7.634l-12.382,17.839a1.3,1.3,0,0,1-2.373-.744l-.13-41.739a1.306,1.306,0,0,1,2.374-.756" transform="translate(114.055 712.069)" fill="#07ee2e"/>
      <path id="Trazado_15938" data-name="Trazado 15938" d="M316.2,1867.877a8.827,8.827,0,0,1-7.228-3.772l-14.808-21.2a8.841,8.841,0,0,1,0-10.093l14.811-21.2a8.818,8.818,0,0,1,14.451,0l14.81,21.206a8.849,8.849,0,0,1,0,10.089h0l-14.806,21.2a8.818,8.818,0,0,1-7.226,3.772m0-55.74a4.481,4.481,0,0,0-3.708,1.927l-14.81,21.21a4.537,4.537,0,0,0,0,5.173l14.81,21.2a4.647,4.647,0,0,0,7.41,0l14.811-21.2a4.532,4.532,0,0,0,0-5.173l-14.811-21.21a4.469,4.469,0,0,0-3.7-1.927" transform="translate(116.487 719.766)" fill="#07ee2e"/>
      <path id="Trazado_15939" data-name="Trazado 15939" d="M311.419,1822.741l-.8.253a30.691,30.691,0,0,0-6.911,8.158l-.138,1.162a23.869,23.869,0,0,0,7.549,7.143l1.119-.377c1.776-1.381,5.641-5.472,6.6-8.03l.236-1.255c-1.523-2.611-5.629-6.473-7.646-7.054" transform="translate(120.861 725.696)" fill="#07ee2e"/>
      <path id="Trazado_15940" data-name="Trazado 15940" d="M287.346,1884.254a2.119,2.119,0,0,1-1.226-.387,2.144,2.144,0,0,1-.528-2.989l12.063-17.278a3.288,3.288,0,0,0,0-3.76l-12.067-17.28a2.148,2.148,0,1,1,3.522-2.461l12.072,17.281a7.611,7.611,0,0,1,0,8.683l-12.067,17.27a2.145,2.145,0,0,1-1.763.922" transform="translate(113.549 732.243)" fill="#07ee2e"/>
      <path id="Trazado_15941" data-name="Trazado 15941" d="M336.909,1884.255a2.132,2.132,0,0,1-1.759-.922l-12.072-17.27a7.6,7.6,0,0,1,0-8.683l12.067-17.281a2.148,2.148,0,1,1,3.522,2.461l-12.062,17.28a3.278,3.278,0,0,0-.006,3.76l12.067,17.278a2.149,2.149,0,0,1-.533,2.989,2.119,2.119,0,0,1-1.226.387" transform="translate(128.088 732.242)" fill="#07ee2e"/>
      <path id="Trazado_15942" data-name="Trazado 15942" d="M316.2,1920.1a8.827,8.827,0,0,1-7.228-3.772l-14.808-21.2a8.842,8.842,0,0,1,0-10.089l14.811-21.2a8.814,8.814,0,0,1,14.451,0l14.806,21.2a8.849,8.849,0,0,1,0,10.089h0l-14.806,21.2a8.818,8.818,0,0,1-7.226,3.772m0-55.74a4.474,4.474,0,0,0-3.708,1.931l-14.81,21.2a4.541,4.541,0,0,0,0,5.176l14.81,21.2a4.647,4.647,0,0,0,7.41,0l14.811-21.2a4.537,4.537,0,0,0,0-5.176l-14.811-21.2a4.463,4.463,0,0,0-3.7-1.931" transform="translate(116.487 740.559)" fill="#07ee2e"/>
      <path id="Trazado_15943" data-name="Trazado 15943" d="M303.566,1882.023l.24,1.251c.951,2.564,4.822,6.648,6.592,8.03l1.124.379a23.805,23.805,0,0,0,7.543-7.143l-.138-1.162a30.729,30.729,0,0,0-6.907-8.158l-.808-.253c-2.013.579-6.124,4.446-7.646,7.056" transform="translate(120.861 746.489)" fill="#07ee2e"/>
      <path id="Trazado_15944" data-name="Trazado 15944" d="M334.381,1933.209l-12.432-17.8a6.653,6.653,0,0,1,0-7.634l12.432-17.8a1.308,1.308,0,0,1,2.378.75v41.734a1.307,1.307,0,0,1-2.378.749" transform="translate(127.701 752.242)" fill="#07ee2e"/>
      <path id="Trazado_15945" data-name="Trazado 15945" d="M288.844,1889.974l12.485,17.766a6.665,6.665,0,0,1,.025,7.634l-12.382,17.839a1.3,1.3,0,0,1-2.373-.744l-.13-41.739a1.306,1.306,0,0,1,2.374-.756" transform="translate(114.055 752.242)" fill="#07ee2e"/>
      <path id="Trazado_15946" data-name="Trazado 15946" d="M316.2,1968.781a8.827,8.827,0,0,1-7.228-3.772l-14.808-21.2a8.841,8.841,0,0,1,0-10.093l14.811-21.2a8.808,8.808,0,0,1,14.451,0l14.806,21.2a8.841,8.841,0,0,1,0,10.089h0l-14.806,21.2a8.818,8.818,0,0,1-7.226,3.772m0-55.74a4.457,4.457,0,0,0-3.7,1.931l-14.816,21.2a4.542,4.542,0,0,0,0,5.176l14.81,21.2a4.647,4.647,0,0,0,7.41,0l14.811-21.2a4.533,4.533,0,0,0,0-5.173L319.9,1914.972a4.463,4.463,0,0,0-3.7-1.931" transform="translate(116.487 759.938)" fill="#07ee2e"/>
      <path id="Trazado_15947" data-name="Trazado 15947" d="M311.419,1923.644l-.8.253a30.683,30.683,0,0,0-6.911,8.158l-.138,1.162a23.869,23.869,0,0,0,7.549,7.143l1.119-.378c1.776-1.381,5.641-5.472,6.6-8.029l.236-1.256c-1.523-2.61-5.629-6.473-7.646-7.053" transform="translate(120.861 765.87)" fill="#07ee2e"/>
      <path id="Trazado_15948" data-name="Trazado 15948" d="M287.345,1984.662a2.14,2.14,0,0,1-1.755-3.371l12.063-17.281a3.3,3.3,0,0,0,0-3.767l-12.063-17.271a2.146,2.146,0,1,1,3.518-2.459l12.067,17.276a7.611,7.611,0,0,1,0,8.682l-12.072,17.275a2.143,2.143,0,0,1-1.763.916" transform="translate(113.55 772.221)" fill="#07ee2e"/>
      <path id="Trazado_15949" data-name="Trazado 15949" d="M336.908,1984.663a2.13,2.13,0,0,1-1.759-.916l-12.072-17.275a7.618,7.618,0,0,1,0-8.682l12.072-17.276a2.146,2.146,0,1,1,3.518,2.459L326.6,1960.244a3.29,3.29,0,0,0,.006,3.767l12.062,17.281a2.142,2.142,0,0,1-1.759,3.371" transform="translate(128.089 772.22)" fill="#07ee2e"/>
      <path id="Trazado_15950" data-name="Trazado 15950" d="M316.2,2020.511a8.828,8.828,0,0,1-7.226-3.767l-14.811-21.2a8.851,8.851,0,0,1,0-10.094l14.811-21.2a8.814,8.814,0,0,1,14.451,0l14.806,21.2a8.858,8.858,0,0,1,0,10.094h0l-14.806,21.2a8.828,8.828,0,0,1-7.226,3.767m0-55.74a4.45,4.45,0,0,0-3.7,1.935l-14.816,21.2a4.546,4.546,0,0,0,0,5.179l14.81,21.2a4.658,4.658,0,0,0,7.41,0l14.811-21.2a4.541,4.541,0,0,0,0-5.179l-14.811-21.2a4.456,4.456,0,0,0-3.7-1.935" transform="translate(116.487 780.535)" fill="#07ee2e"/>
      <path id="Trazado_15951" data-name="Trazado 15951" d="M303.566,1982.431l.24,1.256c.951,2.563,4.822,6.65,6.592,8.024l1.124.385a23.825,23.825,0,0,0,7.543-7.145l-.138-1.165a30.7,30.7,0,0,0-6.907-8.152l-.808-.256c-2.013.582-6.124,4.448-7.646,7.054" transform="translate(120.861 786.466)" fill="#07ee2e"/>
      <path id="Trazado_15952" data-name="Trazado 15952" d="M334.381,2033.623l-12.432-17.8a6.653,6.653,0,0,1,0-7.634l12.432-17.8a1.306,1.306,0,0,1,2.378.749v41.734a1.308,1.308,0,0,1-2.378.75" transform="translate(127.701 792.219)" fill="#07ee2e"/>
      <path id="Trazado_15953" data-name="Trazado 15953" d="M288.844,1990.385l12.485,17.76a6.665,6.665,0,0,1,.025,7.634l-12.382,17.839a1.3,1.3,0,0,1-2.373-.738l-.13-41.739a1.305,1.305,0,0,1,2.374-.756" transform="translate(114.055 792.219)" fill="#07ee2e"/>
      <path id="Trazado_15954" data-name="Trazado 15954" d="M316.2,2069.192a8.827,8.827,0,0,1-7.228-3.772l-14.808-21.2a8.848,8.848,0,0,1,0-10.093l14.811-21.2a8.812,8.812,0,0,1,14.451,0l14.806,21.2a8.855,8.855,0,0,1,0,10.093h0l-14.806,21.2a8.819,8.819,0,0,1-7.226,3.772m0-55.74a4.481,4.481,0,0,0-3.708,1.927l-14.81,21.2a4.551,4.551,0,0,0,0,5.182l14.81,21.2a4.647,4.647,0,0,0,7.41,0l14.811-21.2a4.546,4.546,0,0,0,0-5.182l-14.811-21.2a4.469,4.469,0,0,0-3.7-1.927" transform="translate(116.487 799.915)" fill="#07ee2e"/>
      <path id="Trazado_15955" data-name="Trazado 15955" d="M311.419,2024.056l-.8.253a30.662,30.662,0,0,0-6.911,8.154l-.138,1.166a23.915,23.915,0,0,0,7.549,7.143l1.119-.383c1.776-1.376,5.641-5.467,6.6-8.024l.236-1.256c-1.523-2.61-5.629-6.473-7.646-7.053" transform="translate(120.861 805.848)" fill="#07ee2e"/>
      <path id="Trazado_15956" data-name="Trazado 15956" d="M287.345,2085.073a2.118,2.118,0,0,1-1.226-.388,2.142,2.142,0,0,1-.528-2.989l12.063-17.275a3.3,3.3,0,0,0,0-3.767l-12.063-17.271a2.146,2.146,0,1,1,3.518-2.459l12.067,17.276a7.611,7.611,0,0,1,0,8.682l-12.072,17.275a2.15,2.15,0,0,1-1.763.916" transform="translate(113.55 812.198)" fill="#07ee2e"/>
      <path id="Trazado_15957" data-name="Trazado 15957" d="M336.908,2085.074a2.138,2.138,0,0,1-1.759-.916l-12.072-17.275a7.618,7.618,0,0,1,0-8.683l12.072-17.276a2.146,2.146,0,1,1,3.518,2.459L326.6,2060.655a3.29,3.29,0,0,0,.006,3.767l12.062,17.275a2.147,2.147,0,0,1-.533,2.989,2.121,2.121,0,0,1-1.226.387" transform="translate(128.089 812.197)" fill="#07ee2e"/>
      <path id="Trazado_15958" data-name="Trazado 15958" d="M316.2,2120.923a8.826,8.826,0,0,1-7.228-3.772l-14.808-21.2a8.834,8.834,0,0,1,0-10.089l14.811-21.2a8.814,8.814,0,0,1,14.451,0l14.806,21.2a8.843,8.843,0,0,1,0,10.094l-14.806,21.2a8.818,8.818,0,0,1-7.226,3.772m0-55.74a4.454,4.454,0,0,0-3.7,1.933l-14.816,21.2a4.532,4.532,0,0,0,0,5.17l14.81,21.207a4.65,4.65,0,0,0,7.41,0l14.811-21.207a4.527,4.527,0,0,0,0-5.17l-14.811-21.2a4.459,4.459,0,0,0-3.7-1.933" transform="translate(116.487 820.513)" fill="#07ee2e"/>
      <path id="Trazado_15959" data-name="Trazado 15959" d="M303.566,2082.843l.24,1.251c.951,2.564,4.822,6.648,6.592,8.03l1.124.383a23.863,23.863,0,0,0,7.543-7.147l-.138-1.162a30.827,30.827,0,0,0-6.907-8.158l-.808-.25c-2.013.576-6.124,4.447-7.646,7.053" transform="translate(120.861 826.444)" fill="#07ee2e"/>
      <path id="Trazado_15960" data-name="Trazado 15960" d="M334.381,2134.034l-12.432-17.8a6.653,6.653,0,0,1,0-7.634l12.432-17.8a1.308,1.308,0,0,1,2.378.75v41.74a1.308,1.308,0,0,1-2.378.75" transform="translate(127.701 832.197)" fill="#07ee2e"/>
      <path id="Trazado_15961" data-name="Trazado 15961" d="M288.844,2090.794l12.485,17.766a6.665,6.665,0,0,1,.025,7.634l-12.382,17.839a1.3,1.3,0,0,1-2.373-.744l-.13-41.739a1.307,1.307,0,0,1,2.374-.756" transform="translate(114.055 832.198)" fill="#07ee2e"/>
      <path id="Trazado_15962" data-name="Trazado 15962" d="M316.2,2169.6a8.823,8.823,0,0,1-7.226-3.762l-14.811-21.2a8.85,8.85,0,0,1,0-10.094l14.811-21.2a8.808,8.808,0,0,1,14.451,0l14.806,21.2a8.857,8.857,0,0,1,0,10.094h0l-14.806,21.2a8.823,8.823,0,0,1-7.226,3.762m0-55.735a4.458,4.458,0,0,0-3.7,1.931L297.678,2137a4.544,4.544,0,0,0,0,5.177l14.81,21.206a4.658,4.658,0,0,0,7.41,0l14.811-21.206a4.539,4.539,0,0,0,0-5.177l-14.811-21.2a4.463,4.463,0,0,0-3.7-1.931" transform="translate(116.487 839.892)" fill="#07ee2e"/>
      <path id="Trazado_15963" data-name="Trazado 15963" d="M311.419,2124.468l-.8.25a30.725,30.725,0,0,0-6.911,8.157l-.138,1.16a23.933,23.933,0,0,0,7.549,7.149l1.119-.384c1.776-1.38,5.641-5.469,6.6-8.029l.236-1.25c-1.523-2.61-5.629-6.478-7.646-7.053" transform="translate(120.861 845.825)" fill="#07ee2e"/>
      <path id="Trazado_15964" data-name="Trazado 15964" d="M287.345,2185.479a2.118,2.118,0,0,1-1.226-.387,2.143,2.143,0,0,1-.528-2.99l12.063-17.275a3.292,3.292,0,0,0,0-3.762l-12.063-17.27a2.147,2.147,0,1,1,3.518-2.461l12.067,17.274a7.6,7.6,0,0,1,0,8.679l-12.067,17.275a2.15,2.15,0,0,1-1.763.916" transform="translate(113.55 852.176)" fill="#07ee2e"/>
      <path id="Trazado_15965" data-name="Trazado 15965" d="M336.909,2185.48a2.137,2.137,0,0,1-1.759-.916l-12.072-17.275a7.6,7.6,0,0,1,0-8.679l12.072-17.274a2.147,2.147,0,1,1,3.518,2.461l-12.067,17.27a3.292,3.292,0,0,0,0,3.762l12.067,17.275a2.148,2.148,0,0,1-.533,2.99,2.119,2.119,0,0,1-1.226.387" transform="translate(128.088 852.175)" fill="#07ee2e"/>
      <path id="Trazado_15966" data-name="Trazado 15966" d="M316.2,2221.336a8.827,8.827,0,0,1-7.228-3.772l-14.808-21.2a8.841,8.841,0,0,1,0-10.093l14.811-21.2a8.812,8.812,0,0,1,14.451,0l14.81,21.206a8.848,8.848,0,0,1,0,10.088h0l-14.806,21.2a8.818,8.818,0,0,1-7.226,3.772m0-55.739a4.48,4.48,0,0,0-3.708,1.926l-14.81,21.207a4.542,4.542,0,0,0,0,5.176l14.81,21.2a4.647,4.647,0,0,0,7.41,0l14.811-21.2a4.533,4.533,0,0,0,0-5.173l-14.811-21.21a4.468,4.468,0,0,0-3.7-1.926" transform="translate(116.487 860.489)" fill="#07ee2e"/>
      <path id="Trazado_15967" data-name="Trazado 15967" d="M303.566,2183.251l.24,1.256c.951,2.563,4.822,6.649,6.592,8.029l1.124.379a23.828,23.828,0,0,0,7.543-7.145l-.138-1.16a30.655,30.655,0,0,0-6.907-8.157l-.808-.256c-2.013.582-6.124,4.447-7.646,7.053" transform="translate(120.861 866.421)" fill="#07ee2e"/>
      <path id="Trazado_15968" data-name="Trazado 15968" d="M334.381,2234.443l-12.432-17.8a6.653,6.653,0,0,1,0-7.634l12.432-17.8a1.307,1.307,0,0,1,2.378.748v41.736a1.307,1.307,0,0,1-2.378.749" transform="translate(127.701 872.174)" fill="#07ee2e"/>
      <path id="Trazado_15969" data-name="Trazado 15969" d="M288.844,2191.206l12.485,17.761a6.665,6.665,0,0,1,.025,7.634l-12.382,17.839a1.3,1.3,0,0,1-2.373-.738l-.13-41.739a1.306,1.306,0,0,1,2.374-.756" transform="translate(114.055 872.174)" fill="#07ee2e"/>
      <path id="Trazado_15970" data-name="Trazado 15970" d="M316.2,2270.009a8.824,8.824,0,0,1-7.226-3.762l-14.811-21.207a8.834,8.834,0,0,1,0-10.089l14.811-21.2a8.808,8.808,0,0,1,14.451,0l14.806,21.2a8.848,8.848,0,0,1,0,10.089l-14.81,21.207a8.824,8.824,0,0,1-7.226,3.762m0-55.735a4.443,4.443,0,0,0-3.7,1.931l-14.816,21.2a4.528,4.528,0,0,0,0,5.167l14.816,21.21a4.646,4.646,0,0,0,7.4,0l14.811-21.21a4.523,4.523,0,0,0,0-5.167L319.9,2216.2a4.448,4.448,0,0,0-3.7-1.931" transform="translate(116.487 879.87)" fill="#07ee2e"/>
      <path id="Trazado_15971" data-name="Trazado 15971" d="M311.419,2224.877l-.8.253a30.617,30.617,0,0,0-6.911,8.158l-.138,1.162a23.921,23.921,0,0,0,7.549,7.143l1.119-.378c1.776-1.381,5.641-5.472,6.6-8.029l.236-1.255c-1.523-2.611-5.629-6.474-7.646-7.054" transform="translate(120.861 885.802)" fill="#07ee2e"/>
      <path id="Trazado_15972" data-name="Trazado 15972" d="M287.346,2285.893a2.121,2.121,0,0,1-1.226-.387,2.143,2.143,0,0,1-.528-2.989l12.063-17.275a3.293,3.293,0,0,0,0-3.763L285.587,2244.2a2.148,2.148,0,1,1,3.522-2.459l12.072,17.278a7.614,7.614,0,0,1,0,8.68l-12.072,17.27a2.141,2.141,0,0,1-1.763.921" transform="translate(113.549 892.152)" fill="#07ee2e"/>
      <path id="Trazado_15973" data-name="Trazado 15973" d="M336.909,2285.894a2.128,2.128,0,0,1-1.759-.922l-12.072-17.27a7.607,7.607,0,0,1,0-8.68l12.067-17.278a2.148,2.148,0,1,1,3.522,2.459l-12.062,17.275a3.274,3.274,0,0,0,0,3.763l12.062,17.275a2.148,2.148,0,0,1-.533,2.989,2.121,2.121,0,0,1-1.226.387" transform="translate(128.088 892.151)" fill="#07ee2e"/>
    </g>
  </g>
</svg>
