<svg xmlns="http://www.w3.org/2000/svg" xmlns:xlink="http://www.w3.org/1999/xlink" width="93.482" height="127.106" viewBox="0 0 93.482 127.106">
  <defs>
    <clipPath id="clip-path">
      <rect id="Rectangle_2311" data-name="Rectangle 2311" width="93.482" height="127.106" fill="#fff3e9"/>
    </clipPath>
  </defs>
  <g id="Group_36018" data-name="Group 36018" transform="translate(0 0)">
    <path id="Path_17773" data-name="Path 17773" d="M18.646,32.609l.868,1.644,1.062-1.436-.981-1.566Z" transform="translate(11.398 19.104)" fill="#fff3e9"/>
    <g id="Group_35767" data-name="Group 35767" transform="translate(0 0)">
      <g id="Group_35766" data-name="Group 35766" clip-path="url(#clip-path)">
        <path id="Path_17774" data-name="Path 17774" d="M93.321,18.8a3.794,3.794,0,0,0-1.207-4.106,13.729,13.729,0,0,0-2.875-1.966c-2.71-1.289-5.486-2.441-8.227-3.666a15.207,15.207,0,0,1-1.869-.986.818.818,0,0,1-.316-.633,10.808,10.808,0,0,1,1.112-4.547,8.11,8.11,0,0,0,.509-1.118,1.139,1.139,0,0,0-.859-1.66A4.067,4.067,0,0,0,74.965,2.2,37.423,37.423,0,0,0,73.387,6.78c-.24.794-.976.74-1.6,1.113A4.634,4.634,0,0,0,70.16,9.632C68.507,12.575,68.426,16.706,68.144,20c-.313,3.632-.421,7.275-.622,10.91-.3,5.445-.52,10.9-.392,16.353,0,.156-.014.316-.027.593,0,.087-5.361-.6-5.9-.7-8.448-1.51-16.551-4.885-25.177-5.4-7.849-.466-16.039,1.181-22.684,5.509-.751.488-1.5.985-2.249,1.479-.151-.126-.288-.245-.427-.359a6.064,6.064,0,0,0-8.353.927A10.272,10.272,0,0,0,0,55.99c-.073,3.785,1.481,8.875,5.8,9.6,1.026.172,1.577-.524,1.242-1.49-.166-.48-.354-.952-.509-1.436a6.564,6.564,0,0,1-.267-1.658,6.775,6.775,0,0,1,.093-1.626c.23.806.432,1.623.735,2.4.3.765.657,1.5,1.017,2.24q1,2.052,2.022,4.088c2.556,5.1,3.828,10.483,2.86,16.189-.7,4.122-2.686,7.871-3.21,12.054a10.789,10.789,0,0,0,.857,6.571,7.493,7.493,0,0,1,.765,2.011c.408,2.125.8,4.255,1.063,6.4.364,3,.6,6.01.9,9.017a3.419,3.419,0,0,0,.553,2.008c1.141,1.353,2.285,2.705,3.477,4.014a1.87,1.87,0,0,0,1.052.474,22.128,22.128,0,0,0,6.181-.116.719.719,0,0,0,.622-1.081,4.308,4.308,0,0,0-.67-1.134c-1.279-1.565-2.591-3.1-3.877-4.655a6.688,6.688,0,0,1-1.22-1.635,28.834,28.834,0,0,1-1.432-7.064c-.248-2.051-.4-4.117-.566-6.176a15.5,15.5,0,0,1,.158-5.287,13.231,13.231,0,0,1,1.271-3.648q2.062-3.386,4.051-6.814a66.461,66.461,0,0,0,5-9.758,27.889,27.889,0,0,0,1.943-7.34c.052-.562.108-1.13.163-1.7.047-.006.093-.01.139-.016.108.163.216.322.322.485.748,1.159,1.42,2.375,2.257,3.464,6.223,8.1,14.819,10.158,23.912,13.5,3.387,1.246,3.334,7.878,3.611,10.807a79.7,79.7,0,0,1,.021,13.184c-.131,1.768-.3,3.534-.474,5.3A29.7,29.7,0,0,1,59.5,120.3a2.014,2.014,0,0,0,.271,1.531,4.193,4.193,0,0,0,.324.493c1.017,1.247,2.03,2.5,3.068,3.729a1.744,1.744,0,0,0,.751.524,5.655,5.655,0,0,0,1.4.269c1.769.108,3.538.2,5.311.258.885.029,1.125-.408.72-1.194a4.371,4.371,0,0,0-.327-.549c-1.252-1.731-2.452-3.5-3.788-5.163a3.288,3.288,0,0,1-.661-2.512c.648-8.326,1.208-16.667,2.127-24.972.251-2.293,1.36-3.575,2.726-5.346,1.389-1.8,2.751-3.629,4.062-5.49a90.849,90.849,0,0,0,7.08-11.647,42.3,42.3,0,0,0,4.668-15.965,49.712,49.712,0,0,0-1.8-15.324c-1.192-4.758-3.005-9.5-2.781-14.481.016-.348.077-.549.467-.59q2.228-.222,4.454-.479c1.434-.164,2.871-.3,4.294-.53a1.554,1.554,0,0,0,1.363-1.577c.026-.295-.013-.593,0-.886a7.987,7.987,0,0,1,.1-1.6M81.249,38.346a.879.879,0,0,1,0-1.756.879.879,0,0,1,0,1.756M80.021,12.634c.031,0,.061,0,.089,0a.352.352,0,0,1,.058,0l.015,0,.044.01.113.032.013,0,.04.016.05.024a3.061,3.061,0,0,1,.93.856l0,0,.006.008.021.042.006.016a.319.319,0,0,1,.015.042l0,.015.008.044,0,.018,0,.044v.019l0,.026,0,.026,0,.023-.008.034,0,.016c0,.016-.011.034-.018.05l0,.008a.452.452,0,0,1-.227.224l0,0-.024.006-.021.01h0c-.192.055-.453.118-.738.169-.153.029-.313.053-.472.077l-.027,0-.027,0c-.2.026-.4.045-.578.053h-.023a.333.333,0,0,1-.056,0h-.01l-.024,0a.178.178,0,0,1-.042-.011l-.031-.01-.131-.04-.018,0-.023-.008-.014-.008-.031-.016-.013-.006c-.168-.1-.817-.549-.936-.939l0-.016a.451.451,0,0,1,0-.218l0-.019,0-.006a.452.452,0,0,1,.25-.3l.013,0,.04-.016h0c.14-.044.327-.09.533-.132l.013,0h0a7.618,7.618,0,0,1,1.244-.161M78,2.048a.354.354,0,0,1,.5.5A10.05,10.05,0,0,0,76.86,6.5a.354.354,0,1,1-.707,0A10.5,10.5,0,0,1,78,2.048M75.737,34.9l.029-.174a.366.366,0,0,1,.127-.214L75.9,34.5a2.974,2.974,0,0,1,.417-.261l.037-.019.068-.034.089-.04.019-.008a3.3,3.3,0,0,1,.308-.122l.029-.011.034-.011a1.608,1.608,0,0,1,.567-.093.349.349,0,0,1,.187.073l.023.018.068.053a.369.369,0,0,1,.085.1,4.56,4.56,0,0,1,.538,1.518.37.37,0,0,1,0,.073.33.33,0,0,1-.011.068l-.039.156a.369.369,0,0,1-.132.2,3.569,3.569,0,0,1-.664.372l-.029.011-.008,0a3.051,3.051,0,0,1-.79.23h-.039a.374.374,0,0,1-.227-.079l-.124-.106a.369.369,0,0,1-.077-.089,4.562,4.562,0,0,1-.474-1.233,1.651,1.651,0,0,1-.032-.306.229.229,0,0,1,.006-.058m-2.944-2.734a.878.878,0,0,1,0,1.755.878.878,0,0,1,0-1.755M61.816,55.326a5,5,0,0,1,1.561-1.31l.05-.023a.661.661,0,0,1,.432-.026l.023.006.035.011,0,0h0l.018.006.04.018.026.013.029.016.023.016.031.021.008,0a.407.407,0,0,1,.04.034c.063.055.131.121.2.193a7.12,7.12,0,0,1,1.015,1.35c.044.076.085.153.124.23l.008.018a.631.631,0,0,1,.056.182c0,.023.006.047.008.069l0,.035,0,.015v0a.684.684,0,0,1-.145.462c-.071.089-.156.187-.253.29a5.775,5.775,0,0,1-1.07.9c-.074.047-.15.09-.224.131a.676.676,0,0,1-.314.077c-.019,0-.039,0-.058,0a.623.623,0,0,1-.2-.047L63.247,58l-.034-.016a.626.626,0,0,1-.174-.118c-.064-.06-.143-.139-.23-.23l0,0,0,0a6.68,6.68,0,0,1-.9-1.207,2.188,2.188,0,0,1-.169-.372l-.008-.027a.207.207,0,0,1-.01-.034c0-.021-.01-.044-.013-.066v0l-.013-.1a.673.673,0,0,1,.129-.5m-.941,7.928a5.462,5.462,0,0,1,.356-.424,9.2,9.2,0,0,1,1.339-1.184l.042-.031.037-.026a4.157,4.157,0,0,1,.744-.427.4.4,0,0,1,.047-.018.882.882,0,0,1,.529-.011c.019.006.039.011.058.019l.023.01a.868.868,0,0,1,.211.118l.05.042c.018.016.037.034.055.053a10.835,10.835,0,0,1,2.066,2.759.787.787,0,0,1,.058.148l.006.019.006.031a.8.8,0,0,1,.023.151l0,.085,0,0v.081l0,.013a.878.878,0,0,1-.187.5,9.353,9.353,0,0,1-1.65,1.573l-.082.061-.008,0a6.321,6.321,0,0,1-.7.438.881.881,0,0,1-.1.043.842.842,0,0,1-.309.056.873.873,0,0,1-.335-.064l-.061-.026a.867.867,0,0,1-.272-.172,11.51,11.51,0,0,1-1.537-1.851,4.629,4.629,0,0,1-.525-1,.98.98,0,0,1-.034-.143l0-.024-.023-.166a.838.838,0,0,1-.006-.168v0c0-.023,0-.045.006-.068l0-.018a.84.84,0,0,1,.148-.364l.016-.023m.142,7.932c0-.018.006-.034.011-.052l0-.011a.667.667,0,0,1,.074-.174l0-.006.023-.034.014-.021v0a4.7,4.7,0,0,1,.5-.546l.026-.024.029-.027a4.107,4.107,0,0,1,1.052-.736.612.612,0,0,1,.129-.035.688.688,0,0,1,.364.029.243.243,0,0,1,.042.019.662.662,0,0,1,.177.113,6.939,6.939,0,0,1,1.275,1.656c.021.04.042.077.061.116a.757.757,0,0,1,.044.108l.006.023,0,.023a.546.546,0,0,1,.018.114v0l0,.053v.021a.715.715,0,0,1-.015.166l0,.011a.368.368,0,0,1-.013.045.655.655,0,0,1-.114.218,5.706,5.706,0,0,1-.67.693,4.817,4.817,0,0,1-.827.6l-.05.026a.671.671,0,0,1-.314.077.635.635,0,0,1-.237-.044l-.019-.006h0l-.037-.015-.032-.014a.566.566,0,0,1-.129-.079l-.048-.04-.016-.015A6.2,6.2,0,0,1,61.1,71.737c-.016-.042-.032-.082-.045-.121l0-.008a.512.512,0,0,1-.016-.053c0-.021-.01-.042-.013-.064l-.006-.063-.006-.044c0-.023,0-.045-.006-.068a.71.71,0,0,1,.008-.131M54.34,61.977l3.045-2.726L55.4,56.538a1.7,1.7,0,0,1,.206-2.24c.522-.488,1.83-1.711,2.709-2.444a1.344,1.344,0,1,1,1.724,2.062c-.572.479-1.357,1.192-1.95,1.743l1.992,2.73a1.7,1.7,0,0,1-.238,2.269L56.681,63.49l1.892,4.059a1.691,1.691,0,0,1-.669,2.174l-4.189,2.5a1.345,1.345,0,0,1-1.378-2.311l3.421-2.042-1.824-3.914a1.685,1.685,0,0,1,.406-1.982M44.463,49.591a4.914,4.914,0,0,1,1.56-1.349l.027-.013.058-.023a.677.677,0,0,1,.433.008.7.7,0,0,1,.155.079l.013.006.018.016.032.023.077.069a6.987,6.987,0,0,1,1.292,1.685.624.624,0,0,1,.064.179l0,.016,0,.031,0,.039v.016l0,.04c0,.019,0,.04,0,.06a.672.672,0,0,1-.137.4l0,0h0a5.656,5.656,0,0,1-1.413,1.278l-.011.008c-.032.018-.066.037-.1.058a.693.693,0,0,1-.57.035l-.039-.013c-.014-.008-.031-.013-.045-.023l-.013,0-.014-.008-.04-.023-.023-.018-.029-.018-.019-.018-.027-.023a6.67,6.67,0,0,1-1.194-1.479,2.136,2.136,0,0,1-.145-.313l-.008-.023-.011-.042-.006-.034-.006-.031,0-.026-.011-.076a.685.685,0,0,1,.024-.308.676.676,0,0,1,.1-.192M43.5,57.359a4.065,4.065,0,0,1,.359-.4,5.47,5.47,0,0,1,.72-.619l.019-.016.092-.063.039-.024.071-.045.04-.024.068-.04.021-.008a1.252,1.252,0,0,1,.182-.089A.431.431,0,0,1,45.17,56a.68.68,0,0,1,.427.011l0,0h0a.7.7,0,0,1,.1.052l.01,0,.021.014.034.021v0c.016.011.032.026.047.037a4.475,4.475,0,0,1,.322.327,7.015,7.015,0,0,1,1.018,1.449.706.706,0,0,1,.061.187l0,.011,0,.021.006.048v0l0,.027,0,.023v.019a.672.672,0,0,1-.145.441,5.511,5.511,0,0,1-1.547,1.318.659.659,0,0,1-.314.079.737.737,0,0,1-.256-.048l-.04-.018-.027-.013-.031-.013L44.859,60l-.037-.021a.638.638,0,0,1-.1-.076A6.439,6.439,0,0,1,43.5,58.287a2.017,2.017,0,0,1-.082-.2v0a.6.6,0,0,1-.029-.127l-.015-.1c0-.023,0-.042,0-.064a.664.664,0,0,1,.089-.361.763.763,0,0,1,.045-.071m-1.2,7.586a4.869,4.869,0,0,1,1.76-1.13.68.68,0,0,1,.458.037l.031.015.019.013a.576.576,0,0,1,.14.1l0,0a.474.474,0,0,1,.04.04l.071.085.06.074,0,.008a5.951,5.951,0,0,1,.437.643l.026.044c.013.023.026.042.037.063l.06.106,0,0a6.985,6.985,0,0,1,.314.643l.013.031.039.09c.018.045.034.089.05.132a.666.666,0,0,1,.039.277l0,.039,0,.015v0a.665.665,0,0,1-.2.438,5.272,5.272,0,0,1-.707.578,4.791,4.791,0,0,1-.988.541c-.029.011-.058.019-.087.029a.705.705,0,0,1-.483-.068l-.026-.018-.01,0-.019-.011a.693.693,0,0,1-.171-.145c-.039-.045-.084-.1-.131-.164a6.835,6.835,0,0,1-.828-1.41,2.422,2.422,0,0,1-.122-.388.4.4,0,0,1-.01-.061v0c0-.023,0-.042,0-.056v-.113c0-.021,0-.04,0-.058s0-.04.006-.06a.671.671,0,0,1,.139-.313l.008-.011.034-.037M20.23,49.445h0l0,0a4.916,4.916,0,0,1,1.61-1.333.656.656,0,0,1,.491,0,.293.293,0,0,1,.048.018l.01,0a.6.6,0,0,1,.16.106,5.636,5.636,0,0,1,.527.561,6.9,6.9,0,0,1,.812,1.213.688.688,0,0,1,.073.267v0l0,.053v.061l0,.011a.672.672,0,0,1-.142.385l0,0-.021.026a5.973,5.973,0,0,1-.86.846,4.479,4.479,0,0,1-.638.43l-.027.016v0a.7.7,0,0,1-.314.077h-.006c-.019,0-.04,0-.06,0h0a.647.647,0,0,1-.189-.047l-.039-.014-.047-.023-.01,0-.006,0-.047-.026a.769.769,0,0,1-.1-.077,5.843,5.843,0,0,1-1.31-1.814l-.011-.04-.006-.023,0-.026-.006-.039,0-.027-.011-.077a.677.677,0,0,1,.127-.493l0,0m-.849,5.712a4.714,4.714,0,0,1,.648-.345,1.034,1.034,0,0,1,.151-.048,1.075,1.075,0,0,1,.511.01c.032.01.064.018.1.029l.058.027a1.021,1.021,0,0,1,.277.174,13.694,13.694,0,0,1,1.911,2.246,12.987,12.987,0,0,1,.857,1.424c.01.019.018.04.026.06l.018.042.013.037c.006.023.015.042.019.064s.01.04.015.061l.008.044a.307.307,0,0,1,0,.04c0,.023.006.047.008.069l0,.05,0,.063h0a1.058,1.058,0,0,1,0,.161l0,.031,0,.018a1.241,1.241,0,0,1-.037.171,1.106,1.106,0,0,1-.176.334,11.733,11.733,0,0,1-2.952,2.58l-.226.127a1.057,1.057,0,0,1-.881.04l-.081-.034-.047-.021a.852.852,0,0,1-.2-.122l-.013-.01c-.021-.018-.042-.032-.061-.052-.055-.052-.114-.11-.179-.172a14.18,14.18,0,0,1-2.225-2.9,4.253,4.253,0,0,1-.284-.635.943.943,0,0,1-.039-.158l-.006-.042L16.56,58.3a1.042,1.042,0,0,1,.2-.769,11.058,11.058,0,0,1,2.623-2.373M16.587,73.569a.432.432,0,0,1,.238-.479l5.3-2.256a.428.428,0,0,1,.574.556,96.868,96.868,0,0,1-5.43,11.078.427.427,0,0,1-.781-.314,26.041,26.041,0,0,0,.1-8.585m4.624-5.408,0,.006a.721.721,0,0,1-.063.1A5.614,5.614,0,0,1,19.6,69.584a1.068,1.068,0,0,1-.1.039.652.652,0,0,1-.214.037.622.622,0,0,1-.171-.023l-.024,0-.008,0-.053-.019-.039-.016a.23.23,0,0,1-.045-.021l-.011,0-.018-.01-.035-.019a.786.786,0,0,1-.1-.077,6.887,6.887,0,0,1-.7-.79l-.006-.008a.315.315,0,0,1-.027-.037,3.865,3.865,0,0,1-.574-.98l0-.008c0-.015-.006-.027-.01-.039l-.006-.021,0-.021-.008-.04,0-.042-.008-.06,0-.04a.682.682,0,0,1,.064-.35l0,0a.719.719,0,0,1,.064-.106,5.42,5.42,0,0,1,1.271-1.152l.027-.018.008,0a2.305,2.305,0,0,1,.3-.158.58.58,0,0,1,.118-.034.623.623,0,0,1,.3,0l.011,0,.018,0,.042.015a.668.668,0,0,1,.127.063.55.55,0,0,1,.1.069c.026.023.053.048.081.076l.066.066.008.006a6.575,6.575,0,0,1,.512.588l.029.037c.016.019.031.042.045.061s.047.061.071.092l0,.008c.137.19.269.392.388.6l.034.058.031.056c.024.042.047.087.068.129a.631.631,0,0,1,.069.235l0,.035,0,.013,0,.035a.43.43,0,0,1,0,.064.682.682,0,0,1-.077.3M13.5,64.646a.727.727,0,0,1-.258.047.741.741,0,0,1-.7-.485,14.746,14.746,0,0,1-1.026-6.036,9.7,9.7,0,0,1,1.191-4.152,8.392,8.392,0,0,1,2.908-3.1.743.743,0,0,1,.725,1.3,7.052,7.052,0,0,0-2.373,2.6c-1.313,2.4-1.324,5.39-.032,8.877a.74.74,0,0,1-.438.954m1.816,30.747a.878.878,0,0,1,0-1.755.878.878,0,0,1,0,1.755m3.329-4.62-.068.1a.386.386,0,0,1-.089.089c-.073.048-.16.1-.258.153l-.034.019,0,0c-.111.056-.234.114-.364.169a4.379,4.379,0,0,1-.833.261.321.321,0,0,1-.068.006.368.368,0,0,1-.073-.006l-.156-.034a.351.351,0,0,1-.2-.122l0,0a3.642,3.642,0,0,1-.68-1.46.358.358,0,0,1,.068-.269l.04-.053.056-.076a.406.406,0,0,1,.085-.081,3.936,3.936,0,0,1,1.516-.574c.019,0,.039,0,.058,0l.176.023a.387.387,0,0,1,.219.118,3.015,3.015,0,0,1,.678,1.55.333.333,0,0,1-.064.19m.715-4.025a.879.879,0,0,1,0-1.756.879.879,0,0,1,0,1.756M27.3,69.9c-1.768,6.457-2.457,7.663-3.83,10.066-.293.514-.627,1.1-1.007,1.8a.637.637,0,1,1-1.12-.606c.387-.715.723-1.305,1.022-1.826,1.32-2.309,1.982-3.469,3.706-9.771A.637.637,0,1,1,27.3,69.9m5.356-13.461a1,1,0,0,1-.287,1.157l-1.545,1.474L31.54,61a1.006,1.006,0,0,1-.235,1.062L29.851,63.5l.851,1.995a.636.636,0,0,1-.335.835.6.6,0,0,1-.25.052A.638.638,0,0,1,29.531,66l-.809-1.9-1.5,1.413a.635.635,0,0,1-.9-.027.638.638,0,0,1,.027-.9L27.926,63.1l-.767-1.943a1,1,0,0,1,.242-1.1l1.524-1.449-.638-1.955a1.01,1.01,0,0,1,.195-.97l1.379-1.592-1.02-1.93a1,1,0,0,1,.064-1.044l1.11-1.589-1.237-1.772a.637.637,0,1,1,1.044-.732L31,48.718l1.181-1.693a.637.637,0,0,1,1.044.732l-1.246,1.78L33.151,51.4a1,1,0,0,1-.044,1.131L31.8,54.3ZM33.35,68.8c-.034-.05-.066-.1-.1-.147a2.409,2.409,0,0,1-.311-2c.86-2.986,3.45-12.294,3.835-17.426a2.567,2.567,0,0,1,3.023-2.27,2.519,2.519,0,0,1,2.146,2.449v.053c-.066,3.041-.7,9.294-3.973,18.76a2.632,2.632,0,0,1-4.621.58m9.6,5.917a5.725,5.725,0,0,1-1.642.852c-.06.018-.121.035-.18.05l-.027,0a.629.629,0,0,1-.134.015.675.675,0,0,1-.393-.126l-.006,0v0h0l-.031-.023-.026-.021a.628.628,0,0,1-.069-.061l0,0a.624.624,0,0,1-.074-.1,5.821,5.821,0,0,1-.83-2.077v-.016a.543.543,0,0,1,0-.089l0-.029,0-.019.008-.082.01-.052a.627.627,0,0,1,.071-.2l.006-.013.027-.045.029-.039.011-.013c.01-.013.021-.023.034-.037l.01-.01.024-.021a.084.084,0,0,1,.026-.023,5.163,5.163,0,0,1,1.036-.622l.008,0c.04-.019.081-.039.121-.055l.058-.024.069-.029.092-.034.035-.013.1-.035.019-.006a1.024,1.024,0,0,1,.11-.031l.01,0,.09-.023.024,0,.052-.01c.019,0,.039-.008.056-.01h0l.058-.006h.006l.031,0,.013,0a.452.452,0,0,1,.081.006l.019,0c.024,0,.048.01.071.016l.019,0a.7.7,0,0,1,.081.032l.016.008q.039.019.077.044l0,0h0l.035.029.014.01a.609.609,0,0,1,.079.079l.011.011.01.013.029.037c.055.081.113.176.172.282a7.046,7.046,0,0,1,.7,1.766l.006.035a.676.676,0,0,1,.006.18c0,.021,0,.042-.008.063l-.01.053,0,.015a.664.664,0,0,1-.247.4m4.9,1.644-3.867,2.249a.634.634,0,0,1-.87-.23.637.637,0,0,1,.229-.87l3.677-2.138-1.442-4.9a.99.99,0,0,1,.443-1.13l3.97-2.369-2.095-4.494a.982.982,0,0,1,.238-1.155l3.521-3.155-2.359-3.231a.989.989,0,0,1,.121-1.3c.516-.488,1.811-1.7,2.676-2.419a.637.637,0,1,1,.817.976c-.752.627-1.851,1.647-2.438,2.2l2.362,3.237a.987.987,0,0,1-.139,1.321l-3.556,3.184,2.114,4.534a.993.993,0,0,1-.39,1.271l-4,2.386L48.3,75.227a.988.988,0,0,1-.453,1.134m15.567,14.59a.67.67,0,0,1-.193.029.634.634,0,0,1-.606-.443c-1.7-5.322-1.937-5.409-2.933-5.77-1.254-.458-10.541-3.345-10.635-3.374a.637.637,0,0,1,.379-1.217c.383.119,9.41,2.926,10.691,3.393a2.874,2.874,0,0,1,1.822,1.494,30.521,30.521,0,0,1,1.888,5.087.639.639,0,0,1-.414.8m4.513-4.392a1.663,1.663,0,0,1-1.979.546,1.729,1.729,0,0,1-.983-1.188l-.959-3.907a1.927,1.927,0,0,0-1.171-.807l-10.4-2.589c-.279-.064-.562-.113-.838-.185-.625-.163-.25-.917-.027-1.265a2.167,2.167,0,0,1,1.6-1.112c.056,0,.113-.006.168-.006H65.286a1.925,1.925,0,0,1,1.909,1.679l1.154,7.365a1.931,1.931,0,0,1-.422,1.47M79.781,69C79,71.076,76.951,75.227,72.1,81.487a.354.354,0,0,1-.633-.192c-1.358-19.4-3.54-23.867-4.3-29.137a.353.353,0,0,1,.59-.311c2.335,2.17,9.2,8.782,12.025,16.912a.352.352,0,0,1,0,.24m1.489-5.635a.68.68,0,0,1-.222.039.638.638,0,0,1-.6-.414,22.952,22.952,0,0,0-4.6-7.546,25.073,25.073,0,0,0-5.269-4.33.637.637,0,0,1,.675-1.08,24.743,24.743,0,0,1,10.39,12.51.639.639,0,0,1-.374.82m1.674-5.324a.354.354,0,0,1-.682.023c-1.993-6.358-9.65-9.847-11.018-10.424a.355.355,0,0,1-.214-.317l-.158-6.16a.353.353,0,0,1,.488-.334c9.346,3.84,11.737,6.245,12.115,6.784a.355.355,0,0,1,.061.151,35.4,35.4,0,0,1-.593,10.277M83.7,42.9a.638.638,0,0,1-.292,1.205.609.609,0,0,1-.29-.073L71.4,38.022a.637.637,0,0,1,.582-1.134Z" transform="translate(0 0)" fill="#fff3e9"/>
        <path id="Path_17775" data-name="Path 17775" d="M17.631,38.226l.648,1.639,1.228-1.217-.6-1.631Z" transform="translate(10.778 22.63)" fill="#fff3e9"/>
        <path id="Path_17776" data-name="Path 17776" d="M18.336,35.522l.53,1.621L20.2,35.87l-.685-1.711Z" transform="translate(11.209 20.882)" fill="#fff3e9"/>
      </g>
    </g>
  </g>
</svg>
