<svg xmlns="http://www.w3.org/2000/svg" xmlns:xlink="http://www.w3.org/1999/xlink" width="102" height="106" viewBox="0 0 102 106">
  <defs>
    <clipPath id="clip-path">
      <rect id="Rectángulo_2236" data-name="Rectángulo 2236" width="83.194" height="88.83" fill="none"/>
    </clipPath>
    <clipPath id="clip-Mesa_de_trabajo_7">
      <rect width="102" height="106"/>
    </clipPath>
  </defs>
  <g id="Mesa_de_trabajo_7" data-name="Mesa de trabajo – 7" clip-path="url(#clip-Mesa_de_trabajo_7)">
    <rect width="102" height="106" fill="rgba(255,255,255,0)"/>
    <g id="Grupo_35670" data-name="Grupo 35670" transform="translate(9.001 3.651)">
      <g id="Grupo_35669" data-name="Grupo 35669" transform="translate(0 0)" clip-path="url(#clip-path)">
        <path id="Trazado_16377" data-name="Trazado 16377" d="M81.484,56.669a.842.842,0,0,1,.843.856c-.553,18.025-18.536,32.5-40.634,32.5s-40.08-14.479-40.63-32.5a.84.84,0,0,1,.839-.856Z" transform="translate(-0.098 -5.204)" fill="#242ff8"/>
        <path id="Trazado_16378" data-name="Trazado 16378" d="M1.9,55.606H81.484a1.92,1.92,0,0,1,1.368.578,1.876,1.876,0,0,1,.537,1.369,29.3,29.3,0,0,1-3.6,13.161,35.125,35.125,0,0,1-9.032,10.651A43.184,43.184,0,0,1,57.63,88.491a50.126,50.126,0,0,1-31.874,0,43.18,43.18,0,0,1-13.123-7.125A35.116,35.116,0,0,1,3.6,70.715,29.285,29.285,0,0,1,0,57.558a1.864,1.864,0,0,1,.53-1.367A1.917,1.917,0,0,1,1.9,55.606Zm79.354,2.125H2.133A27.2,27.2,0,0,0,5.47,69.7a33.005,33.005,0,0,0,8.492,10.006A41.063,41.063,0,0,0,26.442,86.48a48,48,0,0,0,30.5,0,41.067,41.067,0,0,0,12.481-6.772A33.013,33.013,0,0,0,77.917,69.7,27.2,27.2,0,0,0,81.256,57.731Z" transform="translate(-0.098 -5.204)" fill="#242ff8"/>
        <path id="Trazado_16379" data-name="Trazado 16379" d="M61.009,95.344H26.729a1.977,1.977,0,0,1-1.975-1.975V83.41a1.978,1.978,0,0,1,1.975-1.979h34.28a1.979,1.979,0,0,1,1.979,1.979v9.959a1.978,1.978,0,0,1-1.979,1.975" transform="translate(-2.273 -7.478)" fill="#242ff8"/>
        <path id="Trazado_16380" data-name="Trazado 16380" d="M61.009,96.405H26.729a3.04,3.04,0,0,1-3.036-3.036V83.41a3.042,3.042,0,0,1,3.036-3.04h34.28a3.043,3.043,0,0,1,3.04,3.04v9.959A3.042,3.042,0,0,1,61.009,96.405ZM26.729,82.492a.917.917,0,0,0-.914.918v9.959a.915.915,0,0,0,.914.914h34.28a.917.917,0,0,0,.918-.914V83.41a.919.919,0,0,0-.918-.918Z" transform="translate(-2.273 -7.478)" fill="#242ff8"/>
        <path id="Trazado_16381" data-name="Trazado 16381" d="M79.518,55.544H4.506a1.388,1.388,0,0,1-1.321-1.817A13.123,13.123,0,0,1,15.66,44.651l.193,0a21.472,21.472,0,0,1,38.1-8.192,11.978,11.978,0,0,1,18.372,9.708A8.652,8.652,0,0,1,78.1,48.445a8.763,8.763,0,0,1,2.8,5.568,1.388,1.388,0,0,1-1.381,1.531Zm-72.9-2.777h71.16a5.865,5.865,0,0,0-6.636-3.709A1.389,1.389,0,0,1,69.5,47.541a8.783,8.783,0,0,0,.051-.958,9.2,9.2,0,0,0-15.045-7.1,1.388,1.388,0,0,1-2.045-.31A18.7,18.7,0,0,0,18.35,46.348,1.389,1.389,0,0,1,16.82,47.5a10.03,10.03,0,0,0-1.16-.073,10.236,10.236,0,0,0-6.133,2.02A10.344,10.344,0,0,0,6.614,52.767Z" transform="translate(-0.414 -2.69)" fill="#242ff8"/>
        <path id="Línea_553" data-name="Línea 553" d="M11.522,52.67a1.389,1.389,0,0,1-1.353-1.084L-1.355.3A1.389,1.389,0,0,1-.3-1.355,1.389,1.389,0,0,1,1.355-.3L12.878,50.977a1.39,1.39,0,0,1-1.356,1.693Z" transform="translate(7.95 5.592)" fill="#242ff8"/>
        <path id="Línea_554" data-name="Línea 554" d="M2.9,57A1.389,1.389,0,0,1,1.51,55.686L-1.387.072A1.388,1.388,0,0,1-.072-1.387,1.388,1.388,0,0,1,1.387-.072l2.9,55.614A1.388,1.388,0,0,1,2.969,57Z" transform="translate(20.762 1.261)" fill="#242ff8"/>
        <path id="Trazado_16382" data-name="Trazado 16382" d="M59.851,50.242a1.389,1.389,0,0,1-1.264-.813,6.348,6.348,0,0,0-9.236-2.7,1.388,1.388,0,0,1-1.967-.492,6.358,6.358,0,0,0-5.555-3.269,6.26,6.26,0,0,0-3.963,1.389,1.388,1.388,0,1,1-1.74-2.165,9.128,9.128,0,0,1,12.927,1.545,9.129,9.129,0,0,1,12.062,4.546,1.389,1.389,0,0,1-1.263,1.964Z" transform="translate(-3.397 -3.818)" fill="#242ff8"/>
        <path id="Línea_555" data-name="Línea 555" d="M20.935,1.388H0A1.388,1.388,0,0,1-1.389,0,1.388,1.388,0,0,1,0-1.388H20.935A1.388,1.388,0,0,1,22.324,0,1.388,1.388,0,0,1,20.935,1.388Z" transform="translate(31.127 81.347)" fill="#fdf3e9"/>
      </g>
    </g>
  </g>
</svg>
