<svg xmlns="http://www.w3.org/2000/svg" xmlns:xlink="http://www.w3.org/1999/xlink" width="285.077" height="58.5" viewBox="0 0 285.077 58.5">
  <defs>
    <clipPath id="clip-path">
      <rect id="Rectángulo_2542" data-name="Rectángulo 2542" width="57.485" height="58.5" fill="#fff3e9"/>
    </clipPath>
    <clipPath id="clip-path-2">
      <rect id="Rectángulo_2545" data-name="Rectángulo 2545" width="57.485" height="57.529" fill="#fff3e9"/>
    </clipPath>
    <clipPath id="clip-path-3">
      <rect id="Rectángulo_2546" data-name="Rectángulo 2546" width="57.485" height="57.521" fill="#fff3e9"/>
    </clipPath>
    <clipPath id="clip-path-4">
      <rect id="Rectángulo_2547" data-name="Rectángulo 2547" width="57.485" height="57.449" fill="#fff3e9"/>
    </clipPath>
  </defs>
  <g id="Grupo_36436" data-name="Grupo 36436" transform="translate(-804.924 -3515.32)">
    <g id="Grupo_36025" data-name="Grupo 36025" transform="translate(804.924 3515.32)">
      <g id="Grupo_36025-2" data-name="Grupo 36025" clip-path="url(#clip-path)">
        <path id="Trazado_20296" data-name="Trazado 20296" d="M28.654,0c15.4-.137,28.438,12.783,28.822,28.633.417,17.193-12.574,28.56-24.025,29.859V38.168h6.526l1.3-8.675H33.494a63.162,63.162,0,0,1,.061-7.044c.221-1.927,1.878-2.89,4.363-3.013,1.152-.057,2.31-.01,3.654-.01,0-2.288.05-4.364-.044-6.433-.017-.387-.606-1.064-.938-1.069-3.059-.042-6.221-.454-9.156.188-4.587,1-7.09,4.959-7.23,10.215-.061,2.273-.01,4.55-.01,7.042H17.029v8.678h7.048V58.5C12.886,57.285-.54,45.9.017,28.08A29.309,29.309,0,0,1,28.654,0" transform="translate(0 0)" fill="#fff3e9"/>
      </g>
    </g>
    <g id="Grupo_36029" data-name="Grupo 36029" transform="translate(880.788 3515.321)">
      <g id="Grupo_36028" data-name="Grupo 36028">
        <g id="Grupo_36027" data-name="Grupo 36027" clip-path="url(#clip-path-2)">
          <path id="Trazado_20471" data-name="Trazado 20471" d="M0,28.733a28.742,28.742,0,1,1,28.224,28.8A28.838,28.838,0,0,1,0,28.733m28.89-17.9c0-.022,0-.044,0-.066-2.718,0-5.437-.062-8.153.013-5.235.144-9.321,3.351-9.735,8.561a123.741,123.741,0,0,0-.119,18.483c.392,5.55,3.955,8.661,9.557,8.919,5.542.256,11.117.282,16.655-.011,5.946-.315,9.474-4.082,9.686-10.075.186-5.244.175-10.5,0-15.748-.182-5.61-3.528-9.365-9.013-10.015a75.916,75.916,0,0,0-8.883-.062" transform="translate(0 0)" fill="#fff3e9"/>
          <path id="Trazado_20472" data-name="Trazado 20472" d="M52.574,67.391c-2.717,0-5.438.09-8.151-.022-3.747-.154-6.179-2.2-6.358-5.895-.27-5.6-.344-11.235-.066-16.833.211-4.249,1.994-6.158,6.248-6.385a172.3,172.3,0,0,1,17.564.159,5.285,5.285,0,0,1,5.128,5.216c.221,6.1.235,12.212,0,18.306-.124,3.181-2.665,5.145-6.027,5.431-.308.026-.617.049-.925.05q-3.7.006-7.409,0c0-.01,0-.02,0-.03m9.254-14.517a9.3,9.3,0,1,0-9.484,9.237,9.2,9.2,0,0,0,9.484-9.237M64.4,42.937a2.054,2.054,0,0,0-2.3-1.991A2.014,2.014,0,0,0,60,43.075a2.05,2.05,0,0,0,2.2,2.23A2.122,2.122,0,0,0,64.4,42.937" transform="translate(-23.79 -23.96)" fill="#fff3e9"/>
          <path id="Trazado_20473" data-name="Trazado 20473" d="M73.3,67.611a5.97,5.97,0,0,1-11.94.075,5.97,5.97,0,1,1,11.94-.075" transform="translate(-38.593 -38.772)" fill="#fff3e9"/>
        </g>
      </g>
    </g>
    <g id="Grupo_36031" data-name="Grupo 36031" transform="translate(956.651 3515.321)">
      <g id="Grupo_36030" data-name="Grupo 36030" clip-path="url(#clip-path-3)">
        <path id="Trazado_20474" data-name="Trazado 20474" d="M28.813,0A28.76,28.76,0,1,1,0,28.584,28.658,28.658,0,0,1,28.813,0M35.9,10.162H29.479v2.25c0,7.782.034,15.565-.022,23.347a5.258,5.258,0,0,1-5.334,5.067A5.494,5.494,0,0,1,18.981,35.5a5.157,5.157,0,0,1,5.111-5.248c.587-.016,1.174,0,1.735,0V23.946a11.729,11.729,0,1,0,0,23.231,11.61,11.61,0,0,0,10.243-11.49c.056-4.176.011-8.354.011-12.781,2.867,1.537,5.586,2.738,8.777,2.468v-6.16c-4.9-1.12-8.193-3.741-8.952-9.052" transform="translate(0 0)" fill="#fff3e9"/>
      </g>
    </g>
    <g id="Grupo_36033" data-name="Grupo 36033" transform="translate(1032.515 3515.321)">
      <g id="Grupo_36032" data-name="Grupo 36032" clip-path="url(#clip-path-4)">
        <path id="Trazado_20475" data-name="Trazado 20475" d="M28.674,57.449A28.725,28.725,0,1,1,57.486,29.1a28.56,28.56,0,0,1-28.812,28.35m21.256-34.9a7.691,7.691,0,0,0-1.966-2.006c-11.805-5.99-24.159-6.78-36.871-3.62a2.714,2.714,0,0,0-2.138,3.5c.456,1.513,1.879,2.058,3.737,1.748a79.571,79.571,0,0,1,10.6-1.446c7.857-.233,15.482.955,22.519,4.811,1.947,1.067,4.118-.25,4.12-2.992M23.985,24.672c-3.8.658-7.621,1.257-11.408,2.007a2.091,2.091,0,0,0-1.74,2.638,2.2,2.2,0,0,0,2.786,1.778c.364-.063.722-.157,1.08-.247a34.8,34.8,0,0,1,17.385-.2,84.962,84.962,0,0,1,10.165,3.747c1.331.533,2.437.541,3.245-.69.836-1.274.355-2.376-.793-3.194a15.3,15.3,0,0,0-2.083-1.193,47.612,47.612,0,0,0-18.638-4.645M22.516,34.4c-1.712.244-5.123.687-8.517,1.235-1.147.185-2.248.77-1.981,2.189s1.321,1.733,2.689,1.444c1.622-.343,3.265-.615,4.911-.808,6.961-.816,13.621,0,19.81,3.584a2.409,2.409,0,0,0,2.143-.18,2.1,2.1,0,0,0,.512-1.915A3.367,3.367,0,0,0,40.525,38.5c-5.034-2.9-10.516-4.054-18.009-4.1" transform="translate(0 0)" fill="#fff3e9"/>
      </g>
    </g>
  </g>
</svg>
