<svg xmlns="http://www.w3.org/2000/svg" xmlns:xlink="http://www.w3.org/1999/xlink" width="267.911" height="259.681" viewBox="0 0 267.911 259.681">
  <defs>
    <clipPath id="clip-path">
      <rect id="Rectangle_2786" data-name="Rectangle 2786" width="219.273" height="207.271" fill="none"/>
    </clipPath>
  </defs>
  <g id="Group_36712" data-name="Group 36712" transform="translate(57.131) rotate(16)">
    <g id="Group_36711" data-name="Group 36711" clip-path="url(#clip-path)">
      <path id="Path_54827" data-name="Path 54827" d="M132.193,48.145a3.486,3.486,0,0,0-1.233-3.924,14.247,14.247,0,0,0-2.932-1.881c-2.768-1.232-5.6-2.332-8.4-3.5a16.88,16.88,0,0,1-1.905-.944.767.767,0,0,1-.321-.6,9.817,9.817,0,0,1,1.133-4.349,7.5,7.5,0,0,0,.519-1.066,1.084,1.084,0,0,0-.877-1.589,4.255,4.255,0,0,0-4.717,1.988,34.144,34.144,0,0,0-1.609,4.385c-.247.757-1,.706-1.638,1.064a4.565,4.565,0,0,0-1.655,1.659c-1.688,2.815-1.769,6.762-2.057,9.916-.318,3.468-.429,6.95-.638,10.425-.309,5.206-.527,10.417-.394,15.63,0,.151-.016.3-.032.568,0,.083-5.465-.574-6.019-.667-8.624-1.441-16.89-4.668-25.69-5.157-8.01-.448-16.368,1.128-23.147,5.265-.764.467-1.527.941-2.294,1.413-.157-.122-.294-.233-.437-.344a6.487,6.487,0,0,0-8.523.886,9.431,9.431,0,0,0-2.351,6.372c-.076,3.62,1.51,8.481,5.912,9.175,1.049.166,1.609-.5,1.269-1.424-.169-.457-.361-.909-.519-1.371a5.942,5.942,0,0,1-.272-1.585,6.109,6.109,0,0,1,.095-1.556c.234.771.44,1.555.75,2.3s.668,1.436,1.036,2.142q1.023,1.957,2.063,3.907c2.608,4.872,3.905,10.02,2.919,15.472-.715,3.94-2.744,7.525-3.277,11.522a9.724,9.724,0,0,0,.877,6.279,6.978,6.978,0,0,1,.78,1.924c.415,2.031.818,4.067,1.082,6.119.372,2.865.614,5.745.918,8.616a3.1,3.1,0,0,0,.565,1.921c1.161,1.294,2.329,2.585,3.546,3.835a1.977,1.977,0,0,0,1.073.455,24.237,24.237,0,0,0,6.309-.113.69.69,0,0,0,.633-1.035,4.137,4.137,0,0,0-.684-1.084c-1.307-1.5-2.644-2.963-3.957-4.45a6.381,6.381,0,0,1-1.242-1.562,26.054,26.054,0,0,1-1.465-6.752c-.252-1.96-.4-3.932-.574-5.9a13.841,13.841,0,0,1,.163-5.052,12.059,12.059,0,0,1,1.294-3.488q2.105-3.237,4.135-6.513a62.431,62.431,0,0,0,5.1-9.325,25.355,25.355,0,0,0,1.983-7.017c.054-.538.111-1.081.168-1.622.046,0,.095-.007.141-.013.109.154.22.308.326.464.764,1.106,1.449,2.268,2.3,3.31,6.35,7.739,15.123,9.712,24.4,12.908,3.456,1.192,3.4,7.53,3.684,10.328a71.45,71.45,0,0,1,.022,12.6c-.133,1.69-.31,3.378-.483,5.066a26.262,26.262,0,0,1-.369,2.99,1.813,1.813,0,0,0,.275,1.46,4.383,4.383,0,0,0,.331.473c1.038,1.193,2.073,2.388,3.132,3.565a1.773,1.773,0,0,0,.764.5,6.026,6.026,0,0,0,1.426.258c1.805.1,3.609.193,5.42.248.9.027,1.149-.391.734-1.144a3.949,3.949,0,0,0-.335-.525c-1.277-1.651-2.5-3.344-3.861-4.934a2.982,2.982,0,0,1-.676-2.4c.661-7.958,1.234-15.931,2.169-23.869.256-2.189,1.388-3.414,2.782-5.108,1.419-1.724,2.807-3.468,4.144-5.246A86.378,86.378,0,0,0,121.21,97.3a38.551,38.551,0,0,0,4.761-15.26A44.685,44.685,0,0,0,124.141,67.4c-1.217-4.552-3.068-9.074-2.837-13.841.016-.334.078-.525.476-.562q2.271-.218,4.541-.459c1.464-.157,2.932-.289,4.383-.507a1.525,1.525,0,0,0,1.392-1.507c.024-.282-.014-.566,0-.846a6.926,6.926,0,0,1,.1-1.531M119.876,66.826a.839.839,0,1,1,0-1.676.839.839,0,1,1,0,1.676m-1.255-24.573a.869.869,0,0,1,.09,0l.062,0,.014,0,.044.01.116.033.013,0,.04.012a.388.388,0,0,1,.051.024,3,3,0,0,1,.948.817h0l0,.01c.008.015.016.027.022.042l0,.013a.264.264,0,0,1,.017.039l0,.016a.226.226,0,0,1,.008.043l0,.012,0,.043v.043l0,.027,0,.022-.008.031,0,.015a.335.335,0,0,1-.021.05l0,.006a.441.441,0,0,1-.233.213h0l-.027.01-.022.006h0a7.681,7.681,0,0,1-.753.16c-.157.03-.32.052-.481.074l-.03,0-.025,0c-.2.027-.407.044-.589.05a.074.074,0,0,1-.025,0h0c-.019,0-.036,0-.055,0h-.009a.125.125,0,0,1-.025-.006.193.193,0,0,1-.044-.009l-.03-.01-.134-.039-.016-.006-.024-.009-.016,0L117.45,44l-.011-.007c-.171-.095-.834-.528-.957-.9l0-.013a.386.386,0,0,1,0-.212l0-.018,0-.007a.438.438,0,0,1,.255-.285l.013-.006.041-.015h0c.144-.042.335-.084.544-.127h.014a8.1,8.1,0,0,1,1.269-.156m-2.057-10.116a.377.377,0,0,1,.51,0,.324.324,0,0,1,0,.479,9.265,9.265,0,0,0-1.679,3.771.361.361,0,0,1-.72,0,9.657,9.657,0,0,1,1.889-4.25m-2.313,31.4.028-.166a.344.344,0,0,1,.13-.2l.013-.007a2.791,2.791,0,0,1,.424-.251l.04-.019c.024-.009.044-.022.07-.033s.059-.024.09-.039l.021-.007c.1-.044.207-.083.312-.119a.1.1,0,0,0,.03-.01c.013,0,.025-.006.035-.01a1.737,1.737,0,0,1,.579-.089.36.36,0,0,1,.19.071l.024.015.068.05a.309.309,0,0,1,.087.092,4.114,4.114,0,0,1,.549,1.453.3.3,0,0,1,0,.067c0,.022-.006.043-.011.065l-.04.148a.332.332,0,0,1-.136.187,3.514,3.514,0,0,1-.676.359l-.03.012-.008,0a3.442,3.442,0,0,1-.807.218l-.041,0a.387.387,0,0,1-.231-.08l-.127-.1a.31.31,0,0,1-.076-.084,4.127,4.127,0,0,1-.484-1.18,1.52,1.52,0,0,1-.033-.291.228.228,0,0,1,.006-.056m-3-2.613a.839.839,0,1,1,0,1.676.839.839,0,1,1,0-1.676m-11.2,22.139a5,5,0,0,1,1.592-1.251.392.392,0,0,1,.052-.022.746.746,0,0,1,.441-.027l.021.007a.28.28,0,0,1,.038.012h0l.021.009a.288.288,0,0,1,.038.016.124.124,0,0,1,.028.013l.03.013a.135.135,0,0,1,.022.013l.03.021.009.009a.425.425,0,0,1,.043.03c.063.053.131.116.2.185a6.975,6.975,0,0,1,1.036,1.29c.043.074.087.147.125.222l.009.013a.643.643,0,0,1,.059.173c0,.022.006.047.006.07l0,.034,0,.012v0a.621.621,0,0,1-.15.442,3.454,3.454,0,0,1-.256.274,5.694,5.694,0,0,1-1.092.857c-.076.047-.152.087-.228.126a.745.745,0,0,1-.323.076.423.423,0,0,1-.059,0,.686.686,0,0,1-.2-.043l-.04-.015-.035-.015a.688.688,0,0,1-.18-.114c-.065-.056-.146-.132-.233-.219l0,0h0a6.439,6.439,0,0,1-.923-1.152,2.164,2.164,0,0,1-.172-.356.075.075,0,0,1-.008-.027l-.011-.033c0-.021-.009-.042-.013-.064v0l-.014-.1a.636.636,0,0,1,0-.19.6.6,0,0,1,.13-.286m-.96,7.574c.108-.132.231-.267.364-.4a9.12,9.12,0,0,1,1.366-1.129.427.427,0,0,1,.043-.03l.038-.025a4.26,4.26,0,0,1,.76-.409l.046-.016a.96.96,0,0,1,.541-.01l.06.016.022.01a1,1,0,0,1,.215.114c.017.015.036.027.052.039l.057.05a10.5,10.5,0,0,1,2.106,2.637.832.832,0,0,1,.059.141l.006.021a.112.112,0,0,1,.006.028.581.581,0,0,1,.024.144l.006.084v.089a.838.838,0,0,1-.19.482,9.236,9.236,0,0,1-1.685,1.5l-.085.061-.008,0a5.816,5.816,0,0,1-.71.418c-.032.015-.066.028-.1.042a.944.944,0,0,1-.313.052.927.927,0,0,1-.342-.061l-.065-.024a.924.924,0,0,1-.277-.165,11.238,11.238,0,0,1-1.57-1.768,4.282,4.282,0,0,1-.533-.955.589.589,0,0,1-.035-.138l-.006-.025-.022-.159a.666.666,0,0,1-.006-.159v-.006c0-.021,0-.043.006-.064l0-.018a.81.81,0,0,1,.153-.348.143.143,0,0,1,.016-.022m.146,7.583c0-.016.006-.033.011-.049l0-.01a.544.544,0,0,1,.076-.169l0,0c.006-.012.016-.021.022-.033l.014-.019a4.708,4.708,0,0,1,.516-.523l.024-.024a.168.168,0,0,0,.03-.027,4.23,4.23,0,0,1,1.074-.7.779.779,0,0,1,.131-.037.743.743,0,0,1,.372.031l.043.016a.759.759,0,0,1,.18.11,6.6,6.6,0,0,1,1.3,1.583c.022.037.041.076.063.11a.768.768,0,0,1,.044.1l.006.022,0,.021a.888.888,0,0,1,.021.11v0l0,.05V98.8a.621.621,0,0,1-.016.156l0,.01a.42.42,0,0,1-.011.047.653.653,0,0,1-.117.2,5.315,5.315,0,0,1-.685.664,4.892,4.892,0,0,1-.842.571.419.419,0,0,1-.052.025.708.708,0,0,1-.32.077.774.774,0,0,1-.244-.043l-.019-.007-.04-.015-.032-.013a.688.688,0,0,1-.133-.076.222.222,0,0,1-.047-.037l-.016-.013a5.981,5.981,0,0,1-1.272-1.608.885.885,0,0,1-.049-.114l0-.006a.434.434,0,0,1-.017-.053c0-.019-.006-.04-.008-.061l-.01-.059-.006-.04a.477.477,0,0,1-.006-.065.676.676,0,0,1,.008-.126m-6.814-8.8,3.106-2.6-2.022-2.6a1.551,1.551,0,0,1,.214-2.137c.532-.47,1.866-1.638,2.763-2.339a1.435,1.435,0,0,1,1.93.162,1.234,1.234,0,0,1-.171,1.811c-.587.457-1.386,1.137-1.991,1.665l2.032,2.61a1.546,1.546,0,0,1-.244,2.167l-3.228,2.708,1.929,3.878a1.567,1.567,0,0,1-.682,2.081l-4.274,2.388a1.444,1.444,0,0,1-.7.181,1.391,1.391,0,0,1-1.179-.626A1.241,1.241,0,0,1,90.376,97l3.491-1.951L92,91.31a1.543,1.543,0,0,1,.415-1.9M82.339,77.577a4.973,4.973,0,0,1,1.593-1.288l.027-.012a.411.411,0,0,1,.06-.022.736.736,0,0,1,.441.006.844.844,0,0,1,.158.074l.014.009.016.012a.151.151,0,0,1,.033.025c.027.019.052.043.081.067a6.782,6.782,0,0,1,1.318,1.61.66.66,0,0,1,.065.17l0,.016,0,.028.008.039v.013l0,.039c0,.019,0,.039,0,.059a.618.618,0,0,1-.142.381v0a5.729,5.729,0,0,1-1.442,1.223l-.011.006-.1.055a.714.714,0,0,1-.331.08.773.773,0,0,1-.252-.043l-.036-.015-.047-.018-.014-.006-.014-.009c-.013-.007-.028-.013-.041-.022l-.024-.015a.053.053,0,0,1-.027-.018.1.1,0,0,1-.021-.015l-.028-.021a6.562,6.562,0,0,1-1.218-1.416,2.225,2.225,0,0,1-.149-.3l-.008-.021-.013-.043-.006-.033,0-.027,0-.024-.011-.074a.639.639,0,0,1,.022-.295.629.629,0,0,1,.1-.182M81.36,85a3.962,3.962,0,0,1,.366-.387,5.625,5.625,0,0,1,.736-.593l.022-.013c.028-.021.06-.042.09-.061a.445.445,0,0,0,.04-.022l.074-.046.041-.022c.024-.01.044-.024.066-.036l.022-.01A1.6,1.6,0,0,1,83,83.725a.458.458,0,0,1,.059-.021.77.77,0,0,1,.437.012l.006,0a.453.453,0,0,1,.106.049l.009,0a.12.12,0,0,1,.024.012l.032.019,0,0c.016.01.03.022.046.034.1.086.212.19.328.311a6.74,6.74,0,0,1,1.041,1.389.585.585,0,0,1,.062.178l0,.009,0,.019.006.047v0l0,.025v.04a.612.612,0,0,1-.144.422,5.585,5.585,0,0,1-1.582,1.261.725.725,0,0,1-.32.074.756.756,0,0,1-.26-.047l-.041-.016-.028-.012-.03-.015-.016-.007a.322.322,0,0,1-.04-.021.66.66,0,0,1-.1-.073,6.232,6.232,0,0,1-1.252-1.543c-.03-.067-.06-.13-.082-.19h0a.581.581,0,0,1-.03-.122l-.013-.1-.008-.064a.617.617,0,0,1,.092-.344A.729.729,0,0,1,81.36,85m-1.222,7.248a5,5,0,0,1,1.8-1.078.725.725,0,0,1,.464.037.144.144,0,0,1,.032.013.047.047,0,0,1,.019.01.69.69,0,0,1,.146.1h0a.488.488,0,0,0,.04.04c.024.027.051.053.071.082l.063.073,0,.006a6.017,6.017,0,0,1,.445.617.364.364,0,0,1,.027.04c.013.021.025.04.036.061s.041.067.062.1l0,0a6.183,6.183,0,0,1,.323.612l.014.033c.011.027.025.058.036.086s.036.084.054.126a.646.646,0,0,1,.04.264l0,.037v.015a.622.622,0,0,1-.2.421,5.469,5.469,0,0,1-.722.551,4.986,4.986,0,0,1-1.006.519c-.028.01-.059.018-.092.027a1.039,1.039,0,0,1-.155.013.663.663,0,0,1-.335-.082l-.028-.012-.01-.006-.017-.01a.7.7,0,0,1-.177-.138c-.036-.043-.085-.1-.133-.157a6.607,6.607,0,0,1-.845-1.347,2.146,2.146,0,0,1-.123-.372.6.6,0,0,1-.009-.059h0c0-.022,0-.039,0-.055v-.01l0-.046v-.052a.327.327,0,0,1,0-.055c0-.018,0-.039.006-.056a.636.636,0,0,1,.139-.3l.01-.01.035-.037M57.616,77.434h0a4.957,4.957,0,0,1,1.639-1.276.756.756,0,0,1,.5-.006.33.33,0,0,1,.047.021l.011,0a.53.53,0,0,1,.16.1,4.842,4.842,0,0,1,.54.537,6.335,6.335,0,0,1,.828,1.159.576.576,0,0,1,.073.256h0l0,.05,0,.044v.016l0,.009a.61.61,0,0,1-.144.366l0,0-.022.024a5.735,5.735,0,0,1-.877.806,4.278,4.278,0,0,1-.652.412.133.133,0,0,0-.027.016.693.693,0,0,1-.321.074h-.006a.431.431,0,0,1-.062,0h0a.717.717,0,0,1-.191-.044l-.041-.013-.046-.024-.011,0-.006,0a.162.162,0,0,1-.047-.025.661.661,0,0,1-.1-.071,5.6,5.6,0,0,1-1.336-1.734c0-.013-.006-.027-.011-.039l-.008-.021,0-.025c0-.013-.006-.027-.009-.039l0-.027-.011-.073a.626.626,0,0,1,.13-.473l0,0M56.751,82.9a4.443,4.443,0,0,1,.661-.329.868.868,0,0,1,.153-.046,1.145,1.145,0,0,1,.521.007c.033.007.065.018.1.028l.06.025a1,1,0,0,1,.28.169A13.263,13.263,0,0,1,60.476,84.9a11.778,11.778,0,0,1,.873,1.361c.011.018.019.039.028.056a.178.178,0,0,1,.016.04.168.168,0,0,1,.014.036.3.3,0,0,1,.019.062c.006.019.011.039.016.058s.006.028.008.043a.252.252,0,0,1,0,.034c0,.022.006.047.008.068l0,.05,0,.056v0a1.211,1.211,0,0,1,0,.153.09.09,0,0,0,0,.03l0,.016a1.163,1.163,0,0,1-.038.163.928.928,0,0,1-.179.317,11.759,11.759,0,0,1-3.011,2.468c-.076.043-.153.082-.231.12a1.09,1.09,0,0,1-.491.114,1.143,1.143,0,0,1-.408-.076l-.082-.03a.183.183,0,0,1-.046-.021.934.934,0,0,1-.21-.119l-.013-.01a.449.449,0,0,1-.062-.047c-.055-.05-.117-.1-.182-.163a13.846,13.846,0,0,1-2.272-2.773,4.42,4.42,0,0,1-.288-.609.634.634,0,0,1-.036-.15.277.277,0,0,1-.009-.039l-.03-.212a.942.942,0,0,1,.2-.735A11.117,11.117,0,0,1,56.751,82.9M53.9,100.491a.4.4,0,0,1,.244-.452l5.407-2.157a.424.424,0,0,1,.587.529A90.062,90.062,0,0,1,54.6,109a.435.435,0,0,1-.8-.3,23.352,23.352,0,0,0,.1-8.207m4.715-5.167,0,.007a1.021,1.021,0,0,1-.066.093,5.618,5.618,0,0,1-1.576,1.258c-.035.016-.07.03-.1.042a.787.787,0,0,1-.218.033.9.9,0,0,1-.177-.021.094.094,0,0,1-.024-.006h-.006l-.055-.019-.04-.016-.046-.018-.013-.006-.017-.01a.193.193,0,0,1-.035-.018.807.807,0,0,1-.1-.074,6.511,6.511,0,0,1-.714-.754l-.006,0c-.011-.013-.021-.027-.032-.039a3.677,3.677,0,0,1-.584-.935l0-.01a.18.18,0,0,1-.011-.036l-.006-.018,0-.021a.206.206,0,0,1-.009-.04l-.006-.039-.009-.056,0-.04a.6.6,0,0,1,.065-.334l0-.006a.769.769,0,0,1,.07-.1,5.35,5.35,0,0,1,1.294-1.1l.027-.016.009,0a2.162,2.162,0,0,1,.31-.153.589.589,0,0,1,.12-.033.724.724,0,0,1,.3.006l.013,0,.017.006.043.01a.7.7,0,0,1,.131.061.55.55,0,0,1,.095.067l.085.071a.488.488,0,0,0,.065.061l.008.009a5.991,5.991,0,0,1,.522.562.215.215,0,0,1,.03.036c.017.019.03.039.047.058l.07.089.006.009a6.337,6.337,0,0,1,.4.569.406.406,0,0,1,.035.055l.03.053a1.083,1.083,0,0,1,.07.123.6.6,0,0,1,.073.224l0,.033v.018l0,.033c0,.019,0,.04,0,.061a.609.609,0,0,1-.082.282m-7.863-3.359a.778.778,0,0,1-.263.046.76.76,0,0,1-.71-.465,13.327,13.327,0,0,1-1.048-5.769,8.809,8.809,0,0,1,1.215-3.967,8.291,8.291,0,0,1,2.967-2.963.784.784,0,0,1,1.032.274.686.686,0,0,1-.291.963,7.062,7.062,0,0,0-2.423,2.483c-1.34,2.3-1.35,5.154-.032,8.486a.7.7,0,0,1-.448.912m1.853,29.386a.839.839,0,1,1,0-1.676.839.839,0,1,1,0,1.676m3.4-4.414-.068.092a.348.348,0,0,1-.093.083,2.212,2.212,0,0,1-.261.148l-.036.016h0a3.769,3.769,0,0,1-.369.162,4.568,4.568,0,0,1-.851.251.431.431,0,0,1-.142,0l-.161-.031a.366.366,0,0,1-.2-.117l0,0a3.358,3.358,0,0,1-.695-1.392.319.319,0,0,1,.071-.258l.04-.052.059-.071a.323.323,0,0,1,.087-.077,4.125,4.125,0,0,1,1.546-.55.409.409,0,0,1,.06,0l.179.022a.2.2,0,0,1,.066.016.323.323,0,0,1,.155.095,2.794,2.794,0,0,1,.695,1.482.3.3,0,0,1-.066.181m.729-3.846a.84.84,0,1,1,0-1.679.84.84,0,1,1,0,1.679m8.1-16.106c-1.8,6.174-2.506,7.325-3.907,9.623-.3.489-.641,1.049-1.03,1.721a.653.653,0,0,1-.568.317.7.7,0,0,1-.312-.073.588.588,0,0,1-.261-.824c.4-.685.739-1.25,1.041-1.746,1.348-2.207,2.022-3.316,3.783-9.341a.658.658,0,0,1,.8-.425.605.605,0,0,1,.456.749M70.3,84.119A.919.919,0,0,1,70,85.227l-1.579,1.408.729,1.841a.913.913,0,0,1-.239,1.015l-1.484,1.38.869,1.906a.593.593,0,0,1-.342.8.7.7,0,0,1-.255.049.653.653,0,0,1-.6-.368l-.826-1.816-1.535,1.352a.68.68,0,0,1-.919-.03.58.58,0,0,1,.03-.858l1.612-1.421-.785-1.856a.911.911,0,0,1,.248-1.046l1.554-1.387-.65-1.866a.923.923,0,0,1,.2-.928l1.407-1.519L66.4,80.034a.906.906,0,0,1,.068-1L67.6,77.516l-1.261-1.7a.586.586,0,0,1,.158-.848.678.678,0,0,1,.905.153l1.206,1.616,1.207-1.616a.676.676,0,0,1,.9-.153.584.584,0,0,1,.161.848l-1.271,1.7L70.8,79.3a.9.9,0,0,1-.044,1.081l-1.337,1.693ZM71,95.934c-.035-.044-.07-.093-.1-.138a2.168,2.168,0,0,1-.32-1.912c.88-2.852,3.521-11.748,3.915-16.653a2.594,2.594,0,0,1,3.084-2.172,2.467,2.467,0,0,1,2.19,2.342v.05c-.068,2.905-.709,8.882-4.056,17.931A2.766,2.766,0,0,1,71,95.934m9.792,5.656a5.954,5.954,0,0,1-1.674.817c-.062.016-.125.033-.182.046l-.032.006a.666.666,0,0,1-.135.015.715.715,0,0,1-.4-.125l-.006,0h0l-.032-.019-.025-.021a.54.54,0,0,1-.071-.059h0a.533.533,0,0,1-.076-.092,5.354,5.354,0,0,1-.848-1.986l0-.016c0-.025,0-.055,0-.084l0-.025,0-.019.009-.079c0-.016.006-.034.01-.05a.613.613,0,0,1,.073-.191l.006-.01a.4.4,0,0,1,.027-.043l.028-.036.013-.013a.365.365,0,0,1,.033-.036l.014-.013a.079.079,0,0,1,.021-.018l.027-.022a5.571,5.571,0,0,1,1.055-.594l.011,0c.041-.018.079-.036.123-.05l.059-.024c.024-.009.047-.018.07-.028l.093-.031a.2.2,0,0,0,.036-.012c.038-.015.073-.024.109-.034l.019-.006c.038-.013.074-.024.111-.033h.009l.093-.024.024-.006c.019,0,.036-.006.052-.007a.37.37,0,0,1,.059-.01h0a.411.411,0,0,1,.06-.006h.006l.032,0,.013,0a.511.511,0,0,1,.082.006l.017,0c.027,0,.051.007.074.013l.017.006a.719.719,0,0,1,.082.03l.017.007a.756.756,0,0,1,.079.043h0l0,0c.014.007.027.018.04.024l.013.01c.028.025.057.049.084.076l.01.012.009.01c.011.012.019.025.028.037a2.568,2.568,0,0,1,.176.273,6.467,6.467,0,0,1,.712,1.684.089.089,0,0,1,0,.034.572.572,0,0,1,.008.172c0,.019-.006.04-.008.062l-.008.049-.006.015a.639.639,0,0,1-.253.378m5,1.573-3.943,2.149a.694.694,0,0,1-.329.083.66.66,0,0,1-.56-.3.589.589,0,0,1,.236-.833l3.75-2.043-1.47-4.69a.916.916,0,0,1,.451-1.078l4.051-2.265-2.136-4.3a.9.9,0,0,1,.241-1.1l3.592-3.013-2.405-3.091a.9.9,0,0,1,.125-1.245c.525-.464,1.847-1.622,2.728-2.314a.684.684,0,0,1,.916.077.58.58,0,0,1-.082.857c-.766.6-1.889,1.577-2.486,2.1l2.41,3.093a.9.9,0,0,1-.141,1.263l-3.63,3.043,2.157,4.334a.913.913,0,0,1-.4,1.212l-4.084,2.283,1.473,4.693a.916.916,0,0,1-.464,1.084m15.887,13.944a.669.669,0,0,1-.2.028.645.645,0,0,1-.617-.422c-1.736-5.089-1.976-5.17-2.994-5.515-1.279-.439-10.754-3.2-10.849-3.225a.6.6,0,0,1-.43-.762.661.661,0,0,1,.815-.4c.391.114,9.6,2.8,10.909,3.243a2.889,2.889,0,0,1,1.858,1.429,27.852,27.852,0,0,1,1.927,4.86.6.6,0,0,1-.419.765m4.6-4.2a1.776,1.776,0,0,1-2.019.523,1.689,1.689,0,0,1-1-1.135l-.979-3.735a1.969,1.969,0,0,0-1.195-.771l-10.611-2.477c-.283-.059-.573-.105-.854-.175-.636-.157-.255-.878-.025-1.208a2.211,2.211,0,0,1,1.627-1.064c.059,0,.116-.009.171-.009h12.2a1.924,1.924,0,0,1,1.946,1.607l1.179,7.041a1.77,1.77,0,0,1-.432,1.4m12.1-16.784c-.794,1.986-2.889,5.954-7.834,11.935a.368.368,0,0,1-.647-.182c-1.386-18.546-3.613-22.811-4.388-27.849a.361.361,0,0,1,.6-.3c2.381,2.077,9.388,8.394,12.268,16.164a.311.311,0,0,1,0,.23m1.519-5.388a.632.632,0,0,1-.229.041.651.651,0,0,1-.608-.394,21.7,21.7,0,0,0-4.7-7.216,25.3,25.3,0,0,0-5.375-4.138.585.585,0,0,1-.207-.837.677.677,0,0,1,.9-.191,24.033,24.033,0,0,1,10.6,11.954.591.591,0,0,1-.378.781m1.709-5.086a.37.37,0,0,1-.7.021c-2.033-6.076-9.846-9.409-11.24-9.961a.34.34,0,0,1-.22-.3l-.161-5.886a.358.358,0,0,1,.5-.322c9.537,3.672,11.975,5.972,12.363,6.486a.336.336,0,0,1,.06.144,31.733,31.733,0,0,1-.6,9.821m.771-14.468a.593.593,0,0,1,.28.82.654.654,0,0,1-.581.329.639.639,0,0,1-.293-.067l-11.952-5.747a.592.592,0,0,1-.283-.821.672.672,0,0,1,.875-.262Z" transform="translate(21.534 14.553)" fill="#fff"/>
      <path id="Path_54828" data-name="Path 54828" d="M26.688,86.677a3.815,3.815,0,0,1,.078,1.393.661.661,0,0,1-.612.511.715.715,0,0,1-.56-.175,2.738,2.738,0,0,1-.584-.666,6.864,6.864,0,0,0-.935-1.656,1.544,1.544,0,0,0-.927-.531,5.22,5.22,0,0,0-1.489.074L5.943,88.142a4.426,4.426,0,0,0-1.046.267.9.9,0,0,0-.454.421,1.262,1.262,0,0,0-.04.75l.34,1.865A1.709,1.709,0,0,0,5.29,92.5a2.87,2.87,0,0,0,1.26.525q.847.18,2.942.44l.326.047a5.7,5.7,0,0,1,1.442.448,1,1,0,0,1,.538.723.711.711,0,0,1-.408.86,3.817,3.817,0,0,1-1.674.218q-1.151-.031-2.881-.218a23.158,23.158,0,0,1-2.315-.289,5.274,5.274,0,0,1-1.359-.4.786.786,0,0,1-.468-.535,1.237,1.237,0,0,1,0-.412c.021-.148.043-.279.07-.394a4.479,4.479,0,0,0,.188-.806,3.377,3.377,0,0,0-.065-1.033L1.15,82.195a4.271,4.271,0,0,0-.329-1.122A5.632,5.632,0,0,0,.348,80.3a1.7,1.7,0,0,1-.335-.674.719.719,0,0,1,.171-.606,3.833,3.833,0,0,1,1.051-.729q.819-.445,2.258-1.072,1.664-.765,2.72-1.165a3.58,3.58,0,0,1,1.6-.322.749.749,0,0,1,.654.691.991.991,0,0,1-.25.849,4.553,4.553,0,0,1-1.2.9l-.456.206q-1.754.84-2.486,1.275a2.67,2.67,0,0,0-.991.87,1.536,1.536,0,0,0-.138,1.079L3.3,83.5a1.477,1.477,0,0,0,.312.746.845.845,0,0,0,.56.256,5.021,5.021,0,0,0,1.095-.092l15.58-2.492a5.9,5.9,0,0,0,1.584-.418,1.393,1.393,0,0,0,.688-.772,6.939,6.939,0,0,0,.278-1.865,3.4,3.4,0,0,1,.307-.824.677.677,0,0,1,.506-.331.738.738,0,0,1,.7.252,2.6,2.6,0,0,1,.451,1.217q.2,1.094.378,2.074c.12.654.222,1.282.31,1.885.1.578.209,1.159.315,1.736s.215,1.18.328,1.8" transform="translate(0 36.518)" fill="#fff"/>
      <path id="Path_54829" data-name="Path 54829" d="M21.939,76.717a8.34,8.34,0,0,1-.142,1.5,1.478,1.478,0,0,1-.334.726.7.7,0,0,1-.527.2.806.806,0,0,1-.75-.6,2.808,2.808,0,0,0-.508-1.253,1.39,1.39,0,0,0-.805-.458,10.532,10.532,0,0,0-1.565-.117L9.1,76.526a3.032,3.032,0,0,0-1.117.12q-.354.14-.367.694l-.009.393c0,.129-.006.249-.009.357a1.768,1.768,0,0,1-.125.731.381.381,0,0,1-.386.2.666.666,0,0,1-.62-.258,3.426,3.426,0,0,1-.4-.842q-.228-.656-.438-1.313c-.138-.439-.25-.854-.332-1.247a5.627,5.627,0,0,1-.242-1.442,1.18,1.18,0,0,1,.247-.794,1.048,1.048,0,0,1,.79-.224l1.81.039c.372.009.557-.03.56-.117,0-.042-.114-.122-.342-.236a8.5,8.5,0,0,1-2.223-1.617,3.781,3.781,0,0,1-.9-2.858,3.12,3.12,0,0,1,1.144-2.5,4.507,4.507,0,0,1,2.981-.829,3.482,3.482,0,0,1,1.935.565,1.678,1.678,0,0,1,.763,1.518,1.463,1.463,0,0,1-.462,1.051,1.414,1.414,0,0,1-1.247.313,3.2,3.2,0,0,0-.987-.135,1.442,1.442,0,0,0-.948.353,1.561,1.561,0,0,0-.434,1.2,2.339,2.339,0,0,0,.639,1.611,4.852,4.852,0,0,0,1.881,1.267,7.959,7.959,0,0,0,2.859.537l4.245.1a9.3,9.3,0,0,0,1.586-.062,1.415,1.415,0,0,0,.831-.437,3.3,3.3,0,0,0,.589-1.226,1.072,1.072,0,0,1,.307-.451.7.7,0,0,1,.475-.151.781.781,0,0,1,.517.188,1.252,1.252,0,0,1,.3.712,8.27,8.27,0,0,1,.065,1.5c-.038.587-.063,1.169-.081,1.745s-.019,1.156-.009,1.743" transform="translate(2.907 31.242)" fill="#fff"/>
      <path id="Path_54830" data-name="Path 54830" d="M28.929,68.305a4.784,4.784,0,0,1-.908,1.945,2.917,2.917,0,0,1-1.366.978,2.866,2.866,0,0,1-1.5.076,1.863,1.863,0,0,1-1.054-.58,1.117,1.117,0,0,1-.218-1.067,1.271,1.271,0,0,1,.6-.839,4.476,4.476,0,0,1,1.326-.451.82.82,0,0,0,.283.01c.1-.013.222-.025.369-.039a1.612,1.612,0,0,0,.693-.353,1.258,1.258,0,0,0,.418-.679,1.567,1.567,0,0,0-.312-1.423,7.621,7.621,0,0,0-1.736-1.427,5.584,5.584,0,0,1-.592-.363q-.275-.191-.619-.385c-.229-.129-.451-.249-.661-.36-1.19.188-2.375.387-3.557.587s-2.366.4-3.556.587q-1.759.322-3.548.621t-3.573.583a4.5,4.5,0,0,0-1,.3,1.912,1.912,0,0,0-.614.452,3.217,3.217,0,0,0-.481.8c-.006.021-.011.043-.016.064a1.368,1.368,0,0,1-.47.451.78.78,0,0,1-.551.064c-.407-.086-.622-.3-.646-.642A6.756,6.756,0,0,1,5.9,65.468q.325-1.167.568-2.151c.16-.66.331-1.392.506-2.2a3.538,3.538,0,0,1,.559-1.4.755.755,0,0,1,.769-.219.6.6,0,0,1,.342.208,1.745,1.745,0,0,1,.253.422c-.027.018-.038.031-.03.046s.024.031.041.058c-.006.021-.011.042-.016.062s-.011.043-.016.064a3.048,3.048,0,0,0,.133,1.2.643.643,0,0,0,.446.431,2.516,2.516,0,0,0,.845-.016l2.269-.363c.744-.12,1.487-.242,2.234-.372.786-.095,1.559-.2,2.312-.319s1.5-.227,2.244-.334c.171-.009.266-.061.29-.156s-.052-.182-.222-.265q-.99-.616-1.945-1.241t-1.978-1.25c-.411-.265-.832-.541-1.263-.823s-.862-.559-1.3-.835-.866-.541-1.3-.817a1.347,1.347,0,0,0-.714-.288.682.682,0,0,0-.527.323,3.7,3.7,0,0,0-.47.968.562.562,0,0,0-.125.141.543.543,0,0,1-.123.141,1.089,1.089,0,0,1-.321.215.734.734,0,0,1-.453.021.678.678,0,0,1-.552-.439,2.213,2.213,0,0,1,.076-1.1,6.191,6.191,0,0,0,.206-.762c.044-.234.09-.448.139-.639.117-.376.218-.766.305-1.172s.193-.851.313-1.338a1.583,1.583,0,0,1,.411-.8.657.657,0,0,1,.677-.139.614.614,0,0,1,.434.194,1.851,1.851,0,0,1,.229.452.272.272,0,0,0,0,.133,1.707,1.707,0,0,1,.028.173,3.883,3.883,0,0,0-.044.978.963.963,0,0,0,.274.562,4.013,4.013,0,0,0,.723.541c.04.031.079.062.12.092a1.2,1.2,0,0,0,.153.1q1.379.936,2.7,1.789.736.494,1.394.938c.44.3.9.584,1.377.867l1.489.992c.5.329,1.01.663,1.522.995l3.011,1.991a29.166,29.166,0,0,1,3.415,2.6,5.641,5.641,0,0,1,1.541,2.157,4.121,4.121,0,0,1,.063,2.423" transform="translate(3.28 24.254)" fill="#fff"/>
      <path id="Path_54831" data-name="Path 54831" d="M31.423,46.029a5.087,5.087,0,0,1-3.062,2.416,6.1,6.1,0,0,1-4.339-.946l-7.61-4.217a.948.948,0,0,0-.535-.144.6.6,0,0,0-.432.328l-.671,1.067a.837.837,0,0,1-.4.347.575.575,0,0,1-.511-.056,1.2,1.2,0,0,1-.585-.608.868.868,0,0,1,.062-.741l.585-.926a.323.323,0,0,0,.04-.414,2.081,2.081,0,0,0-.487-.477c-.155-.139-.293-.252-.411-.342s-.241-.185-.369-.28a9.343,9.343,0,0,1-1.283-1.2,1.46,1.46,0,0,1-.377-1,3.132,3.132,0,0,1,.574-1.389,1,1,0,0,1,.335-.342.626.626,0,0,1,.437-.082,1.715,1.715,0,0,1,.538.2l2.457,1.361a1.708,1.708,0,0,0,.484.191.662.662,0,0,0,.377-.018.55.55,0,0,0,.267-.231l2.374-3.76a.946.946,0,0,1,.366-.384c.112-.052.3,0,.559.136a1.043,1.043,0,0,1,.549.608.879.879,0,0,1-.135.722l-2.125,3.368a.769.769,0,0,0-.128.554.671.671,0,0,0,.38.457l7.1,3.934a4.324,4.324,0,0,0,2.663.68A2.461,2.461,0,0,0,29.9,43.632a3.213,3.213,0,0,0,.462-1.562,3.388,3.388,0,0,0-.453-1.842.676.676,0,0,1,.013-.6.532.532,0,0,1,.44-.248.608.608,0,0,1,.514.208,6.151,6.151,0,0,1,1.283,2.037,4.111,4.111,0,0,1,.172,2.16,6.267,6.267,0,0,1-.91,2.244" transform="translate(6.426 16.57)" fill="#fff"/>
      <path id="Path_54832" data-name="Path 54832" d="M33.816,43.56A9.17,9.17,0,0,1,32.676,44.6a1.642,1.642,0,0,1-.767.359.719.719,0,0,1-.69-1.086,2.769,2.769,0,0,0,.484-1.258,1.225,1.225,0,0,0-.293-.84,9.622,9.622,0,0,0-1.1-1.042l-11.839-10a2.594,2.594,0,0,0-.867-.535.991.991,0,0,0-.826.249,2.245,2.245,0,0,0-.413.528,6.067,6.067,0,0,1-.687.519.393.393,0,0,1-.475-.093.507.507,0,0,1-.286-.528,3.451,3.451,0,0,1,.261-.857l.047-.047q.282-.638.582-1.263c.2-.418.4-.8.616-1.15a5.031,5.031,0,0,1,.793-1.263,1.3,1.3,0,0,1,.75-.462,1.128,1.128,0,0,1,.771.344l6.877,5.809a5.019,5.019,0,0,0,.527.4c.111.064.182.08.212.046.047-.047.024-.185-.071-.412a7.95,7.95,0,0,1-.361-1.622,5.114,5.114,0,0,1,.248-1.986,5.8,5.8,0,0,1,1.462-2.323,6.437,6.437,0,0,1,2.342-1.556,5.334,5.334,0,0,1,2.883-.242,6.49,6.49,0,0,1,3.041,1.537l4.6,3.888a8.983,8.983,0,0,0,1.487,1.084,1.29,1.29,0,0,0,.959.15,5.057,5.057,0,0,0,1.207-.648,1.68,1.68,0,0,1,.636-.122.827.827,0,0,1,.5.2.627.627,0,0,1,.212.707,4.249,4.249,0,0,1-.987,1.318L42.974,34q-.7.725-1.538,1.6a4.32,4.32,0,0,1-1.193.969.713.713,0,0,1-.805-.11.743.743,0,0,1-.272-.471,1.2,1.2,0,0,1,.136-.655,1.9,1.9,0,0,0,.443-.92,1.141,1.141,0,0,0-.286-.7,9.89,9.89,0,0,0-1.095-1.1,1.208,1.208,0,0,1-.271-.206,2.94,2.94,0,0,0-.247-.231l-3.953-3.294a4.155,4.155,0,0,0-2.851-1.18,3.66,3.66,0,0,0-2.494,1.23,3.783,3.783,0,0,0-.94,1.754,3.866,3.866,0,0,0,.2,2.3A6.02,6.02,0,0,0,29.668,35.4l3.154,2.664a8.5,8.5,0,0,0,1.247.922,1.457,1.457,0,0,0,.934.175,3.441,3.441,0,0,0,1.275-.591,1.488,1.488,0,0,1,.57-.132.7.7,0,0,1,.467.173.69.69,0,0,1,.26.461,1.2,1.2,0,0,1-.258.7,8.458,8.458,0,0,1-.983,1.167q-.657.636-1.285,1.288T33.816,43.56" transform="translate(8.682 11.665)" fill="#fff"/>
      <path id="Path_54833" data-name="Path 54833" d="M44.237,30.432a8.345,8.345,0,0,1-4.258,1.53,8.048,8.048,0,0,1-4.189-.876,10.178,10.178,0,0,1-3.459-2.9,7.221,7.221,0,0,1-.842-7.874A8.035,8.035,0,0,1,34.2,17.23a7.478,7.478,0,0,1,3.413-1.338,6.63,6.63,0,0,1,3.209.394,5.305,5.305,0,0,1,2.326,1.66,3.833,3.833,0,0,1,.774,1.469,1.839,1.839,0,0,1-.177,1.272A3.482,3.482,0,0,1,42.56,21.9l-6,4.131a.443.443,0,0,0-.233.341.623.623,0,0,0,.158.4l.04.052a5.139,5.139,0,0,0,1.829,1.438,5.359,5.359,0,0,0,2.578.523,4.933,4.933,0,0,0,2.665-.892,5.552,5.552,0,0,0,1.943-2.129,5.724,5.724,0,0,0,.6-2.466l0-.046a.621.621,0,0,1,.881-.559.667.667,0,0,1,.381.465,5.93,5.93,0,0,1,.131,2.469,6.434,6.434,0,0,1-1,2.539,8.091,8.091,0,0,1-2.3,2.272m-4.064-8.725a1.876,1.876,0,0,0,.53-.48.617.617,0,0,0,.071-.492,1.945,1.945,0,0,0-.372-.674,4.908,4.908,0,0,0-1.573-1.33,3.617,3.617,0,0,0-3.877.243,3.388,3.388,0,0,0-1.231,1.464,3.7,3.7,0,0,0-.245,1.982,5.6,5.6,0,0,0,.885,2.28.873.873,0,0,0,.562.363.922.922,0,0,0,.655-.182Z" transform="translate(17.877 7.641)" fill="#fff"/>
      <path id="Path_54834" data-name="Path 54834" d="M68.177,23.231a1.523,1.523,0,0,1-.453.062,1.28,1.28,0,0,1-.385-.059,3.707,3.707,0,0,0-.858-.058,5.732,5.732,0,0,0-1.229.253l-8.646,2.5-1.165.338-.864.251c-.31.087-.655.191-1.032.3a2.842,2.842,0,0,1-1.165.166.694.694,0,0,1-.524-.529.717.717,0,0,1,.054-.565,1.775,1.775,0,0,1,.459-.54,4.84,4.84,0,0,0,1.211-.966,1.262,1.262,0,0,0,.275-.882,5.95,5.95,0,0,0-.321-1.356L49.157,8.872a6.319,6.319,0,0,0-.565-1.319,1.3,1.3,0,0,0-.752-.569,5.827,5.827,0,0,0-1.578-.141,1.45,1.45,0,0,1-.7-.191.809.809,0,0,1-.385-.448.646.646,0,0,1,.092-.711,2.779,2.779,0,0,1,1.081-.483L53.27,3a4.064,4.064,0,0,1,1.364-.221.669.669,0,0,1,.589.511.641.641,0,0,1-.1.575,2.314,2.314,0,0,1-.576.575,6.673,6.673,0,0,0-1.461,1.038A1.327,1.327,0,0,0,52.7,6.4a4.708,4.708,0,0,0,.285,1.367l4.689,14.206a2.88,2.88,0,0,0,.5,1,.8.8,0,0,0,.587.293,3.5,3.5,0,0,0,.929-.167l4.89-1.414a2.757,2.757,0,0,0,1.317-.759,3,3,0,0,0,.619-1.543,15.844,15.844,0,0,0,.062-3.126,1.5,1.5,0,0,1,.269-.843,1.11,1.11,0,0,1,.566-.387.771.771,0,0,1,.842.182,2.885,2.885,0,0,1,.492,1.377,17.755,17.755,0,0,1,.195,2.741c0,.978-.009,1.758-.051,2.338a3.106,3.106,0,0,1-.231,1.177.779.779,0,0,1-.472.391" transform="translate(26.276 1.339)" fill="#fff"/>
      <path id="Path_54835" data-name="Path 54835" d="M65.626,23.328a10.1,10.1,0,0,1-1.584.09,1.77,1.77,0,0,1-.834-.2.632.632,0,0,1-.291-.459c-.044-.326.131-.585.524-.786a3.192,3.192,0,0,0,1.245-.658,1.256,1.256,0,0,0,.362-.815,8.438,8.438,0,0,0-.114-1.467L62.909,4.155a2.612,2.612,0,0,0-.294-1c-.134-.216-.4-.3-.788-.253a1.714,1.714,0,0,1-.413.067A1.775,1.775,0,0,0,61,3.037a2.149,2.149,0,0,1-.739-.009.394.394,0,0,1-.294-.36.582.582,0,0,1,.18-.614,3.862,3.862,0,0,1,.828-.494q.662-.276,1.323-.585A12.338,12.338,0,0,1,63.563.462,6.6,6.6,0,0,1,65.049.021a1.368,1.368,0,0,1,.891.11.993.993,0,0,1,.345.731l2.41,17.694A7.7,7.7,0,0,0,69,20.013a1.3,1.3,0,0,0,.587.7,3.735,3.735,0,0,0,1.383.359,1.186,1.186,0,0,1,.521.219.62.62,0,0,1,.233.417.658.658,0,0,1-.125.507,1.349,1.349,0,0,1-.685.378,9.462,9.462,0,0,1-1.557.285q-.938.078-1.869.19c-.622.076-1.242.16-1.861.258" transform="translate(34.911 0)" fill="#fff"/>
      <path id="Path_54836" data-name="Path 54836" d="M73.546,20.515a5.811,5.811,0,0,1-4.027-1.347,4.154,4.154,0,0,1-1.211-3.251,4.1,4.1,0,0,1,2.09-3.458,10.392,10.392,0,0,1,5.53-1.3c.231.007.465.01.7,0s.453-.012.663-.028a4.351,4.351,0,0,0,1.544-.311.806.806,0,0,0,.408-.738l.027-.749a3.067,3.067,0,0,0-.859-2.36A3.569,3.569,0,0,0,75.867,6a3.262,3.262,0,0,0-2.253.666,2.484,2.484,0,0,0-.872,2.011,1.771,1.771,0,0,1-.68,1.008,2.132,2.132,0,0,1-1.28.3,1.337,1.337,0,0,1-.911-.356,1.191,1.191,0,0,1-.332-.956,3.438,3.438,0,0,1,1-2.287,6.227,6.227,0,0,1,2.6-1.565,10.269,10.269,0,0,1,3.62-.494,8.544,8.544,0,0,1,3.475.741,4.678,4.678,0,0,1,2.076,1.893,5.8,5.8,0,0,1,.7,2.877l-.147,6.163a2.724,2.724,0,0,0,.378,1.641,1.454,1.454,0,0,0,1.006.584l.209.009a.961.961,0,0,0,.527-.116,1.089,1.089,0,0,0,.361-.347c.071-.062.149-.125.233-.188a.361.361,0,0,1,.231-.09c.369.012.546.243.532.7a2.075,2.075,0,0,1-.443,1.161,3.229,3.229,0,0,1-1.182.961,3.43,3.43,0,0,1-1.666.356,3.521,3.521,0,0,1-2.154-.686,2.842,2.842,0,0,1-.959-1.954.3.3,0,0,0-.081-.2.228.228,0,0,0-.152-.1c-.047,0-.179.126-.4.379a6.3,6.3,0,0,1-1.976,1.749,7.227,7.227,0,0,1-3.785.651m1.568-2.007a3.887,3.887,0,0,0,2.16-.5,3.55,3.55,0,0,0,1.375-1.475,4.77,4.77,0,0,0,.476-2.139l-.008-.815A1.666,1.666,0,0,0,79,12.951a.623.623,0,0,0-.41-.291,4.623,4.623,0,0,0-1.04-.113l-.4-.013-.435-.012a5.573,5.573,0,0,0-3.386.709,2.634,2.634,0,0,0-1.138,2.152,3.039,3.039,0,0,0,.706,2.257,3,3,0,0,0,2.215.867" transform="translate(39.779 2.087)" fill="#fff"/>
      <path id="Path_54837" data-name="Path 54837" d="M82.656,20.2a11.9,11.9,0,0,1-1.511-.547,1.53,1.53,0,0,1-.658-.474.57.57,0,0,1-.043-.51.612.612,0,0,1,.29-.359,1.435,1.435,0,0,1,.576-.132,3.11,3.11,0,0,0,1.408-.1,1.381,1.381,0,0,0,.69-.611,9.435,9.435,0,0,0,.573-1.386l2.525-7.256a2.121,2.121,0,0,0,.163-1c-.043-.231-.239-.433-.593-.609a1.376,1.376,0,0,1-.354-.092c-.116-.047-.231-.087-.34-.122a4.317,4.317,0,0,1-.763-.283c-.133-.076-.161-.216-.09-.422a.6.6,0,0,1,.4-.476,4.483,4.483,0,0,1,.946-.141c.241.006.464.018.666.033s.375.022.524.022a19.308,19.308,0,0,1,1.964-.018,5.609,5.609,0,0,1,1.339.2,1.214,1.214,0,0,1,.707.439.924.924,0,0,1,0,.8l-.389,1.118a6.327,6.327,0,0,0-.225.753c-.029.151-.01.239.059.259.021.006.1-.059.25-.2a11.224,11.224,0,0,1,1.342-1.015,5.268,5.268,0,0,1,1.932-.661,6.076,6.076,0,0,1,2.782.267,4.619,4.619,0,0,1,2.361,1.527,4.65,4.65,0,0,1,.938,2.671.9.9,0,0,0,.052.273.207.207,0,0,0,.139.127.232.232,0,0,0,.185-.062,1.409,1.409,0,0,0,.242-.219,8.741,8.741,0,0,1,1.407-.993,5.469,5.469,0,0,1,1.905-.584,6.011,6.011,0,0,1,2.635.273,5.311,5.311,0,0,1,3.293,2.428q.94,1.712-.04,4.635l-1.93,5.652a12.58,12.58,0,0,0-.462,1.542,1.112,1.112,0,0,0,.111.789,1.936,1.936,0,0,0,.889.649.34.34,0,0,0,.052.067.133.133,0,0,0,.06.034,1.457,1.457,0,0,1,.277.411.662.662,0,0,1-.028.455.714.714,0,0,1-.574.442,2.061,2.061,0,0,1-1.052-.082l-2.5-.762q-1.339-.411-2.5-.762a2.8,2.8,0,0,1-.761-.338.945.945,0,0,1-.356-.4.637.637,0,0,1,0-.465.73.73,0,0,1,.305-.4,1.277,1.277,0,0,1,.582-.148,2.4,2.4,0,0,0,1.117-.105,1.39,1.39,0,0,0,.617-.565,6.1,6.1,0,0,0,.511-1.147l.117-.344,1.725-5.062a4.306,4.306,0,0,0,.117-2.966,2.745,2.745,0,0,0-1.867-1.582,3.523,3.523,0,0,0-1.821-.025,4.148,4.148,0,0,0-1.891,1.069,5.8,5.8,0,0,0-1.426,2.361l-1.456,4.186a9.95,9.95,0,0,0-.419,1.464,1.54,1.54,0,0,0,.128.95,2.353,2.353,0,0,0,1.01.891.909.909,0,0,1,.233.328.562.562,0,0,1-.01.393.669.669,0,0,1-.5.482,2.129,2.129,0,0,1-1.019-.122q-1.334-.476-2.6-.861t-2.57-.714a2.214,2.214,0,0,1-.978-.5.648.648,0,0,1-.108-.686.722.722,0,0,1,.734-.532,2.272,2.272,0,0,0,1.275-.141,1.54,1.54,0,0,0,.655-.673,12.011,12.011,0,0,0,.552-1.377l1.6-4.589a5.089,5.089,0,0,0,.305-3.4,2.759,2.759,0,0,0-1.894-1.607,3.436,3.436,0,0,0-1.79-.013,4.125,4.125,0,0,0-1.94,1.158,6.625,6.625,0,0,0-1.527,2.6L87.6,17.143a9.459,9.459,0,0,0-.413,1.453,1.337,1.337,0,0,0,.133.882,2.29,2.29,0,0,0,.953.787.756.756,0,0,1,.294.415.815.815,0,0,1-.024.491.6.6,0,0,1-.29.357,1.268,1.268,0,0,1-.682.067,7.237,7.237,0,0,1-1.373-.317q-.883-.3-1.793-.581t-1.749-.5" transform="translate(46.824 2.738)" fill="#fff"/>
      <path id="Path_54838" data-name="Path 54838" d="M102.309,28.125a5.292,5.292,0,0,1-2.649-3.145,4.1,4.1,0,0,1,.815-3.357,4.522,4.522,0,0,1,3.731-1.893,10.37,10.37,0,0,1,5.423,1.648c.191.122.389.239.587.353s.394.212.579.3a4.315,4.315,0,0,0,1.484.5.887.887,0,0,0,.766-.422l.446-.621a3.035,3.035,0,0,0,.609-2.425,3.241,3.241,0,0,0-1.6-2.091,3.278,3.278,0,0,0-2.285-.556,2.739,2.739,0,0,0-1.881,1.272,1.942,1.942,0,0,1-1.146.517,2.129,2.129,0,0,1-1.258-.382,1.2,1.2,0,0,1-.571-.752,1.19,1.19,0,0,1,.26-.977,3.792,3.792,0,0,1,2.146-1.439,6.528,6.528,0,0,1,3.089-.036A9.989,9.989,0,0,1,114.2,16a7.86,7.86,0,0,1,2.525,2.357A4.276,4.276,0,0,1,117.413,21a5.867,5.867,0,0,1-1.035,2.787l-3.614,5.151a2.749,2.749,0,0,0-.611,1.58,1.342,1.342,0,0,0,.522,1l.174.108a.945.945,0,0,0,.51.165,1.194,1.194,0,0,0,.5-.114c.1-.018.2-.033.305-.044a.377.377,0,0,1,.245.037c.307.193.326.48.054.86a2.291,2.291,0,0,1-1.032.763,3.505,3.505,0,0,1-1.546.225,3.384,3.384,0,0,1-1.614-.526,3.2,3.2,0,0,1-1.438-1.651,2.76,2.76,0,0,1,.3-2.133.286.286,0,0,0,.043-.208c-.009-.086-.032-.141-.071-.165a1.358,1.358,0,0,0-.549.126,6.886,6.886,0,0,1-2.668.5,7.134,7.134,0,0,1-3.578-1.33m2.467-.922a3.809,3.809,0,0,0,4.119.079,5.217,5.217,0,0,0,1.614-1.577l.457-.694a1.718,1.718,0,0,0,.253-.587.559.559,0,0,0-.182-.449,4.443,4.443,0,0,0-.818-.612c-.1-.062-.206-.132-.334-.209s-.244-.154-.359-.228a5.493,5.493,0,0,0-3.272-1.079A2.885,2.885,0,0,0,104.07,23.1a3.029,3.029,0,0,0-.68,2.263,2.72,2.72,0,0,0,1.386,1.837" transform="translate(57.988 6.972)" fill="#fff"/>
      <path id="Path_54839" data-name="Path 54839" d="M118.591,44.2a11.917,11.917,0,0,1-1.9-3.028,12.791,12.791,0,0,1-.652-2.4c-.027-.142-.057-.271-.09-.384a.949.949,0,0,0-.172-.326c-.043-.053-.122-.071-.242-.058a2.022,2.022,0,0,0-.413.11,1.89,1.89,0,0,1-.641.2.624.624,0,0,1-.5-.218.753.753,0,0,1,.074-.725,9.925,9.925,0,0,1,1.036-1.479c.1-.126.2-.255.3-.39a4.173,4.173,0,0,1,.351-.431,26.982,26.982,0,0,1,2.211-2.4,4.052,4.052,0,0,1,1.468-.989.8.8,0,0,1,1.076.771,1.941,1.941,0,0,1-.347.794q-.328.514-1.017,1.447a5.747,5.747,0,0,0-1.187,2.216,4.637,4.637,0,0,0,.049,2.429,7.632,7.632,0,0,0,1.476,2.69,5.444,5.444,0,0,0,3.147,2.093,4.26,4.26,0,0,0,3.416-.787,3.432,3.432,0,0,0,1.6-2.753,11.654,11.654,0,0,0-1-4.432,13.717,13.717,0,0,1-.9-3.849,6.08,6.08,0,0,1,.532-3.062,6.3,6.3,0,0,1,2.149-2.4,6.039,6.039,0,0,1,3.184-1.131,6.234,6.234,0,0,1,3.26.709,8.62,8.62,0,0,1,2.764,2.318,9.034,9.034,0,0,1,1.554,2.6,10.125,10.125,0,0,1,.494,2.2c.043.16.082.3.122.425a.9.9,0,0,0,.142.286.263.263,0,0,0,.261.082,1.145,1.145,0,0,0,.366-.114,1.809,1.809,0,0,1,.623-.252.425.425,0,0,1,.435.162.6.6,0,0,1,.062.568,4.6,4.6,0,0,1-.544,1.035A18.531,18.531,0,0,1,140,37.258a23.669,23.669,0,0,1-1.785,1.983,3.538,3.538,0,0,1-1.267.888.8.8,0,0,1-.892-.353.76.76,0,0,1-.187-.48,1.778,1.778,0,0,1,.277-.743c.184-.331.44-.763.769-1.293a5.281,5.281,0,0,0,.975-2.373,5.024,5.024,0,0,0-.185-2.192,5.685,5.685,0,0,0-.954-1.8A5.5,5.5,0,0,0,135,29.416a3.86,3.86,0,0,0-1.908-.454,3.142,3.142,0,0,0-1.731.583,3.351,3.351,0,0,0-1.486,2.547,9.123,9.123,0,0,0,.97,4.21.594.594,0,0,0,.052.145.614.614,0,0,1,.052.148,14.477,14.477,0,0,1,1.142,4.125,6.509,6.509,0,0,1-.44,3.261,6.05,6.05,0,0,1-2.179,2.524,7.006,7.006,0,0,1-3.747,1.324,7.481,7.481,0,0,1-3.856-.882,10.274,10.274,0,0,1-3.282-2.75" transform="translate(66.342 12.394)" fill="#fff"/>
      <path id="Path_54840" data-name="Path 54840" d="M122.126,49.223a4.943,4.943,0,0,1-.5-3.981,4.462,4.462,0,0,1,2.575-2.458,4.7,4.7,0,0,1,4.236.222,9.447,9.447,0,0,1,3.7,4.067c.093.2.2.393.3.587s.214.374.321.544a3.946,3.946,0,0,0,.983,1.158.93.93,0,0,0,.888.015l.729-.31a3.307,3.307,0,0,0,1.877-1.765,3.44,3.44,0,0,0-1.829-4.164,2.894,2.894,0,0,0-2.313.16,2.022,2.022,0,0,1-1.264-.125,1.923,1.923,0,0,1-.858-.941,1.134,1.134,0,0,1-.065-.922,1.288,1.288,0,0,1,.767-.7,4.021,4.021,0,0,1,2.631-.172,6.291,6.291,0,0,1,2.654,1.487,9.132,9.132,0,0,1,2.076,2.821,7.194,7.194,0,0,1,.831,3.249,4.311,4.311,0,0,1-.891,2.581,6.456,6.456,0,0,1-2.44,1.865l-5.961,2.61a3.015,3.015,0,0,0-1.405,1.044,1.285,1.285,0,0,0-.114,1.107l.085.176a.869.869,0,0,0,.343.391,1.184,1.184,0,0,0,.494.15c.092.033.187.068.283.111a.358.358,0,0,1,.188.153c.153.317.008.569-.435.759a2.461,2.461,0,0,1-1.305.144,3.43,3.43,0,0,1-1.443-.568,3.091,3.091,0,0,1-1.081-1.241,2.626,2.626,0,0,1,1.149-3.786.326.326,0,0,0,.152-.154.2.2,0,0,0,.032-.175,1.38,1.38,0,0,0-.54-.163,6.766,6.766,0,0,1-2.551-.885,6.473,6.473,0,0,1-2.3-2.887m2.614.424a3.526,3.526,0,0,0,1.442,1.589,3.893,3.893,0,0,0,2.021.5,5.717,5.717,0,0,0,2.256-.551l.777-.368a1.839,1.839,0,0,0,.546-.375.55.55,0,0,0,.1-.468,3.935,3.935,0,0,0-.354-.925c-.047-.1-.1-.213-.165-.342s-.123-.253-.182-.372A5.019,5.019,0,0,0,129,45.812a3.033,3.033,0,0,0-2.563,0,3.318,3.318,0,0,0-1.847,1.59,2.561,2.561,0,0,0,.153,2.246" transform="translate(70.698 19.431)" fill="#fff"/>
      <path id="Path_54841" data-name="Path 54841" d="M126.214,61.6a5.245,5.245,0,0,1,.06-2.781,4.468,4.468,0,0,1,1.7-2.241,8.764,8.764,0,0,1,3.507-1.4l6.3-1.26a2.732,2.732,0,0,0,1.054-.376.692.692,0,0,0,.18-.769c-.03-.127-.059-.255-.089-.384s-.055-.243-.081-.35a1.744,1.744,0,0,1-.052-.706.433.433,0,0,1,.318-.314.754.754,0,0,1,.676.147,3.482,3.482,0,0,1,.593.734q.385.589.752,1.183t.625,1.109a5.723,5.723,0,0,1,.6,1.381,1.133,1.133,0,0,1-.043.824,1,1,0,0,1-.71.393l-8.75,1.751a5.539,5.539,0,0,0-3.185,1.487,2.85,2.85,0,0,0-.506,2.619,3.344,3.344,0,0,0,1.006,1.682,4.442,4.442,0,0,0,2.127,1.06,7.645,7.645,0,0,0,3.136-.061l4.733-.947A2.717,2.717,0,0,0,141.213,64a.69.69,0,0,0,.18-.768c-.03-.127-.057-.256-.087-.384s-.055-.245-.081-.353a1.688,1.688,0,0,1-.054-.7.435.435,0,0,1,.321-.314.748.748,0,0,1,.674.15,3.661,3.661,0,0,1,.587.7l.758,1.215c.244.394.451.765.625,1.109a6.144,6.144,0,0,1,.6,1.38,1.149,1.149,0,0,1-.043.827,1.018,1.018,0,0,1-.712.393l-11.608,2.32a3.028,3.028,0,0,0-1.041.359.654.654,0,0,0-.2.757,1.7,1.7,0,0,1,.111.394,1.4,1.4,0,0,0,.1.365,1.661,1.661,0,0,1,.051.688.4.4,0,0,1-.356.307.684.684,0,0,1-.668-.117,3.62,3.62,0,0,1-.595-.732c-.231-.4-.478-.793-.733-1.187a10.437,10.437,0,0,1-.65-1.135,5.729,5.729,0,0,1-.592-1.349,1.13,1.13,0,0,1,.04-.843,1.1,1.1,0,0,1,.748-.381l1.771-.356a1.909,1.909,0,0,0,.4-.114c.085-.037.12-.089.106-.153a1.306,1.306,0,0,0-.392-.157,7.572,7.572,0,0,1-2.56-1.238,5.044,5.044,0,0,1-1.7-3.077" transform="translate(73.411 24.595)" fill="#fff"/>
      <path id="Path_54842" data-name="Path 54842" d="M127.64,73.835a7.2,7.2,0,0,1,4.228-6.826,10.132,10.132,0,0,1,4.418-.958,9.537,9.537,0,0,1,4.458,1.017,7.767,7.767,0,0,1,3.089,2.763,7.013,7.013,0,0,1,1.109,3.8,7.429,7.429,0,0,1-.636,3.052,6.086,6.086,0,0,1-1.8,2.369,4.117,4.117,0,0,1-2.59.919,1.8,1.8,0,0,1-1.116-.338,1.11,1.11,0,0,1-.454-.929,1.6,1.6,0,0,1,.413-1.175,2.762,2.762,0,0,1,1.252-.657,4.279,4.279,0,0,0,2.312-.983,2.963,2.963,0,0,0,.881-2.349,3.044,3.044,0,0,0-.684-1.891,4.774,4.774,0,0,0-1.937-1.414,7.533,7.533,0,0,0-2.959-.531,11.81,11.81,0,0,0-3.777.583,5.812,5.812,0,0,0-2.658,1.733,4.229,4.229,0,0,0-.965,2.824,5.084,5.084,0,0,0,.685,2.624,6.129,6.129,0,0,0,1.728,1.9,1.419,1.419,0,0,1,.3.293.432.432,0,0,1,.085.228.515.515,0,0,1-.293.525.953.953,0,0,1-.644.031,6.908,6.908,0,0,1-2.249-1.33,6.345,6.345,0,0,1-1.59-2.214,7.48,7.48,0,0,1-.6-3.064" transform="translate(74.333 31.854)" fill="#fff"/>
      <path id="Path_54843" data-name="Path 54843" d="M126.7,83.848a7.337,7.337,0,0,1,1.965-3.855,7.75,7.75,0,0,1,3.684-2.062,11.066,11.066,0,0,1,4.644-.123,8.309,8.309,0,0,1,4.048,1.814,7.66,7.66,0,0,1,2.347,3.356,7.411,7.411,0,0,1,.291,3.981,6.565,6.565,0,0,1-1.494,3.174,6.326,6.326,0,0,1-2.617,1.785,5.7,5.7,0,0,1-2.908.292,4.392,4.392,0,0,1-1.641-.566,1.985,1.985,0,0,1-.8-1.035,3.209,3.209,0,0,1-.03-1.648l1.323-6.867a.418.418,0,0,0-.081-.4.69.69,0,0,0-.405-.185l-.068-.013a5.582,5.582,0,0,0-2.381.133,5.137,5.137,0,0,0-2.255,1.285,4.341,4.341,0,0,0-1.282,2.366,5.139,5.139,0,0,0,.155,2.8,5.989,5.989,0,0,0,1.375,2.177l.029.04a.6.6,0,0,1,.185.5.558.558,0,0,1-.413.476.743.743,0,0,1-.619-.092,6.6,6.6,0,0,1-1.91-1.709A6.443,6.443,0,0,1,126.7,86.98a7.348,7.348,0,0,1,0-3.132m9.355,3.713a1.738,1.738,0,0,0-.03.691.648.648,0,0,0,.31.4,2.118,2.118,0,0,0,.766.251,5.244,5.244,0,0,0,2.114-.049,3.6,3.6,0,0,0,1.722-.909,3.254,3.254,0,0,0,.915-1.768,3.149,3.149,0,0,0-.18-1.854,3.981,3.981,0,0,0-1.277-1.6,6.489,6.489,0,0,0-2.32-1.082.906.906,0,0,0-.673.1.8.8,0,0,0-.34.553Z" transform="translate(73.687 37.434)" fill="#fff"/>
      <path id="Path_54844" data-name="Path 54844" d="M11.673,94.533a.669.669,0,0,1,.275-.322.644.644,0,0,1,.529-.012l6.6,2.22a.819.819,0,0,1,.484.421.728.728,0,0,1,0,.618l-2.7,6.054q-.173.558-.8.332l-6.551-2.219a.771.771,0,0,1-.543-.408.735.735,0,0,1,.03-.621Z" transform="translate(5.197 45.405)" fill="#fff"/>
      <path id="Path_54845" data-name="Path 54845" d="M17.9,117.537a8.661,8.661,0,0,1-.913-1.217,1.454,1.454,0,0,1-.26-.768.627.627,0,0,1,.266-.473.788.788,0,0,1,.991.007,2.914,2.914,0,0,0,1.222.667,1.442,1.442,0,0,0,.945-.15,10.008,10.008,0,0,0,1.286-.867l7.4-5.59a.726.726,0,0,0,.35-.578.8.8,0,0,0-.2-.542l-1.027-1.192a.462.462,0,0,1-.116-.4.61.61,0,0,1,.253-.379,1.248,1.248,0,0,1,.8-.291.767.767,0,0,1,.571.219l1.331,1.546a2.888,2.888,0,0,0,.457-.428l.441-.5c.248-.3.535-.627.856-.981a7.638,7.638,0,0,1,1.051-.962,4.045,4.045,0,0,1,2.2-.823,4.993,4.993,0,0,1,2.492.5,7.8,7.8,0,0,1,3.761,4.239,4.187,4.187,0,0,1,.153,2.335,3.143,3.143,0,0,1-1.207,1.816,1.513,1.513,0,0,1-.991.307,1.318,1.318,0,0,1-.97-.5,1.359,1.359,0,0,1-.394-1,2.18,2.18,0,0,1,.483-1.076,2.36,2.36,0,0,0,.828-1.506,2.057,2.057,0,0,0-.574-1.577,2.487,2.487,0,0,0-1.725-.937,2.71,2.71,0,0,0-1.875.6,5.112,5.112,0,0,0-1.048,1.044q-.425.571-.817,1.207a3.238,3.238,0,0,1-.32.617,1.821,1.821,0,0,1-.4.425l2.294,2.664a.922.922,0,0,1,.247.442c.019.126-.063.258-.242.393a1.408,1.408,0,0,1-.816.3.778.778,0,0,1-.652-.239l-1.53-1.777a1.1,1.1,0,0,0-.622-.411.922.922,0,0,0-.7.233l-7.341,5.547a8.545,8.545,0,0,0-1.168,1.009,1.33,1.33,0,0,0-.343.846,2.783,2.783,0,0,0,.41,1.282,1.131,1.131,0,0,1,.065.516.588.588,0,0,1-.247.417.757.757,0,0,1-.527.166,1.373,1.373,0,0,1-.7-.348,8.561,8.561,0,0,1-1.078-1.091Z" transform="translate(9.743 50.073)" fill="#fff"/>
      <path id="Path_54846" data-name="Path 54846" d="M24.721,124.649a9.232,9.232,0,0,1-1.131-1.067,1.488,1.488,0,0,1-.378-.7.61.61,0,0,1,.176-.507.852.852,0,0,1,.975-.15,3.283,3.283,0,0,0,1.35.442,1.437,1.437,0,0,0,.894-.285,9.573,9.573,0,0,0,1.1-1.045l5.437-5.77a2.733,2.733,0,0,0,.62-.88q.112-.342-.332-.709c-.1-.086-.207-.173-.312-.258s-.2-.166-.288-.24a1.914,1.914,0,0,1-.519-.556.341.341,0,0,1,.084-.409.659.659,0,0,1,.611-.279,3.851,3.851,0,0,1,.943.256c.454.175.9.351,1.353.532s.859.369,1.236.563a6.48,6.48,0,0,1,1.332.754,1.188,1.188,0,0,1,.487.688.9.9,0,0,1-.321.711l-1.2,1.272c-.245.259-.334.418-.263.477.033.03.172,0,.413-.093a9.02,9.02,0,0,1,2.749-.554,4.351,4.351,0,0,1,2.916,1.193,3.134,3.134,0,0,1,1.309,2.431,3.9,3.9,0,0,1-1.241,2.671,3.362,3.362,0,0,1-1.707,1.023,1.922,1.922,0,0,1-1.731-.428,1.481,1.481,0,0,1-.56-1.006,1.229,1.229,0,0,1,.544-1.1,2.979,2.979,0,0,0,.747-.621,1.243,1.243,0,0,0,.323-.909,1.6,1.6,0,0,0-.7-1.079,2.694,2.694,0,0,0-1.726-.58,5.106,5.106,0,0,0-2.247.534,7.482,7.482,0,0,0-2.279,1.7l-2.81,2.982a8.022,8.022,0,0,0-.97,1.178,1.218,1.218,0,0,0-.176.878,3.29,3.29,0,0,0,.623,1.21,1.021,1.021,0,0,1,.169.51.6.6,0,0,1-.182.437.743.743,0,0,1-.487.249,1.446,1.446,0,0,1-.769-.245,9.231,9.231,0,0,1-1.269-.918q-.681-.609-1.375-1.178t-1.419-1.131" transform="translate(13.515 54.123)" fill="#fff"/>
      <path id="Path_54847" data-name="Path 54847" d="M39.467,135.866A9.212,9.212,0,0,1,36,132.808a7.16,7.16,0,0,1-1.2-3.984,7.868,7.868,0,0,1,1.228-4.149,8.611,8.611,0,0,1,3.211-3.128,8.421,8.421,0,0,1,4.271-1.055,9.9,9.9,0,0,1,4.575,1.245,9.12,9.12,0,0,1,3.437,3.042,7.057,7.057,0,0,1,1.184,3.977,8.034,8.034,0,0,1-1.261,4.168,8.691,8.691,0,0,1-3.195,3.133A8.173,8.173,0,0,1,44,137.108a9.948,9.948,0,0,1-4.535-1.242m.881-1.445a4.272,4.272,0,0,0,2.567.528,5.129,5.129,0,0,0,2.56-1.144,10.36,10.36,0,0,0,2.372-2.8,10,10,0,0,0,1.383-3.317,4.356,4.356,0,0,0-.248-2.649,3.93,3.93,0,0,0-1.794-1.825,4.353,4.353,0,0,0-2.619-.538,5.177,5.177,0,0,0-2.578,1.137,10.266,10.266,0,0,0-2.364,2.791,9.725,9.725,0,0,0-1.366,3.325,4.425,4.425,0,0,0,.264,2.658,3.961,3.961,0,0,0,1.823,1.84" transform="translate(20.268 58.108)" fill="#fff"/>
      <path id="Path_54848" data-name="Path 54848" d="M48.827,140.751a12.3,12.3,0,0,1-1.551-.439,1.535,1.535,0,0,1-.7-.428.572.572,0,0,1-.082-.5.608.608,0,0,1,.258-.378,1.462,1.462,0,0,1,.566-.173,3.127,3.127,0,0,0,1.4-.2,1.374,1.374,0,0,0,.638-.66,9.337,9.337,0,0,0,.459-1.423l1.932-7.413a2.1,2.1,0,0,0,.081-1c-.06-.227-.272-.415-.641-.566a1.3,1.3,0,0,1-.358-.065c-.122-.039-.237-.071-.35-.1a4.163,4.163,0,0,1-.782-.23c-.141-.064-.182-.2-.127-.414a.6.6,0,0,1,.364-.505,4.692,4.692,0,0,1,.932-.2c.242-.012.464-.016.668-.016s.377,0,.524-.013a19.146,19.146,0,0,1,1.957-.156,5.679,5.679,0,0,1,1.35.105,1.271,1.271,0,0,1,.744.387.934.934,0,0,1,.059.8l-.3,1.14a6.042,6.042,0,0,0-.165.769c-.016.151.011.237.078.252.022.006.1-.067.236-.215A10.769,10.769,0,0,1,57.274,128a5.163,5.163,0,0,1,1.874-.8,6.1,6.1,0,0,1,2.794.068,4.415,4.415,0,0,1,3.63,3.952.906.906,0,0,0,.073.268.216.216,0,0,0,.15.119.236.236,0,0,0,.179-.077,1.306,1.306,0,0,0,.225-.234,8.706,8.706,0,0,1,1.323-1.091,5.463,5.463,0,0,1,1.851-.717,6.05,6.05,0,0,1,2.649.085,5.375,5.375,0,0,1,3.478,2.189q1.082,1.639.337,4.626l-1.468,5.773a12.2,12.2,0,0,0-.337,1.567,1.117,1.117,0,0,0,.172.78,1.97,1.97,0,0,0,.942.584.28.28,0,0,0,.055.062.14.14,0,0,0,.063.031,1.465,1.465,0,0,1,.31.39.661.661,0,0,1,.006.454.7.7,0,0,1-.536.483,2.106,2.106,0,0,1-1.057-.007c-.79-.181-1.638-.376-2.552-.583l-2.552-.584a2.8,2.8,0,0,1-.786-.282.96.96,0,0,1-.386-.374.624.624,0,0,1-.041-.462.707.707,0,0,1,.271-.424,1.278,1.278,0,0,1,.57-.19,2.416,2.416,0,0,0,1.1-.184,1.373,1.373,0,0,0,.57-.608,5.86,5.86,0,0,0,.416-1.18l.09-.35L72,136.113a4.3,4.3,0,0,0-.125-2.965A2.77,2.77,0,0,0,69.89,131.7a3.505,3.505,0,0,0-1.82.1,4.094,4.094,0,0,0-1.8,1.2,5.708,5.708,0,0,0-1.229,2.456l-1.116,4.275a9.807,9.807,0,0,0-.3,1.493,1.564,1.564,0,0,0,.2.937,2.4,2.4,0,0,0,1.078.817.909.909,0,0,1,.261.31.572.572,0,0,1,.024.391.667.667,0,0,1-.457.517,2.147,2.147,0,0,1-1.029-.05q-1.37-.38-2.654-.674t-2.62-.532a2.173,2.173,0,0,1-1.016-.433.648.648,0,0,1-.165-.676.712.712,0,0,1,.69-.581,2.266,2.266,0,0,0,1.26-.231,1.527,1.527,0,0,0,.6-.719,12.072,12.072,0,0,0,.438-1.41l1.223-4.688a5.135,5.135,0,0,0,.03-3.418,2.8,2.8,0,0,0-2.019-1.467,3.465,3.465,0,0,0-1.783.11,4.079,4.079,0,0,0-1.842,1.293,6.532,6.532,0,0,0-1.315,2.7l-1.022,3.928a9.581,9.581,0,0,0-.3,1.478,1.356,1.356,0,0,0,.2.867,2.309,2.309,0,0,0,1.014.719.761.761,0,0,1,.328.394.834.834,0,0,1,.016.491.609.609,0,0,1-.26.376,1.271,1.271,0,0,1-.676.114,7.524,7.524,0,0,1-1.4-.216c-.6-.162-1.214-.311-1.834-.455s-1.215-.267-1.783-.374" transform="translate(27.065 60.696)" fill="#fff"/>
      <path id="Path_54849" data-name="Path 54849" d="M80.761,147.4a2.921,2.921,0,0,1-1.179.034.679.679,0,0,1-.449-.587.7.7,0,0,1,.125-.55,1.812,1.812,0,0,1,.525-.486,5.079,5.079,0,0,0,1.331-.821,1.3,1.3,0,0,0,.386-.843,5.988,5.988,0,0,0-.142-1.384l-2.573-13.416a11.5,11.5,0,0,0-.457-1.829,1.2,1.2,0,0,0-.669-.731,4.334,4.334,0,0,0-1.552-.172,1.485,1.485,0,0,1-.682-.233.745.745,0,0,1-.307-.494.618.618,0,0,1,.166-.608,2.17,2.17,0,0,1,1.029-.356q3.152-.529,5.429-1.012c.524-.087,1.033-.178,1.522-.273s1-.184,1.522-.273q4.968-.834,7.978.58a6.266,6.266,0,0,1,3.654,4.755,5.737,5.737,0,0,1-1.541,5.427q-2.165,2.188-6.926,2.985l-2.3.388c-.546.09-.875.224-.983.4a1.619,1.619,0,0,0-.014,1.029l.56,2.922a4.927,4.927,0,0,0,.462,1.494,1.374,1.374,0,0,0,.807.611,8.645,8.645,0,0,0,1.938.237,2.068,2.068,0,0,1,.813.277.9.9,0,0,1,.381.615.633.633,0,0,1-.078.511,1.192,1.192,0,0,1-.519.336,6.943,6.943,0,0,1-.991.282l-3.013.5q-1.241.178-2.356.365l-1.9.319m6.679-12.021a6.242,6.242,0,0,0,4-1.949,4.17,4.17,0,0,0,.785-3.56,5.359,5.359,0,0,0-2.527-3.866,7.349,7.349,0,0,0-5.026-.661l-1.165.2a1.431,1.431,0,0,0-1,.5,1.674,1.674,0,0,0-.087,1.207l1.465,7.64a1.192,1.192,0,0,0,.392.763,1.509,1.509,0,0,0,1.078.083Z" transform="translate(43.735 59.347)" fill="#fff"/>
      <path id="Path_54850" data-name="Path 54850" d="M102.757,139.55a8.538,8.538,0,0,1-4.522.556,7.868,7.868,0,0,1-3.855-1.77,9.773,9.773,0,0,1-2.639-3.581,7.156,7.156,0,0,1-.581-4.17,7.492,7.492,0,0,1,1.73-3.672,8.41,8.41,0,0,1,3.4-2.4,7.665,7.665,0,0,1,3.657-.556,6.607,6.607,0,0,1,3.024,1.086,5.051,5.051,0,0,1,1.842,2.126,3.7,3.7,0,0,1,.388,1.6,1.908,1.908,0,0,1-.487,1.2,3.657,3.657,0,0,1-1.459.919l-6.869,2.7a.467.467,0,0,0-.312.28.635.635,0,0,0,.055.421l.025.059a4.923,4.923,0,0,0,1.419,1.8,5.2,5.2,0,0,0,2.377,1.073,5.007,5.007,0,0,0,2.813-.282,5.787,5.787,0,0,0,2.418-1.645,5.877,5.877,0,0,0,1.2-2.266l.019-.042a.636.636,0,0,1,.345-.417.615.615,0,0,1,.65.065.645.645,0,0,1,.256.537,6.031,6.031,0,0,1-.491,2.431,6.7,6.7,0,0,1-1.6,2.247,8.5,8.5,0,0,1-2.806,1.706m-1.772-9.371a1.953,1.953,0,0,0,.633-.354.613.613,0,0,0,.191-.462,1.858,1.858,0,0,0-.193-.737,4.643,4.643,0,0,0-1.193-1.636,3.651,3.651,0,0,0-1.756-.855,3.782,3.782,0,0,0-2.076.243,3.551,3.551,0,0,0-1.565,1.153,3.791,3.791,0,0,0-.733,1.874,5.5,5.5,0,0,0,.291,2.412.843.843,0,0,0,.457.474.925.925,0,0,0,.682-.034Z" transform="translate(53.032 59.762)" fill="#fff"/>
      <path id="Path_54851" data-name="Path 54851" d="M110.793,136.2a9.331,9.331,0,0,1-1.4.741,1.718,1.718,0,0,1-.824.159.684.684,0,0,1-.476-.293.729.729,0,0,1,.1-.922,2.906,2.906,0,0,0,.812-1.1,1.2,1.2,0,0,0-.057-.879,9.009,9.009,0,0,0-.788-1.273l-4.511-6.433a2.83,2.83,0,0,0-.741-.792.775.775,0,0,0-.816.113c-.116.073-.234.144-.351.215s-.222.138-.32.2a2.077,2.077,0,0,1-.712.32.39.39,0,0,1-.4-.182.572.572,0,0,1-.125-.626,3.482,3.482,0,0,1,.511-.784c.3-.365.6-.726.907-1.084s.608-.679.907-.966a6.168,6.168,0,0,1,1.125-1.006,1.367,1.367,0,0,1,.837-.261.992.992,0,0,1,.649.479l1,1.417c.2.292.345.414.421.366.038-.025.043-.156.011-.4a7.539,7.539,0,0,1,.155-2.63,3.992,3.992,0,0,1,2-2.323,3.593,3.593,0,0,1,2.845-.542,4.258,4.258,0,0,1,2.424,1.825,2.991,2.991,0,0,1,.606,1.813,1.842,1.842,0,0,1-2.084,1.691,1.327,1.327,0,0,1-.983-.778,2.834,2.834,0,0,0-.443-.842,1.412,1.412,0,0,0-.851-.531,1.825,1.825,0,0,0-1.3.351,2.441,2.441,0,0,0-1.054,1.408,4.293,4.293,0,0,0-.04,2.17,6.865,6.865,0,0,0,1.154,2.511l2.334,3.323a7.946,7.946,0,0,0,.957,1.186,1.432,1.432,0,0,0,.856.391,3.83,3.83,0,0,0,1.41-.245,1.192,1.192,0,0,1,.57-.019.668.668,0,0,1,.4.279.651.651,0,0,1,.127.507,1.27,1.27,0,0,1-.453.63,9.273,9.273,0,0,1-1.28.906c-.536.3-1.063.615-1.576.929s-1.027.646-1.54.987" transform="translate(58.321 56.718)" fill="#fff"/>
      <path id="Path_54852" data-name="Path 54852" d="M126.344,125.551a6.03,6.03,0,0,1-2.5,1.5,5.025,5.025,0,0,1-2.931-.073,8.493,8.493,0,0,1-3.195-1.948l-4.625-4.2a2.632,2.632,0,0,0-.923-.609.794.794,0,0,0-.78.288l-.293.282c-.1.092-.185.179-.267.256a1.865,1.865,0,0,1-.595.436.473.473,0,0,1-.457-.074.646.646,0,0,1-.242-.608,3.239,3.239,0,0,1,.316-.869c.207-.419.418-.833.633-1.245s.424-.775.635-1.1a5.963,5.963,0,0,1,.886-1.235,1.331,1.331,0,0,1,.758-.427,1.027,1.027,0,0,1,.744.335l6.424,5.833a5.528,5.528,0,0,0,3.092,1.65,3.548,3.548,0,0,0,3.537-2.784,3.817,3.817,0,0,0-.247-2.247,6.67,6.67,0,0,0-1.8-2.406l-3.475-3.154a2.659,2.659,0,0,0-.921-.609.8.8,0,0,0-.783.289c-.1.093-.195.185-.29.28s-.185.179-.266.258a1.945,1.945,0,0,1-.6.436.468.468,0,0,1-.456-.074.654.654,0,0,1-.247-.608,3.57,3.57,0,0,1,.294-.846q.337-.651.657-1.266t.631-1.1a6.37,6.37,0,0,1,.892-1.236,1.316,1.316,0,0,1,.755-.427,1.022,1.022,0,0,1,.745.335l8.526,7.737a2.9,2.9,0,0,0,.894.611.746.746,0,0,0,.783-.264,2.007,2.007,0,0,1,.291-.305,1.482,1.482,0,0,0,.267-.282,1.946,1.946,0,0,1,.584-.422.43.43,0,0,1,.47.107.593.593,0,0,1,.267.585,3.375,3.375,0,0,1-.316.869c-.225.4-.438.814-.646,1.232a10.1,10.1,0,0,1-.646,1.14,5.89,5.89,0,0,1-.867,1.212,1.288,1.288,0,0,1-.767.437,1.1,1.1,0,0,1-.755-.368l-1.3-1.181a1.814,1.814,0,0,0-.324-.249c-.082-.044-.149-.043-.2,0a1.092,1.092,0,0,0,.081.391,6.518,6.518,0,0,1,.328,2.681,5.046,5.046,0,0,1-1.782,3.036" transform="translate(63.785 52.202)" fill="#fff"/>
      <path id="Path_54853" data-name="Path 54853" d="M130.055,106.116a.731.731,0,0,1-.44.007.575.575,0,0,1-.35-.371l-2.419-6.171a.72.72,0,0,1,.032-.615.823.823,0,0,1,.5-.4l6.684-1.952a.531.531,0,0,1,.788.365l2.391,6.129a.691.691,0,0,1,.016.652.838.838,0,0,1-.529.376Z" transform="translate(73.84 46.562)" fill="#fff"/>
    </g>
  </g>
</svg>
