<svg xmlns="http://www.w3.org/2000/svg" xmlns:xlink="http://www.w3.org/1999/xlink" width="102" height="106" viewBox="0 0 102 106">
  <defs>
    <clipPath id="clip-path">
      <rect id="Rectángulo_2238" data-name="Rectángulo 2238" width="101.37" height="62.285" fill="none"/>
    </clipPath>
    <clipPath id="clip-Mesa_de_trabajo_9">
      <rect width="102" height="106"/>
    </clipPath>
  </defs>
  <g id="Mesa_de_trabajo_9" data-name="Mesa de trabajo – 9" clip-path="url(#clip-Mesa_de_trabajo_9)">
    <rect width="102" height="106" fill="rgba(255,255,255,0)"/>
    <g id="Grupo_35674" data-name="Grupo 35674" transform="translate(0 17.366)">
      <g id="Grupo_35673" data-name="Grupo 35673" transform="translate(0 0)" clip-path="url(#clip-path)">
        <path id="Trazado_16387" data-name="Trazado 16387" d="M10.3,48.315a13.427,13.427,0,0,1-3.368-.671c-2.917-1.014-5.5-3.605-5.547-6.691-.046-3.183,2.443-5.731,4.323-8.3,3.664-5,5.393-11.075,8.731-16.267C18.134,10.655,23.4,8.35,30.17,9.032c4.139.418,13.4,1.257,17.505.631,4.952-.76,6.075-1.939,11.085-1.85,6.282.112,7.378,3.079,11.695,3.79,3.622.6,6.772-4.626,12.554-.405,4.135,3.015,3.578,10.074,6.081,11.786,1.468,1,2.778,5.018,4.2,6.084,2.565,1.923,6.133,4.25,6.726,7.922,1.291,7.976-3.526,8.461-5.35,11.381a20.031,20.031,0,0,1-4.023,3.049c-.833.371-1.313-5.4-2.186-5.666-11.645-3.513-24.067-3.589-36.179-2.433S28.2,46.834,16.109,48.1a32.022,32.022,0,0,1-5.8.217" transform="translate(-0.127 -0.717)" fill="#e1e640"/>
        <path id="Trazado_16388" data-name="Trazado 16388" d="M10.3,48.315a13.427,13.427,0,0,1-3.368-.671c-2.917-1.014-5.5-3.605-5.547-6.691-.046-3.183,2.443-5.731,4.323-8.3,3.664-5,5.393-11.075,8.731-16.267C18.134,10.655,23.4,8.35,30.17,9.032c4.139.418,13.4,1.257,17.505.631,4.952-.76,6.075-1.939,11.085-1.85,6.282.112,7.378,3.079,11.695,3.79,3.622.6,6.772-4.626,12.554-.405,4.135,3.015,3.578,10.074,6.081,11.786,1.468,1,2.778,5.018,4.2,6.084,2.565,1.923,6.133,4.25,6.726,7.922,1.291,7.976-3.526,8.461-5.35,11.381a20.031,20.031,0,0,1-4.023,3.049c-.833.371-1.313-5.4-2.186-5.666-11.645-3.513-24.067-3.589-36.179-2.433S28.2,46.834,16.109,48.1a32.022,32.022,0,0,1-5.8.217" transform="translate(-0.127 -0.717)" fill="#fdf3e9"/>
        <path id="Trazado_16389" data-name="Trazado 16389" d="M90.57,52.826a1.689,1.689,0,0,1-1.47-.9,4.37,4.37,0,0,1-.391-.9c-.188-.572-.358-1.3-.523-2.013-.143-.613-.365-1.57-.542-2.047a78.518,78.518,0,0,0-22.363-2.916c-4,0-8.21.216-12.866.66-6.3.6-12.681,1.549-18.853,2.464-5.658.839-11.508,1.706-17.307,2.312a41.718,41.718,0,0,1-4.388.283c-.589,0-1.135-.021-1.67-.063a14.712,14.712,0,0,1-3.712-.743A10.622,10.622,0,0,1,2.04,45.991,7.755,7.755,0,0,1,0,40.973c-.045-3.126,1.9-5.637,3.615-7.852.343-.443.667-.862.977-1.284a49.8,49.8,0,0,0,4.715-8.609,63.406,63.406,0,0,1,3.968-7.588,17.738,17.738,0,0,1,6.334-6.111,17.108,17.108,0,0,1,8.32-2c.768,0,1.569.041,2.38.123,5.5.555,10.124.848,13.377.848a26.656,26.656,0,0,0,3.78-.208,37.641,37.641,0,0,0,4.3-.935,21.936,21.936,0,0,1,6.466-.935c.179,0,.364,0,.55,0a15.277,15.277,0,0,1,8.041,2.283,11.288,11.288,0,0,0,3.854,1.525,2.29,2.29,0,0,0,.37.03,7.509,7.509,0,0,0,2.747-.85,11.527,11.527,0,0,1,4.732-1.266,8.867,8.867,0,0,1,5.3,1.929c2.7,1.971,3.651,5.3,4.412,7.968.466,1.635.948,3.325,1.634,3.794a10.326,10.326,0,0,1,2.6,3.581,10.875,10.875,0,0,0,1.654,2.536q.331.248.68.5a28.515,28.515,0,0,1,3.931,3.3,9.46,9.46,0,0,1,2.654,5.008,11.375,11.375,0,0,1-.678,6.994,10.945,10.945,0,0,1-3.1,3.563,8.259,8.259,0,0,0-1.764,1.781c-.121.195-.408.655-2.258,2.025a19.659,19.659,0,0,1-2.378,1.556A1.568,1.568,0,0,1,90.57,52.826Zm-25.29-11.56a80.815,80.815,0,0,1,23.582,3.159c1.192.36,1.525,1.789,2.028,3.952.072.31.167.715.263,1.091A19.315,19.315,0,0,0,93.513,47.6,10.655,10.655,0,0,1,95.828,45.2a8.47,8.47,0,0,0,2.4-2.669,8.777,8.777,0,0,0,.425-5.316c-.451-2.795-3.13-4.772-5.493-6.517-.237-.175-.47-.347-.695-.516a10.8,10.8,0,0,1-2.427-3.429,10.461,10.461,0,0,0-1.726-2.619c-1.516-1.037-2.11-3.12-2.738-5.326-.678-2.38-1.447-5.077-3.378-6.486a6.217,6.217,0,0,0-3.661-1.4,9.083,9.083,0,0,0-3.617,1.032,9.675,9.675,0,0,1-3.862,1.083,5.076,5.076,0,0,1-.821-.066,13.873,13.873,0,0,1-4.743-1.833A12.58,12.58,0,0,0,58.735,9.2c-.17,0-.338,0-.5,0a19.388,19.388,0,0,0-5.756.843,40.523,40.523,0,0,1-4.593,1,29.271,29.271,0,0,1-4.2.24c-3.344,0-8.066-.3-13.655-.862-.718-.072-1.425-.109-2.1-.109a13.763,13.763,0,0,0-12.319,6.837A61.316,61.316,0,0,0,11.824,24.4a52.653,52.653,0,0,1-4.992,9.078c-.331.452-.682.9-1.021,1.342-1.576,2.035-3.065,3.958-3.033,6.113A5.086,5.086,0,0,0,4.129,44.16a7.8,7.8,0,0,0,3.263,2.172,11.981,11.981,0,0,0,3.02.6c.464.037.938.054,1.453.054a39.289,39.289,0,0,0,4.1-.268c5.739-.6,11.559-1.463,17.188-2.3,6.207-.92,12.626-1.872,19-2.481C56.894,41.486,61.189,41.266,65.279,41.266Z" transform="translate(-0.127 -0.717)" fill="#242ff8"/>
        <path id="Trazado_16390" data-name="Trazado 16390" d="M66.646,14.476A13.082,13.082,0,1,1,53.562,1.389,13.083,13.083,0,0,1,66.646,14.476" transform="translate(-3.717 -0.128)" fill="#faf3e9"/>
        <path id="Trazado_16391" data-name="Trazado 16391" d="M66.646,14.476A13.082,13.082,0,1,1,53.562,1.389,13.083,13.083,0,0,1,66.646,14.476" transform="translate(-3.717 -0.128)" fill="#fdf3e9"/>
        <path id="Trazado_16392" data-name="Trazado 16392" d="M53.562,28.948A14.474,14.474,0,0,1,43.331,4.241a14.47,14.47,0,0,1,24.7,10.235A14.472,14.472,0,0,1,53.562,28.948Zm0-26.171A11.7,11.7,0,1,0,61.833,6.2,11.708,11.708,0,0,0,53.562,2.777Z" transform="translate(-3.717 -0.128)" fill="#242ff8"/>
        <path id="Trazado_16393" data-name="Trazado 16393" d="M26.929,30.7A11.167,11.167,0,1,1,15.758,19.533,11.172,11.172,0,0,1,26.929,30.7" transform="translate(-0.422 -1.794)" fill="#e1e640"/>
        <path id="Trazado_16394" data-name="Trazado 16394" d="M26.929,30.7A11.167,11.167,0,1,1,15.758,19.533,11.172,11.172,0,0,1,26.929,30.7" transform="translate(-0.422 -1.794)" fill="#fdf3e9"/>
        <path id="Trazado_16395" data-name="Trazado 16395" d="M15.758,18.144a12.554,12.554,0,1,1-8.877,3.678A12.571,12.571,0,0,1,15.758,18.144Zm0,22.335A9.779,9.779,0,1,0,5.982,30.7,9.792,9.792,0,0,0,15.758,40.479Z" transform="translate(-0.422 -1.794)" fill="#242ff8"/>
        <path id="Trazado_16396" data-name="Trazado 16396" d="M104.283,30.686a9.872,9.872,0,1,1-9.874-9.874,9.872,9.872,0,0,1,9.874,9.874" transform="translate(-7.763 -1.911)" fill="#e1e640"/>
        <path id="Trazado_16397" data-name="Trazado 16397" d="M104.283,30.686a9.872,9.872,0,1,1-9.874-9.874,9.872,9.872,0,0,1,9.874,9.874" transform="translate(-7.763 -1.911)" fill="#fdf3e9"/>
        <path id="Trazado_16398" data-name="Trazado 16398" d="M94.409,41.634a10.95,10.95,0,1,1,10.952-10.949A10.961,10.961,0,0,1,94.409,41.634Zm0-19.744a8.793,8.793,0,1,0,8.8,8.8A8.8,8.8,0,0,0,94.409,21.89Z" transform="translate(-7.763 -1.911)" fill="#242ff8"/>
        <path id="Trazado_16399" data-name="Trazado 16399" d="M91.124,63.648a8.06,8.06,0,0,0,7.888-9.637,48.821,48.821,0,0,0-95.717,0,8.061,8.061,0,0,0,7.888,9.637Z" transform="translate(-0.288 -1.363)" fill="#242ff8"/>
        <path id="Línea_556" data-name="Línea 556" d="M0,20.682a1.384,1.384,0,0,1-.982-.407,1.389,1.389,0,0,1,0-1.964L18.314-.982a1.388,1.388,0,0,1,1.964,0,1.389,1.389,0,0,1,0,1.964L.982,20.275A1.384,1.384,0,0,1,0,20.682Z" transform="translate(29.917 22.154)" fill="#fdf3e9"/>
        <path id="Línea_557" data-name="Línea 557" d="M0,14.515a1.384,1.384,0,0,1-.982-.407,1.389,1.389,0,0,1,0-1.964L12.145-.982a1.389,1.389,0,0,1,1.964,0,1.389,1.389,0,0,1,0,1.964L.982,14.109A1.384,1.384,0,0,1,0,14.515Z" transform="translate(57.784 33.51)" fill="#fdf3e9"/>
        <path id="Línea_558" data-name="Línea 558" d="M0,9.145a1.384,1.384,0,0,1-.982-.407,1.388,1.388,0,0,1,0-1.964L6.775-.982a1.388,1.388,0,0,1,1.964,0,1.388,1.388,0,0,1,0,1.964L.982,8.739A1.384,1.384,0,0,1,0,9.145Z" transform="translate(38.109 44.859)" fill="#fdf3e9"/>
      </g>
    </g>
  </g>
</svg>
