<svg xmlns="http://www.w3.org/2000/svg" xmlns:xlink="http://www.w3.org/1999/xlink" width="1531.75" height="81.089" viewBox="0 0 1531.75 81.089">
  <defs>
    <clipPath id="clip-path">
      <rect id="Rectangle_2543" data-name="Rectangle 2543" width="81.089" height="1531.75" transform="translate(969 2287.027)" fill="#ff4438"/>
    </clipPath>
  </defs>
  <g id="Mask_Group_94" data-name="Mask Group 94" transform="translate(3818.777 -969) rotate(90)" clip-path="url(#clip-path)">
    <path id="Path_20297" data-name="Path 20297" d="M147.892,1526.708a8.6,8.6,0,0,1-7.106-3.832L126.23,1501.34a9.235,9.235,0,0,1,0-10.253l14.559-21.537a8.5,8.5,0,0,1,14.206,0l14.555,21.537a9.243,9.243,0,0,1,0,10.253h0l-14.555,21.536a8.589,8.589,0,0,1-7.1,3.832m0-56.62a4.365,4.365,0,0,0-3.645,1.957l-14.559,21.537a4.749,4.749,0,0,0,0,5.263l14.559,21.537a4.48,4.48,0,0,0,7.284,0l14.559-21.537a4.744,4.744,0,0,0,0-5.263l-14.559-21.537a4.353,4.353,0,0,0-3.639-1.957" transform="translate(863.128 787.464)" fill="#ff4438"/>
    <path id="Path_20298" data-name="Path 20298" d="M119.406,1542.352a2.038,2.038,0,0,1-1.205-.393,2.223,2.223,0,0,1-.52-3.037l11.858-17.548a3.443,3.443,0,0,0,0-3.826L117.681,1500a2.229,2.229,0,0,1,.52-3.041,2.075,2.075,0,0,1,2.938.542L133,1515.054a7.943,7.943,0,0,1,0,8.819l-11.866,17.549a2.1,2.1,0,0,1-1.733.93" transform="translate(860.366 800.428)" fill="#ff4438"/>
    <path id="Path_20299" data-name="Path 20299" d="M168.747,1542.353a2.084,2.084,0,0,1-1.729-.93l-11.866-17.548a7.951,7.951,0,0,1,0-8.82l11.866-17.549a2.063,2.063,0,0,1,2.934-.542,2.234,2.234,0,0,1,.524,3.041l-11.862,17.544a3.433,3.433,0,0,0,.005,3.826l11.857,17.548a2.228,2.228,0,0,1-.524,3.036,2.037,2.037,0,0,1-1.205.394" transform="translate(874.038 800.428)" fill="#ff4438"/>
    <path id="Path_20300" data-name="Path 20300" d="M147.892,1578.439a8.6,8.6,0,0,1-7.106-3.832l-14.556-21.536a9.221,9.221,0,0,1,0-10.249l14.559-21.538a8.506,8.506,0,0,1,14.206,0l14.555,21.538a9.23,9.23,0,0,1,0,10.254L155,1574.607a8.59,8.59,0,0,1-7.1,3.832m0-56.621a4.342,4.342,0,0,0-3.639,1.961l-14.564,21.541a4.731,4.731,0,0,0,0,5.252l14.559,21.542a4.483,4.483,0,0,0,7.284,0l14.559-21.542a4.726,4.726,0,0,0,0-5.252l-14.559-21.541a4.347,4.347,0,0,0-3.639-1.961" transform="translate(863.128 809.205)" fill="#ff4438"/>
    <path id="Path_20301" data-name="Path 20301" d="M135.663,1539.521l.236,1.271c.935,2.6,4.74,6.753,6.48,8.155l1.105.391a23.818,23.818,0,0,0,7.415-7.26l-.136-1.18a31.011,31.011,0,0,0-6.789-8.287l-.794-.256c-1.979.588-6.02,4.518-7.517,7.167" transform="translate(867.241 815.465)" fill="#ff4438"/>
    <path id="Path_20302" data-name="Path 20302" d="M166.246,1591.293l-12.221-18.085a6.944,6.944,0,0,1,0-7.755l12.221-18.083a1.28,1.28,0,0,1,2.338.761v42.4a1.279,1.279,0,0,1-2.338.761" transform="translate(873.673 821.537)" fill="#ff4438"/>
    <path id="Path_20303" data-name="Path 20303" d="M120.9,1547.369l12.273,18.047a6.956,6.956,0,0,1,.025,7.754l-12.172,18.121a1.274,1.274,0,0,1-2.332-.756l-.128-42.4a1.279,1.279,0,0,1,2.334-.768" transform="translate(860.841 821.538)" fill="#ff4438"/>
    <path id="Path_20304" data-name="Path 20304" d="M147.892,1627.113a8.594,8.594,0,0,1-7.1-3.822l-14.559-21.537a9.238,9.238,0,0,1,0-10.254l14.559-21.538a8.5,8.5,0,0,1,14.206,0l14.555,21.538a9.245,9.245,0,0,1,0,10.254h0l-14.555,21.537a8.594,8.594,0,0,1-7.1,3.822m0-56.616a4.34,4.34,0,0,0-3.639,1.963L129.688,1594a4.742,4.742,0,0,0,0,5.259l14.559,21.541a4.49,4.49,0,0,0,7.284,0l14.559-21.541a4.737,4.737,0,0,0,0-5.259l-14.559-21.536a4.345,4.345,0,0,0-3.639-1.963" transform="translate(863.128 829.66)" fill="#ff4438"/>
    <path id="Path_20305" data-name="Path 20305" d="M143.383,1581.034l-.79.254a30.956,30.956,0,0,0-6.794,8.286l-.136,1.179a23.875,23.875,0,0,0,7.42,7.262l1.1-.389c1.745-1.4,5.546-5.556,6.484-8.156l.232-1.27c-1.5-2.652-5.533-6.58-7.516-7.165" transform="translate(867.241 835.922)" fill="#ff4438"/>
    <path id="Path_20306" data-name="Path 20306" d="M119.406,1642.759a2.038,2.038,0,0,1-1.205-.393,2.223,2.223,0,0,1-.52-3.036l11.858-17.549a3.436,3.436,0,0,0,0-3.822l-11.858-17.543a2.229,2.229,0,0,1,.52-3.041,2.075,2.075,0,0,1,2.938.541L133,1615.463a7.932,7.932,0,0,1,0,8.817l-11.862,17.548a2.094,2.094,0,0,1-1.733.93" transform="translate(860.366 842.626)" fill="#ff4438"/>
    <path id="Path_20307" data-name="Path 20307" d="M168.748,1642.76a2.081,2.081,0,0,1-1.729-.93l-11.866-17.549a7.932,7.932,0,0,1,0-8.817l11.866-17.547a2.061,2.061,0,0,1,2.934-.541,2.234,2.234,0,0,1,.524,3.041l-11.862,17.543a3.436,3.436,0,0,0,0,3.822l11.862,17.549a2.227,2.227,0,0,1-.524,3.036,2.038,2.038,0,0,1-1.205.393" transform="translate(874.037 842.625)" fill="#ff4438"/>
    <path id="Path_20308" data-name="Path 20308" d="M147.892,1678.851a8.6,8.6,0,0,1-7.106-3.832l-14.556-21.537a9.228,9.228,0,0,1,0-10.253l14.559-21.537a8.5,8.5,0,0,1,14.206,0l14.559,21.541a9.236,9.236,0,0,1,0,10.248h0L155,1675.02a8.59,8.59,0,0,1-7.1,3.832m0-56.621a4.365,4.365,0,0,0-3.645,1.957l-14.559,21.542a4.74,4.74,0,0,0,0,5.258l14.559,21.536a4.479,4.479,0,0,0,7.284,0l14.559-21.536a4.73,4.73,0,0,0,0-5.255l-14.559-21.545a4.353,4.353,0,0,0-3.639-1.957" transform="translate(863.128 851.4)" fill="#ff4438"/>
    <path id="Path_20309" data-name="Path 20309" d="M135.663,1639.93l.236,1.275c.935,2.6,4.74,6.755,6.48,8.157l1.105.385a23.794,23.794,0,0,0,7.415-7.258l-.136-1.18a30.887,30.887,0,0,0-6.789-8.284l-.794-.26c-1.979.591-6.02,4.518-7.517,7.165" transform="translate(867.241 857.661)" fill="#ff4438"/>
    <path id="Path_20310" data-name="Path 20310" d="M166.246,1691.7l-12.221-18.081a6.944,6.944,0,0,1,0-7.755l12.221-18.081a1.279,1.279,0,0,1,2.338.761v42.394a1.279,1.279,0,0,1-2.338.761" transform="translate(873.673 863.734)" fill="#ff4438"/>
    <path id="Path_20311" data-name="Path 20311" d="M120.9,1647.781l12.273,18.041a6.956,6.956,0,0,1,.025,7.754L121.027,1691.7a1.273,1.273,0,0,1-2.332-.75l-.128-42.4a1.278,1.278,0,0,1,2.334-.77" transform="translate(860.841 863.734)" fill="#ff4438"/>
    <path id="Path_20312" data-name="Path 20312" d="M147.892,1727.525a8.594,8.594,0,0,1-7.1-3.822l-14.559-21.542a9.221,9.221,0,0,1,0-10.248l14.559-21.538a8.5,8.5,0,0,1,14.206,0l14.555,21.538a9.236,9.236,0,0,1,0,10.248L155,1723.7a8.594,8.594,0,0,1-7.1,3.822m0-56.616a4.328,4.328,0,0,0-3.639,1.961l-14.564,21.538a4.726,4.726,0,0,0,0,5.249l14.564,21.545a4.479,4.479,0,0,0,7.279,0l14.559-21.545a4.721,4.721,0,0,0,0-5.249l-14.559-21.538a4.333,4.333,0,0,0-3.639-1.961" transform="translate(863.128 871.856)" fill="#ff4438"/>
    <path id="Path_20313" data-name="Path 20313" d="M143.383,1681.443l-.79.257a30.852,30.852,0,0,0-6.794,8.287l-.136,1.18a23.861,23.861,0,0,0,7.42,7.256l1.1-.384c1.745-1.4,5.546-5.559,6.484-8.156l.232-1.275c-1.5-2.652-5.533-6.576-7.516-7.165" transform="translate(867.241 878.117)" fill="#ff4438"/>
    <path id="Path_20314" data-name="Path 20314" d="M119.406,1743.172a2.039,2.039,0,0,1-1.205-.394,2.224,2.224,0,0,1-.52-3.036l11.858-17.549a3.436,3.436,0,0,0,0-3.822l-11.862-17.549a2.234,2.234,0,0,1,.524-3.041,2.074,2.074,0,0,1,2.938.542l11.866,17.551a7.947,7.947,0,0,1,0,8.817l-11.866,17.543a2.085,2.085,0,0,1-1.733.936" transform="translate(860.366 884.821)" fill="#ff4438"/>
    <path id="Path_20315" data-name="Path 20315" d="M168.747,1743.173a2.073,2.073,0,0,1-1.729-.936l-11.866-17.543a7.939,7.939,0,0,1,0-8.817l11.862-17.551a2.067,2.067,0,0,1,2.938-.543,2.234,2.234,0,0,1,.524,3.041l-11.857,17.549a3.416,3.416,0,0,0,0,3.822l11.857,17.549a2.228,2.228,0,0,1-.524,3.036,2.038,2.038,0,0,1-1.205.393" transform="translate(874.038 884.82)" fill="#ff4438"/>
    <path id="Path_20316" data-name="Path 20316" d="M147.892,1779.265a8.6,8.6,0,0,1-7.106-3.831L126.23,1753.9a9.238,9.238,0,0,1,0-10.254l14.559-21.538a8.5,8.5,0,0,1,14.206,0l14.555,21.538a9.246,9.246,0,0,1,0,10.254h0l-14.555,21.536a8.592,8.592,0,0,1-7.1,3.831m0-56.625a4.342,4.342,0,0,0-3.639,1.961l-14.564,21.538a4.75,4.75,0,0,0,0,5.263l14.559,21.536a4.48,4.48,0,0,0,7.284,0L166.09,1751.4a4.744,4.744,0,0,0,0-5.263L151.531,1724.6a4.347,4.347,0,0,0-3.639-1.961" transform="translate(863.128 893.596)" fill="#ff4438"/>
    <path id="Path_20317" data-name="Path 20317" d="M135.663,1740.341l.236,1.275c.935,2.6,4.74,6.749,6.48,8.151l1.105.391a23.821,23.821,0,0,0,7.415-7.26l-.136-1.18a30.98,30.98,0,0,0-6.789-8.284l-.794-.257c-1.979.591-6.02,4.518-7.517,7.165" transform="translate(867.241 899.857)" fill="#ff4438"/>
    <path id="Path_20318" data-name="Path 20318" d="M166.246,1792.114l-12.221-18.081a6.943,6.943,0,0,1,0-7.754l12.221-18.087a1.28,1.28,0,0,1,2.338.761v42.4a1.279,1.279,0,0,1-2.338.761" transform="translate(873.673 905.93)" fill="#ff4438"/>
    <path id="Path_20319" data-name="Path 20319" d="M120.9,1748.194l12.273,18.041a6.956,6.956,0,0,1,.025,7.754l-12.172,18.121a1.273,1.273,0,0,1-2.332-.75l-.128-42.4a1.277,1.277,0,0,1,2.334-.764" transform="translate(860.841 905.931)" fill="#ff4438"/>
    <path id="Path_20320" data-name="Path 20320" d="M147.892,1827.936a8.588,8.588,0,0,1-7.106-3.832l-14.556-21.537a9.221,9.221,0,0,1,0-10.249l14.559-21.536a8.5,8.5,0,0,1,14.206,0l14.559,21.541a9.229,9.229,0,0,1,0,10.244h0L155,1824.1a8.58,8.58,0,0,1-7.1,3.832m0-56.616a4.351,4.351,0,0,0-3.645,1.957l-14.559,21.542a4.736,4.736,0,0,0,0,5.255l14.559,21.536a4.481,4.481,0,0,0,7.284,0l14.559-21.536a4.726,4.726,0,0,0,0-5.252l-14.559-21.545a4.339,4.339,0,0,0-3.639-1.957" transform="translate(863.128 914.053)" fill="#ff4438"/>
    <path id="Path_20321" data-name="Path 20321" d="M143.383,1781.855l-.79.257a30.9,30.9,0,0,0-6.794,8.283l-.136,1.179a23.875,23.875,0,0,0,7.42,7.262l1.1-.389c1.745-1.4,5.546-5.553,6.484-8.151l.232-1.275c-1.5-2.652-5.533-6.576-7.516-7.165" transform="translate(867.241 920.315)" fill="#ff4438"/>
    <path id="Path_20322" data-name="Path 20322" d="M119.406,1843.585a2.037,2.037,0,0,1-1.205-.394,2.223,2.223,0,0,1-.52-3.036l11.858-17.548a3.443,3.443,0,0,0,0-3.826l-11.858-17.544a2.228,2.228,0,0,1,.52-3.041,2.078,2.078,0,0,1,2.938.537L133,1816.287a7.944,7.944,0,0,1,0,8.82l-11.866,17.543a2.085,2.085,0,0,1-1.733.936" transform="translate(860.366 927.018)" fill="#ff4438"/>
    <path id="Path_20323" data-name="Path 20323" d="M168.747,1843.587a2.074,2.074,0,0,1-1.729-.936l-11.866-17.543a7.951,7.951,0,0,1,0-8.82l11.866-17.554a2.063,2.063,0,0,1,2.934-.537,2.233,2.233,0,0,1,.524,3.041l-11.862,17.544a3.434,3.434,0,0,0,.005,3.826l11.857,17.548a2.228,2.228,0,0,1-.524,3.036,2.037,2.037,0,0,1-1.205.394" transform="translate(874.038 927.017)" fill="#ff4438"/>
    <path id="Path_20324" data-name="Path 20324" d="M147.892,1879.668a8.594,8.594,0,0,1-7.1-3.822L126.231,1854.3a9.221,9.221,0,0,1,0-10.248l14.559-21.538a8.5,8.5,0,0,1,14.206,0l14.555,21.538a9.236,9.236,0,0,1,0,10.248L155,1875.846a8.594,8.594,0,0,1-7.1,3.822m0-56.616a4.342,4.342,0,0,0-3.639,1.961l-14.564,21.538a4.726,4.726,0,0,0,0,5.249l14.564,21.551a4.485,4.485,0,0,0,7.279,0L166.09,1851.8a4.721,4.721,0,0,0,0-5.249l-14.559-21.538a4.347,4.347,0,0,0-3.639-1.961" transform="translate(863.128 935.793)" fill="#ff4438"/>
    <path id="Path_20325" data-name="Path 20325" d="M135.663,1840.753l.236,1.271c.935,2.6,4.74,6.753,6.48,8.156l1.105.389a23.818,23.818,0,0,0,7.415-7.26l-.136-1.18a31.036,31.036,0,0,0-6.789-8.287l-.794-.254c-1.979.585-6.02,4.513-7.517,7.165" transform="translate(867.241 942.055)" fill="#ff4438"/>
    <path id="Path_20326" data-name="Path 20326" d="M166.246,1892.522l-12.221-18.081a6.944,6.944,0,0,1,0-7.755l12.221-18.081a1.279,1.279,0,0,1,2.338.761v42.394a1.278,1.278,0,0,1-2.338.761" transform="translate(873.673 948.127)" fill="#ff4438"/>
    <path id="Path_20327" data-name="Path 20327" d="M120.9,1848.6l12.273,18.047a6.956,6.956,0,0,1,.025,7.754l-12.172,18.121a1.274,1.274,0,0,1-2.332-.755l-.128-42.4a1.278,1.278,0,0,1,2.334-.77" transform="translate(860.841 948.127)" fill="#ff4438"/>
    <path id="Path_20328" data-name="Path 20328" d="M147.892,1928.349a8.589,8.589,0,0,1-7.106-3.832L126.23,1902.98a9.228,9.228,0,0,1,0-10.248l14.559-21.538a8.506,8.506,0,0,1,14.206,0l14.555,21.538a9.236,9.236,0,0,1,0,10.248h0l-14.555,21.537a8.58,8.58,0,0,1-7.1,3.832m0-56.621a4.358,4.358,0,0,0-3.645,1.961l-14.559,21.538a4.74,4.74,0,0,0,0,5.258l14.559,21.536a4.479,4.479,0,0,0,7.284,0l14.559-21.536a4.735,4.735,0,0,0,0-5.258l-14.559-21.538a4.347,4.347,0,0,0-3.639-1.961" transform="translate(863.128 956.25)" fill="#ff4438"/>
    <path id="Path_20329" data-name="Path 20329" d="M143.383,1882.267l-.79.254a30.945,30.945,0,0,0-6.794,8.287l-.136,1.177a23.872,23.872,0,0,0,7.42,7.261l1.1-.389c1.745-1.4,5.546-5.556,6.484-8.156l.232-1.27c-1.5-2.657-5.533-6.58-7.516-7.165" transform="translate(867.241 962.511)" fill="#ff4438"/>
    <path id="Path_20330" data-name="Path 20330" d="M119.406,1944a2.037,2.037,0,0,1-1.205-.394,2.228,2.228,0,0,1-.524-3.036l11.862-17.551a3.439,3.439,0,0,0,0-3.823l-11.858-17.544a2.228,2.228,0,0,1,.52-3.041,2.078,2.078,0,0,1,2.938.537L133,1916.7a7.93,7.93,0,0,1,0,8.816l-11.862,17.547a2.086,2.086,0,0,1-1.733.936" transform="translate(860.366 969.214)" fill="#ff4438"/>
    <path id="Path_20331" data-name="Path 20331" d="M168.747,1944a2.086,2.086,0,0,1-1.733-.936l-11.862-17.547a7.937,7.937,0,0,1,0-8.816l11.866-17.554a2.065,2.065,0,0,1,2.934-.537,2.233,2.233,0,0,1,.524,3.041l-11.862,17.544a3.439,3.439,0,0,0,0,3.823l11.862,17.551a2.228,2.228,0,0,1-.524,3.036,2.037,2.037,0,0,1-1.205.394" transform="translate(874.038 969.213)" fill="#ff4438"/>
    <path id="Path_20332" data-name="Path 20332" d="M147.892,1980.08a8.594,8.594,0,0,1-7.106-3.828l-14.556-21.536a9.221,9.221,0,0,1,0-10.248l14.559-21.538a8.5,8.5,0,0,1,14.206,0l14.555,21.538a9.228,9.228,0,0,1,0,10.253L155,1976.252a8.585,8.585,0,0,1-7.1,3.828m0-56.616a4.327,4.327,0,0,0-3.639,1.961l-14.564,21.538a4.726,4.726,0,0,0,0,5.249l14.559,21.542a4.477,4.477,0,0,0,7.284,0l14.559-21.542a4.721,4.721,0,0,0,0-5.249l-14.559-21.538a4.333,4.333,0,0,0-3.639-1.961" transform="translate(863.128 977.989)" fill="#ff4438"/>
    <path id="Path_20333" data-name="Path 20333" d="M135.663,1941.162l.236,1.275c.935,2.6,4.74,6.755,6.48,8.153l1.105.389a23.782,23.782,0,0,0,7.415-7.257l-.136-1.18a30.887,30.887,0,0,0-6.789-8.284l-.794-.26c-1.979.591-6.02,4.518-7.517,7.165" transform="translate(867.241 984.25)" fill="#ff4438"/>
    <path id="Path_20334" data-name="Path 20334" d="M166.246,1992.934l-12.221-18.081a6.944,6.944,0,0,1,0-7.755l12.221-18.081a1.279,1.279,0,0,1,2.338.761v42.394a1.279,1.279,0,0,1-2.338.761" transform="translate(873.673 990.323)" fill="#ff4438"/>
    <path id="Path_20335" data-name="Path 20335" d="M120.9,1949.014l12.273,18.041a6.956,6.956,0,0,1,.025,7.754l-12.172,18.121a1.273,1.273,0,0,1-2.332-.75l-.128-42.4a1.277,1.277,0,0,1,2.334-.768" transform="translate(860.841 990.322)" fill="#ff4438"/>
    <path id="Path_20336" data-name="Path 20336" d="M147.892,2028.758a8.6,8.6,0,0,1-7.1-3.828l-14.559-21.537a9.228,9.228,0,0,1,0-10.248l14.559-21.542a8.506,8.506,0,0,1,14.206,0l14.555,21.542a9.236,9.236,0,0,1,0,10.248h0l-14.555,21.537a8.6,8.6,0,0,1-7.1,3.828m0-56.621a4.336,4.336,0,0,0-3.639,1.965l-14.564,21.537a4.745,4.745,0,0,0,0,5.26l14.559,21.537a4.49,4.49,0,0,0,7.284,0L166.09,2000.9a4.74,4.74,0,0,0,0-5.26L151.531,1974.1a4.341,4.341,0,0,0-3.639-1.965" transform="translate(863.128 998.446)" fill="#ff4438"/>
    <path id="Path_20337" data-name="Path 20337" d="M143.383,1982.676l-.79.257a30.844,30.844,0,0,0-6.794,8.287l-.136,1.18a23.85,23.85,0,0,0,7.42,7.256l1.1-.389c1.745-1.4,5.546-5.553,6.484-8.151l.232-1.275c-1.5-2.651-5.533-6.576-7.516-7.165" transform="translate(867.241 1004.707)" fill="#ff4438"/>
    <path id="Path_20338" data-name="Path 20338" d="M119.406,2044.4a2.036,2.036,0,0,1-1.205-.393,2.224,2.224,0,0,1-.52-3.037l11.858-17.548a3.436,3.436,0,0,0,0-3.822l-11.858-17.549a2.23,2.23,0,0,1,.52-3.041,2.075,2.075,0,0,1,2.938.542L133,2017.109a7.932,7.932,0,0,1,0,8.817l-11.862,17.543a2.085,2.085,0,0,1-1.733.936" transform="translate(860.366 1011.41)" fill="#ff4438"/>
    <path id="Path_20339" data-name="Path 20339" d="M168.748,2044.4a2.073,2.073,0,0,1-1.729-.936l-11.866-17.543a7.932,7.932,0,0,1,0-8.817l11.866-17.552a2.066,2.066,0,0,1,2.934-.542,2.235,2.235,0,0,1,.524,3.041L158.615,2019.6a3.436,3.436,0,0,0,0,3.822l11.862,17.548a2.229,2.229,0,0,1-.524,3.037,2.036,2.036,0,0,1-1.205.393" transform="translate(874.037 1011.409)" fill="#ff4438"/>
    <path id="Path_20340" data-name="Path 20340" d="M147.892,2080.493a8.588,8.588,0,0,1-7.106-3.832l-14.556-21.536a9.221,9.221,0,0,1,0-10.249l14.559-21.537a8.5,8.5,0,0,1,14.206,0l14.559,21.541a9.229,9.229,0,0,1,0,10.244h0L155,2076.661a8.579,8.579,0,0,1-7.1,3.832m0-56.617a4.351,4.351,0,0,0-3.645,1.957l-14.559,21.542a4.736,4.736,0,0,0,0,5.255l14.559,21.537a4.481,4.481,0,0,0,7.284,0l14.559-21.537a4.726,4.726,0,0,0,0-5.252l-14.559-21.545a4.339,4.339,0,0,0-3.639-1.957" transform="translate(863.128 1020.187)" fill="#ff4438"/>
    <path id="Path_20341" data-name="Path 20341" d="M135.663,2041.574l.236,1.271c.935,2.6,4.74,6.753,6.48,8.155l1.105.391a23.812,23.812,0,0,0,7.415-7.26l-.136-1.18a31.042,31.042,0,0,0-6.789-8.287l-.794-.254c-1.979.585-6.02,4.518-7.517,7.165" transform="translate(867.241 1026.447)" fill="#ff4438"/>
    <path id="Path_20342" data-name="Path 20342" d="M166.246,2093.346l-12.221-18.085a6.937,6.937,0,0,1,0-7.75l12.221-18.086a1.279,1.279,0,0,1,2.338.761v42.4a1.279,1.279,0,0,1-2.338.761" transform="translate(873.673 1032.518)" fill="#ff4438"/>
    <path id="Path_20343" data-name="Path 20343" d="M120.9,2049.426l12.273,18.042a6.956,6.956,0,0,1,.025,7.754l-12.172,18.121a1.273,1.273,0,0,1-2.332-.75l-.128-42.4a1.277,1.277,0,0,1,2.334-.764" transform="translate(860.841 1032.519)" fill="#ff4438"/>
    <path id="Path_20344" data-name="Path 20344" d="M147.892,2129.169a8.6,8.6,0,0,1-7.106-3.832L126.231,2103.8a9.221,9.221,0,0,1,0-10.249l14.559-21.538a8.506,8.506,0,0,1,14.206,0l14.555,21.538a9.228,9.228,0,0,1,0,10.253L155,2125.337a8.59,8.59,0,0,1-7.1,3.832m0-56.621a4.335,4.335,0,0,0-3.639,1.966l-14.564,21.536a4.731,4.731,0,0,0,0,5.252l14.559,21.539a4.48,4.48,0,0,0,7.284,0L166.09,2101.3a4.726,4.726,0,0,0,0-5.252l-14.559-21.536a4.341,4.341,0,0,0-3.639-1.966" transform="translate(863.128 1040.642)" fill="#ff4438"/>
    <path id="Path_20345" data-name="Path 20345" d="M143.383,2083.087l-.79.255a30.948,30.948,0,0,0-6.794,8.286l-.136,1.179a23.871,23.871,0,0,0,7.42,7.261l1.1-.389c1.745-1.4,5.546-5.556,6.484-8.156l.232-1.27c-1.5-2.652-5.533-6.58-7.516-7.166" transform="translate(867.241 1046.904)" fill="#ff4438"/>
    <path id="Path_20346" data-name="Path 20346" d="M119.406,2144.817a2.04,2.04,0,0,1-1.205-.394,2.224,2.224,0,0,1-.52-3.036l11.858-17.551a3.431,3.431,0,0,0,0-3.819l-11.862-17.553a2.235,2.235,0,0,1,.524-3.041,2.077,2.077,0,0,1,2.938.541l11.866,17.554a7.951,7.951,0,0,1,0,8.819l-11.866,17.543a2.088,2.088,0,0,1-1.733.936" transform="translate(860.366 1053.606)" fill="#ff4438"/>
    <path id="Path_20347" data-name="Path 20347" d="M168.747,2144.818a2.076,2.076,0,0,1-1.729-.936l-11.866-17.543a7.943,7.943,0,0,1,0-8.819l11.862-17.554a2.07,2.07,0,0,1,2.938-.541,2.235,2.235,0,0,1,.524,3.041l-11.857,17.553a3.411,3.411,0,0,0,0,3.819l11.857,17.551a2.229,2.229,0,0,1-.524,3.036,2.039,2.039,0,0,1-1.205.394" transform="translate(874.038 1053.605)" fill="#ff4438"/>
    <path id="Path_20348" data-name="Path 20348" d="M147.892,2180.905a8.588,8.588,0,0,1-7.106-3.832l-14.556-21.537a9.228,9.228,0,0,1,0-10.248l14.559-21.537a8.5,8.5,0,0,1,14.206,0l14.555,21.537a9.236,9.236,0,0,1,0,10.248h0l-14.555,21.537a8.579,8.579,0,0,1-7.1,3.832m0-56.625a4.336,4.336,0,0,0-3.639,1.966l-14.564,21.536a4.744,4.744,0,0,0,0,5.26l14.559,21.537a4.481,4.481,0,0,0,7.284,0l14.559-21.537a4.739,4.739,0,0,0,0-5.26l-14.559-21.536a4.341,4.341,0,0,0-3.639-1.966" transform="translate(863.128 1062.382)" fill="#ff4438"/>
    <path id="Path_20349" data-name="Path 20349" d="M135.663,2141.986l.236,1.271c.935,2.6,4.74,6.753,6.48,8.156l1.105.385a23.746,23.746,0,0,0,7.415-7.256l-.136-1.18a30.947,30.947,0,0,0-6.789-8.287l-.794-.257c-1.979.588-6.02,4.517-7.517,7.168" transform="translate(867.241 1068.643)" fill="#ff4438"/>
    <path id="Path_20350" data-name="Path 20350" d="M166.246,2193.754l-12.221-18.081a6.945,6.945,0,0,1,0-7.755l12.221-18.081a1.279,1.279,0,0,1,2.338.76v42.4a1.279,1.279,0,0,1-2.338.761" transform="translate(873.673 1074.716)" fill="#ff4438"/>
    <path id="Path_20351" data-name="Path 20351" d="M120.9,2149.834l12.273,18.047a6.956,6.956,0,0,1,.025,7.754l-12.172,18.121a1.275,1.275,0,0,1-2.332-.756l-.128-42.4a1.278,1.278,0,0,1,2.334-.768" transform="translate(860.841 1074.716)" fill="#ff4438"/>
    <path id="Path_20352" data-name="Path 20352" d="M119.406,2246.143a2.036,2.036,0,0,1-1.205-.393,2.225,2.225,0,0,1-.52-3.037l11.858-17.551a3.431,3.431,0,0,0,0-3.819l-11.862-17.553a2.235,2.235,0,0,1,.524-3.041,2.077,2.077,0,0,1,2.938.542l11.866,17.553a7.945,7.945,0,0,1,0,8.82l-11.862,17.543a2.09,2.09,0,0,1-1.733.936" transform="translate(860.366 1096.187)" fill="#ff4438"/>
    <path id="Path_20353" data-name="Path 20353" d="M168.748,2246.144a2.078,2.078,0,0,1-1.729-.936l-11.866-17.543a7.937,7.937,0,0,1,0-8.82l11.862-17.553a2.07,2.07,0,0,1,2.938-.542,2.235,2.235,0,0,1,.524,3.041l-11.857,17.553a3.421,3.421,0,0,0-.005,3.819l11.862,17.551a2.23,2.23,0,0,1-.524,3.037,2.036,2.036,0,0,1-1.205.393" transform="translate(874.037 1096.186)" fill="#ff4438"/>
    <path id="Path_20354" data-name="Path 20354" d="M147.892,2282.229a8.6,8.6,0,0,1-7.106-3.832L126.23,2256.86a9.229,9.229,0,0,1,0-10.249l14.559-21.538a8.506,8.506,0,0,1,14.206,0l14.555,21.538a9.236,9.236,0,0,1,0,10.249h0L154.995,2278.4a8.59,8.59,0,0,1-7.1,3.832m0-56.621a4.356,4.356,0,0,0-3.645,1.963l-14.559,21.536a4.74,4.74,0,0,0,0,5.258l14.559,21.537a4.48,4.48,0,0,0,7.284,0l14.559-21.537a4.735,4.735,0,0,0,0-5.258l-14.559-21.536a4.345,4.345,0,0,0-3.639-1.963" transform="translate(863.128 1104.964)" fill="#ff4438"/>
    <path id="Path_20355" data-name="Path 20355" d="M135.663,2243.312l.236,1.271c.935,2.6,4.74,6.753,6.48,8.156l1.105.385a23.75,23.75,0,0,0,7.415-7.256l-.136-1.18a30.947,30.947,0,0,0-6.789-8.287l-.794-.257c-1.979.588-6.02,4.516-7.517,7.167" transform="translate(867.241 1111.224)" fill="#ff4438"/>
    <path id="Path_20356" data-name="Path 20356" d="M147.892,2229.581a8.588,8.588,0,0,1-7.106-3.832l-14.556-21.537a9.221,9.221,0,0,1,0-10.249l14.559-21.536a8.5,8.5,0,0,1,14.206,0l14.559,21.541a9.229,9.229,0,0,1,0,10.244h0L155,2225.75a8.58,8.58,0,0,1-7.1,3.832m0-56.617a4.352,4.352,0,0,0-3.645,1.957l-14.559,21.542a4.736,4.736,0,0,0,0,5.255l14.559,21.536a4.48,4.48,0,0,0,7.284,0l14.559-21.536a4.726,4.726,0,0,0,0-5.252l-14.559-21.545a4.34,4.34,0,0,0-3.639-1.957" transform="translate(863.128 1082.84)" fill="#ff4438"/>
    <path id="Path_20357" data-name="Path 20357" d="M143.383,2183.5l-.79.257a30.893,30.893,0,0,0-6.794,8.284l-.136,1.178a23.88,23.88,0,0,0,7.42,7.262l1.1-.39c1.745-1.4,5.546-5.552,6.484-8.151l.232-1.275c-1.5-2.651-5.533-6.574-7.516-7.165" transform="translate(867.241 1089.101)" fill="#ff4438"/>
    <path id="Path_20358" data-name="Path 20358" d="M166.246,2295.079,154.025,2277a6.944,6.944,0,0,1,0-7.755l12.221-18.081a1.279,1.279,0,0,1,2.338.761v42.394a1.279,1.279,0,0,1-2.338.761" transform="translate(873.673 1117.296)" fill="#ff4438"/>
    <path id="Path_20359" data-name="Path 20359" d="M120.9,2251.159l12.273,18.047a6.956,6.956,0,0,1,.025,7.754l-12.172,18.121a1.275,1.275,0,0,1-2.332-.756l-.128-42.4a1.278,1.278,0,0,1,2.334-.768" transform="translate(860.841 1117.296)" fill="#ff4438"/>
    <path id="Path_20360" data-name="Path 20360" d="M147.892,2330.907a8.6,8.6,0,0,1-7.106-3.832l-14.556-21.537a9.228,9.228,0,0,1,0-10.253l14.559-21.534a8.5,8.5,0,0,1,14.206,0l14.555,21.538a9.229,9.229,0,0,1,0,10.249h0L155,2327.075a8.59,8.59,0,0,1-7.1,3.832m0-56.62a4.34,4.34,0,0,0-3.639,1.962l-14.564,21.537a4.74,4.74,0,0,0,0,5.258l14.559,21.536a4.479,4.479,0,0,0,7.284,0l14.559-21.536a4.73,4.73,0,0,0,0-5.255l-14.559-21.54a4.345,4.345,0,0,0-3.639-1.962" transform="translate(863.128 1125.418)" fill="#ff4438"/>
    <path id="Path_20361" data-name="Path 20361" d="M143.383,2284.821l-.79.256a30.941,30.941,0,0,0-6.794,8.287l-.136,1.181a23.812,23.812,0,0,0,7.42,7.256l1.1-.383c1.745-1.4,5.546-5.559,6.484-8.157l.232-1.275c-1.5-2.651-5.533-6.575-7.516-7.165" transform="translate(867.241 1131.679)" fill="#ff4438"/>
    <path id="Path_20362" data-name="Path 20362" d="M119.406,2346.552a2.059,2.059,0,0,1-1.205-.389,2.222,2.222,0,0,1-.52-3.035l11.858-17.554a3.443,3.443,0,0,0,0-3.826L117.681,2304.2a2.229,2.229,0,0,1,.52-3.04,2.074,2.074,0,0,1,2.938.543L133,2319.253a7.945,7.945,0,0,1,0,8.82l-11.866,17.548a2.087,2.087,0,0,1-1.733.93" transform="translate(860.366 1138.384)" fill="#ff4438"/>
    <path id="Path_20363" data-name="Path 20363" d="M168.747,2346.552a2.074,2.074,0,0,1-1.729-.93l-11.866-17.548a7.953,7.953,0,0,1,0-8.82l11.866-17.548a2.063,2.063,0,0,1,2.934-.543,2.234,2.234,0,0,1,.524,3.04l-11.862,17.545a3.433,3.433,0,0,0,.005,3.826l11.857,17.554a2.227,2.227,0,0,1-.524,3.035,2.059,2.059,0,0,1-1.205.389" transform="translate(874.038 1138.383)" fill="#ff4438"/>
    <path id="Path_20364" data-name="Path 20364" d="M147.892,2382.637a8.6,8.6,0,0,1-7.1-3.826l-14.559-21.536a9.238,9.238,0,0,1,0-10.254l14.559-21.538a8.506,8.506,0,0,1,14.206,0l14.555,21.538a9.245,9.245,0,0,1,0,10.254h0l-14.555,21.536a8.6,8.6,0,0,1-7.1,3.826m0-56.621a4.335,4.335,0,0,0-3.639,1.966l-14.564,21.536a4.745,4.745,0,0,0,0,5.26l14.559,21.537a4.49,4.49,0,0,0,7.284,0l14.559-21.537a4.74,4.74,0,0,0,0-5.26l-14.559-21.536a4.34,4.34,0,0,0-3.639-1.966" transform="translate(863.128 1147.16)" fill="#ff4438"/>
    <path id="Path_20365" data-name="Path 20365" d="M135.663,2343.719l.236,1.275c.935,2.6,4.74,6.754,6.48,8.151l1.105.39a23.764,23.764,0,0,0,7.415-7.257l-.136-1.183a30.9,30.9,0,0,0-6.789-8.282l-.794-.26c-1.979.59-6.02,4.518-7.517,7.165" transform="translate(867.241 1153.42)" fill="#ff4438"/>
    <path id="Path_20366" data-name="Path 20366" d="M166.246,2395.492l-12.221-18.081a6.943,6.943,0,0,1,0-7.754l12.221-18.081a1.278,1.278,0,0,1,2.338.761v42.394a1.279,1.279,0,0,1-2.338.761" transform="translate(873.673 1159.492)" fill="#ff4438"/>
    <path id="Path_20367" data-name="Path 20367" d="M120.9,2351.571l12.273,18.041a6.957,6.957,0,0,1,.025,7.755l-12.172,18.121a1.273,1.273,0,0,1-2.332-.75l-.128-42.4a1.277,1.277,0,0,1,2.334-.768" transform="translate(860.841 1159.492)" fill="#ff4438"/>
    <path id="Path_20368" data-name="Path 20368" d="M147.892,2431.318a8.6,8.6,0,0,1-7.106-3.832l-14.556-21.537a9.235,9.235,0,0,1,0-10.252l14.559-21.536a8.5,8.5,0,0,1,14.206,0l14.555,21.536a9.243,9.243,0,0,1,0,10.252h0l-14.555,21.537a8.59,8.59,0,0,1-7.1,3.832m0-56.621a4.365,4.365,0,0,0-3.645,1.957l-14.559,21.537a4.749,4.749,0,0,0,0,5.263l14.559,21.537a4.48,4.48,0,0,0,7.284,0l14.559-21.537a4.744,4.744,0,0,0,0-5.263l-14.559-21.537a4.353,4.353,0,0,0-3.639-1.957" transform="translate(863.128 1167.615)" fill="#ff4438"/>
    <path id="Path_20369" data-name="Path 20369" d="M143.383,2385.233l-.79.257a30.9,30.9,0,0,0-6.794,8.283l-.136,1.185a23.863,23.863,0,0,0,7.42,7.256l1.1-.389c1.745-1.4,5.546-5.554,6.484-8.151l.232-1.276c-1.5-2.651-5.533-6.576-7.516-7.165" transform="translate(867.241 1173.877)" fill="#ff4438"/>
    <path id="Path_20370" data-name="Path 20370" d="M119.406,2446.963a2.036,2.036,0,0,1-1.205-.393,2.223,2.223,0,0,1-.52-3.037l11.858-17.548a3.443,3.443,0,0,0,0-3.826l-11.858-17.544a2.23,2.23,0,0,1,.52-3.041,2.075,2.075,0,0,1,2.938.543L133,2419.665a7.944,7.944,0,0,1,0,8.82l-11.866,17.548a2.094,2.094,0,0,1-1.733.93" transform="translate(860.366 1180.581)" fill="#ff4438"/>
    <path id="Path_20371" data-name="Path 20371" d="M168.747,2446.964a2.081,2.081,0,0,1-1.729-.93l-11.866-17.549a7.952,7.952,0,0,1,0-8.82l11.866-17.548a2.064,2.064,0,0,1,2.934-.543,2.235,2.235,0,0,1,.524,3.041l-11.862,17.544a3.433,3.433,0,0,0,.005,3.826l11.857,17.549a2.228,2.228,0,0,1-.524,3.037,2.036,2.036,0,0,1-1.205.393" transform="translate(874.038 1180.579)" fill="#ff4438"/>
    <path id="Path_20372" data-name="Path 20372" d="M147.892,2483.049a8.6,8.6,0,0,1-7.106-3.832l-14.556-21.536a9.221,9.221,0,0,1,0-10.249l14.559-21.538a8.506,8.506,0,0,1,14.206,0l14.555,21.538a9.231,9.231,0,0,1,0,10.255L155,2479.217a8.589,8.589,0,0,1-7.1,3.832m0-56.621a4.343,4.343,0,0,0-3.639,1.961l-14.564,21.541a4.731,4.731,0,0,0,0,5.252l14.559,21.542a4.483,4.483,0,0,0,7.284,0l14.559-21.542a4.726,4.726,0,0,0,0-5.252l-14.559-21.541a4.348,4.348,0,0,0-3.639-1.961" transform="translate(863.128 1189.356)" fill="#ff4438"/>
    <path id="Path_20373" data-name="Path 20373" d="M135.663,2444.131l.236,1.271c.935,2.6,4.74,6.753,6.48,8.156l1.105.389a23.8,23.8,0,0,0,7.415-7.26l-.136-1.18a31.043,31.043,0,0,0-6.789-8.288l-.794-.254c-1.979.585-6.02,4.518-7.517,7.165" transform="translate(867.241 1195.617)" fill="#ff4438"/>
    <path id="Path_20374" data-name="Path 20374" d="M166.246,2495.9l-12.221-18.085a6.943,6.943,0,0,1,0-7.754l12.221-18.082a1.28,1.28,0,0,1,2.338.761v42.4a1.279,1.279,0,0,1-2.338.761" transform="translate(873.673 1201.688)" fill="#ff4438"/>
    <path id="Path_20375" data-name="Path 20375" d="M120.9,2451.98l12.273,18.047a6.956,6.956,0,0,1,.025,7.755L121.027,2495.9a1.274,1.274,0,0,1-2.332-.756l-.128-42.4a1.279,1.279,0,0,1,2.334-.768" transform="translate(860.841 1201.69)" fill="#ff4438"/>
    <path id="Path_20376" data-name="Path 20376" d="M147.892,2531.724a8.6,8.6,0,0,1-7.1-3.822l-14.559-21.536a9.238,9.238,0,0,1,0-10.254l14.559-21.538a8.5,8.5,0,0,1,14.206,0l14.555,21.538a9.245,9.245,0,0,1,0,10.254h0L154.995,2527.9a8.6,8.6,0,0,1-7.1,3.822m0-56.616a4.34,4.34,0,0,0-3.639,1.963l-14.564,21.536a4.742,4.742,0,0,0,0,5.259l14.559,21.541a4.49,4.49,0,0,0,7.284,0l14.559-21.541a4.737,4.737,0,0,0,0-5.259l-14.559-21.536a4.345,4.345,0,0,0-3.639-1.963" transform="translate(863.128 1209.811)" fill="#ff4438"/>
    <path id="Path_20377" data-name="Path 20377" d="M143.383,2485.645l-.79.254a30.962,30.962,0,0,0-6.794,8.285l-.136,1.179a23.869,23.869,0,0,0,7.42,7.261l1.1-.389c1.745-1.4,5.546-5.556,6.484-8.156l.232-1.27c-1.5-2.651-5.533-6.58-7.516-7.165" transform="translate(867.241 1216.073)" fill="#ff4438"/>
    <path id="Path_20378" data-name="Path 20378" d="M119.406,2547.369a2.036,2.036,0,0,1-1.205-.393,2.223,2.223,0,0,1-.52-3.037l11.858-17.549a3.436,3.436,0,0,0,0-3.822l-11.858-17.543a2.228,2.228,0,0,1,.52-3.041,2.075,2.075,0,0,1,2.938.541L133,2520.074a7.932,7.932,0,0,1,0,8.817l-11.862,17.548a2.093,2.093,0,0,1-1.733.93" transform="translate(860.366 1222.777)" fill="#ff4438"/>
    <path id="Path_20379" data-name="Path 20379" d="M168.748,2547.371a2.08,2.08,0,0,1-1.729-.93l-11.866-17.548a7.932,7.932,0,0,1,0-8.817l11.866-17.547a2.061,2.061,0,0,1,2.934-.541,2.233,2.233,0,0,1,.524,3.041l-11.862,17.543a3.436,3.436,0,0,0,0,3.822l11.862,17.549a2.228,2.228,0,0,1-.524,3.037,2.036,2.036,0,0,1-1.205.393" transform="translate(874.037 1222.776)" fill="#ff4438"/>
    <path id="Path_20380" data-name="Path 20380" d="M147.892,2583.462a8.6,8.6,0,0,1-7.106-3.832l-14.556-21.536a9.228,9.228,0,0,1,0-10.253l14.559-21.536a8.5,8.5,0,0,1,14.206,0l14.559,21.541a9.236,9.236,0,0,1,0,10.249h0L155,2579.63a8.59,8.59,0,0,1-7.1,3.832m0-56.621a4.364,4.364,0,0,0-3.645,1.957l-14.559,21.542a4.74,4.74,0,0,0,0,5.258l14.559,21.537a4.48,4.48,0,0,0,7.284,0L166.09,2555.6a4.73,4.73,0,0,0,0-5.255L151.532,2528.8a4.352,4.352,0,0,0-3.639-1.957" transform="translate(863.128 1231.552)" fill="#ff4438"/>
    <path id="Path_20381" data-name="Path 20381" d="M135.663,2544.54l.236,1.276c.935,2.6,4.74,6.754,6.48,8.156l1.105.385a23.767,23.767,0,0,0,7.415-7.258l-.136-1.178a30.853,30.853,0,0,0-6.789-8.286l-.794-.26c-1.979.591-6.02,4.518-7.517,7.165" transform="translate(867.241 1237.813)" fill="#ff4438"/>
    <path id="Path_20382" data-name="Path 20382" d="M166.246,2596.312l-12.221-18.081a6.944,6.944,0,0,1,0-7.755l12.221-18.081a1.279,1.279,0,0,1,2.338.76v42.4a1.279,1.279,0,0,1-2.338.761" transform="translate(873.673 1243.885)" fill="#ff4438"/>
    <path id="Path_20383" data-name="Path 20383" d="M120.9,2552.392l12.273,18.041a6.956,6.956,0,0,1,.025,7.754l-12.172,18.121a1.273,1.273,0,0,1-2.332-.75l-.128-42.4a1.278,1.278,0,0,1,2.334-.768" transform="translate(860.841 1243.885)" fill="#ff4438"/>
  </g>
</svg>
